<?xml version="1.0" encoding="UTF-8"?>
<svg width="15px" height="15px" viewBox="0 0 15 15" version="1.1" xmlns="http://www.w3.org/2000/svg" xmlns:xlink="http://www.w3.org/1999/xlink">
    <title>brand-github</title>
    <g id="Página-1" stroke="none" stroke-width="1" fill="none" fill-rule="evenodd">
        <g id="MacBook-Pro-13&quot;" transform="translate(-736, -4832)">
            <g id="Grupo-3" transform="translate(725, 4822)">
                <g id="brand-github" transform="translate(11, 10)">
                    <polygon id="Trazado" points="0 0 15 0 15 15 0 15"></polygon>
                    <path d="M6.875,11.875 C4.1875,12.75 4.1875,10.3125 3.125,10 M10.625,13.125 L10.625,10.9375 C10.625,10.3125 10.6875,10.0625 10.3125,9.6875 C12.0625,9.5 13.75,8.8125 13.75,5.9375 C13.7492391,5.1906026 13.457842,4.47331759 12.9375,3.9375 C13.1815418,3.28872901 13.1590743,2.56976736 12.875,1.9375 C12.875,1.9375 12.1875,1.75 10.6875,2.75 C9.41702366,2.41911734 8.08297634,2.41911734 6.8125,2.75 C5.3125,1.75 4.625,1.9375 4.625,1.9375 C4.34092573,2.56976736 4.31845818,3.28872901 4.5625,3.9375 C4.04215798,4.47331759 3.75076095,5.1906026 3.75,5.9375 C3.75,8.8125 5.4375,9.5 7.1875,9.6875 C6.8125,10.0625 6.8125,10.4375 6.875,10.9375 L6.875,13.125" id="Forma" stroke="#FFFFFF" stroke-width="1.5" stroke-linecap="round" stroke-linejoin="round"></path>
                </g>
            </g>
        </g>
    </g>
</svg>