<?xml version="1.0" encoding="UTF-8"?>
<svg id="Layer_1" xmlns="http://www.w3.org/2000/svg" version="1.1" viewBox="0 0 2658.67 2658.67">
  <!-- Generator: Adobe Illustrator 29.6.0, SVG Export Plug-In . SVG Version: 2.1.1 Build 207)  -->
  <defs>
    <style>
      .st0 {
        fill: #fff;
        fill-rule: evenodd;
      }
    </style>
  </defs>
  <path class="st0" d="M322.44,2335.57v-.02c-127.53-127.51-191.29-295.51-191.29-463.41s63.76-335.88,191.29-463.39l311.55-311.55c127.5-127.51,295.47-191.28,463.41-191.28s335.87,63.77,463.37,191.28h0c57.38,57.37,101.8,122.9,133.37,192.92-39.11,27.22-85.75,41.67-134.22,41.67s-91.96-13.49-130.25-38.94c-9.46-11.76-19.61-23.11-30.53-34.01h0c-82.89-82.91-192.3-124.35-301.74-124.37-109.48.02-218.89,41.46-301.78,124.37l-311.55,311.55c-82.92,82.89-124.38,192.3-124.38,301.75s41.49,218.87,124.38,301.79h0c82.93,82.89,192.3,124.35,301.78,124.35s218.85-41.46,301.75-124.35l256.43-256.44c69.83,18.25,142.31,27.71,215.89,27.69,23.51,0,46.94-.99,70.19-2.88-20.53,28.65-43.64,56.01-69.33,81.71l-311.54,311.57c-127.5,127.5-295.51,191.28-463.38,191.28s-335.88-63.77-463.41-191.28h0ZM2334.87,323.13c-127.53-127.53-295.5-191.3-463.41-191.3s-335.87,63.77-463.4,191.3l-311.55,311.55c-25.7,25.7-48.8,53.04-69.33,81.71,23.25-1.91,46.68-2.9,70.23-2.9,73.53,0,146.02,9.44,215.85,27.71l256.43-256.43c82.93-82.92,192.35-124.38,301.78-124.38s218.86,41.46,301.75,124.38h0c82.93,82.91,124.38,192.32,124.38,301.76s-41.45,218.86-124.38,301.77l-311.55,311.57c-82.89,82.89-192.29,124.33-301.74,124.36-109.45-.03-218.86-41.47-301.78-124.36v-.02c-10.88-10.9-21.06-22.25-30.53-34-38.26-25.46-83.38-38.95-130.21-38.96-48.51,0-95.15,14.47-134.25,41.67,31.56,70.03,76.02,135.58,133.36,192.93h0c127.5,127.5,295.51,191.28,463.41,191.28s335.88-63.78,463.41-191.28l311.55-311.55c127.5-127.53,191.26-295.5,191.26-463.41s-63.76-335.9-191.26-463.38h0Z"/>
</svg>