<?xml version="1.0" encoding="UTF-8"?>
<svg xmlns="http://www.w3.org/2000/svg" version="1.1" viewBox="0 0 26.76 38.72">
  <defs>
    <style>
      .cls-1 {
        fill: #27e48a;
      }
    </style>
  </defs>
  <!-- Generator: Adobe Illustrator 28.7.1, SVG Export Plug-In . SVG Version: 1.2.0 Build 142)  -->
  <g>
    <g id="Capa_1">
      <g>
        <path class="cls-1" d="M.02,13.56C.04,6.47,5.43.51,12.08.04c7.21-.51,13.5,4.36,14.51,11.32.4,2.79.11,5.57-1.31,8.06-3.45,6.06-6.96,12.09-10.48,18.11-.91,1.56-1.97,1.58-2.87.04-3.53-6.02-7.04-12.05-10.48-18.11C.4,17.62-.1,15.56.02,13.56ZM2.71,13.36c-.23,2.04.61,4.07,1.69,5.99,2.63,4.64,5.39,9.2,7.98,13.86.74,1.34,1.13,1.15,1.77.04,2.51-4.33,5.05-8.64,7.54-12.98,1.61-2.8,2.81-5.64,2.02-9.05-1.31-5.6-5.91-8.64-11.04-8.44-5.84.23-9.98,5.29-9.96,10.59Z"/>
        <path class="cls-1" d="M13.43,6.6c3.55.03,6.19,2.8,6.28,6.35.08,3.15-3.11,6.33-6.32,6.34-3.49.01-6.39-2.94-6.36-6.5.03-3.51,2.83-6.23,6.4-6.2ZM13.39,16.44c1.94-.02,3.61-1.65,3.6-3.53,0-1.98-1.71-3.6-3.76-3.57-2.07.03-3.53,1.46-3.51,3.47.02,1.66,1.2,3.87,3.67,3.62Z"/>
      </g>
    </g>
  </g>
</svg>