<?xml version="1.0" encoding="UTF-8"?>
<svg width="120px" height="28px" viewBox="0 0 120 28" version="1.1" xmlns="http://www.w3.org/2000/svg" xmlns:xlink="http://www.w3.org/1999/xlink">
    <title>Ruben_Terre_Logo_blanco_131119</title>
    <g id="Page-1" stroke="none" stroke-width="1" fill="none" fill-rule="evenodd">
        <g id="onepage_desktop" transform="translate(-660, -29)" fill="#FFFFFF" fill-rule="nonzero">
            <g id="Ruben_Terre_Logo_blanco_131119" transform="translate(660, 29)">
                <path d="M21.806778,3.2803375 L11.8935698,3.2803375 L11.8837983,7.05257428 L11.8837983,23.6337451 L11.5483094,23.6337451 C10.8512742,23.6337451 10.3105834,23.5667339 9.9620658,22.8524933 L7.77487365,18.1960363 C7.54353685,17.680504 7.15522954,17.2518938 6.665806,16.9718572 L6.665806,16.9048461 C7.61690073,16.7005438 10.4115558,14.8994152 10.4115558,10.5485944 C10.4115558,5.99510583 7.52732845,3.27543424 3.40863229,3.27543424 L0.00488576057,3.27543424 L0.00488576057,7.03949894 L2.89237026,7.03949894 C4.92158948,7.03949894 6.14954397,8.39933473 6.14954397,10.7790474 C6.14954397,13.1914484 4.91344655,14.5856069 2.82071244,14.5856069 L0,14.6035855 L0,18.3921665 L1.61718675,18.3921665 C2.78976929,18.3921665 3.26531665,18.5556083 3.73434966,19.5133773 L6.61857698,25.5966811 C7.3481839,27.1264964 8.08430516,27.3945409 9.75849244,27.3945409 L16.0220375,27.3945409 L16.0220375,7.04767103 L19.4778988,7.04767103 C19.922503,7.04767103 20.174934,7.32061884 20.174934,7.79623448 L20.174934,9.25740419 L23.82134,9.25740419 L23.82134,5.45084463 C23.82134,3.85401822 23.3148494,3.27543424 21.7921207,3.27543424" id="Path"></path>
                <path d="M29.5858531,8.61412362 L31.4955531,8.61412362 C32.9763683,8.61412362 33.7173168,7.96452019 33.7183996,6.66531333 C33.7194801,5.36610646 32.9785317,4.71650303 31.4955531,4.71650303 L29.5858531,4.71650303 L29.5858531,8.61412362 Z M33.6421402,13.6972705 L31.0071761,9.56092062 L29.5858531,9.56092062 L29.5858531,13.6972705 L28.2878412,13.6972705 L28.2878412,3.57320099 L31.6156192,3.57320099 C32.7643597,3.57320099 33.6253743,3.84819978 34.1986628,4.39819735 C34.7719514,4.94819492 35.0591366,5.67845745 35.0602182,6.58898492 C35.0602182,7.41289861 34.830362,8.07603544 34.3706494,8.57839543 C33.9109369,9.08075542 33.2467874,9.39418907 32.3782012,9.5186964 L35.1364764,13.6972705 L33.6421402,13.6972705 Z" id="Shape"></path>
                <path d="M38.50935,3.57320099 L38.50935,9.58717979 C38.50935,10.5745014 38.726772,11.3023966 39.1616162,11.7708651 C39.5964603,12.2393337 40.1963743,12.476248 40.9613582,12.4816081 C41.7177947,12.4816081 42.3086272,12.2441578 42.7338556,11.7692571 C43.159084,11.2943565 43.3727667,10.5691414 43.3749035,9.59361185 L43.3749035,3.57320099 L44.6650124,3.57320099 L44.6650124,9.58717979 C44.6650124,10.9518491 44.3273938,11.9782992 43.6521567,12.6665299 C42.9769196,13.3547606 42.0725079,13.69834 40.9389215,13.6972705 C39.8138824,13.6972705 38.9137443,13.3536886 38.2385072,12.6665299 C37.5632701,11.9793712 37.2240489,10.9529211 37.2208437,9.58717979 L37.2208437,3.57320099 L38.50935,3.57320099 Z" id="Path"></path>
                <path d="M50.3207053,12.604488 C51.0219998,12.604488 51.5639092,12.4464432 51.9464334,12.1303535 C52.3390119,11.797974 52.5522888,11.3046919 52.5235174,10.7956326 C52.5479856,10.286441 52.3296706,9.79519208 51.9332429,9.46740664 C51.5397266,9.14265702 50.9928708,8.98028221 50.2926755,8.98028221 L48.0766729,8.98028221 L48.0766729,12.604488 L50.3207053,12.604488 Z M48.0766729,8.00928083 L50.2926755,8.00928083 C50.9434064,8.00928083 51.4413475,7.86097851 51.7864987,7.56437385 C52.1408545,7.24592707 52.3309695,6.7874045 52.3042255,6.31571155 C52.3260945,5.8559432 52.1394345,5.41036671 51.7947428,5.09952422 C51.4539884,4.80291956 50.9335136,4.65461724 50.2333183,4.65461724 L48.0766729,4.65461724 L48.0766729,8.00928083 Z M51.7650642,8.45418782 C52.3656603,8.57093169 52.9081169,8.88527435 53.3034053,9.34562553 C53.6946781,9.79785929 53.9046076,10.3753408 53.8936798,10.9693736 C53.9246578,11.7220126 53.6119158,12.448793 53.0412443,12.9503463 C52.4729539,13.4482958 51.6485482,13.6972705 50.568027,13.6972705 L46.7493797,13.6972705 L46.7493797,3.57320099 L50.5103186,3.57320099 C51.5413754,3.57320099 52.3240113,3.79781948 52.8582262,4.24705646 C53.3924411,4.69629344 53.6595486,5.31385897 53.6595486,6.09975305 C53.6865582,6.67285748 53.4974648,7.23556272 53.1286313,7.67965997 C52.7751709,8.0811232 52.2949251,8.35391046 51.7650642,8.45418782 Z" id="Shape"></path>
                <path d="M60.9024756,1.35205879 L57.8056149,3.02054849 L57.8056149,2.10005803 L60.9024756,0.297766749 L60.9024756,1.35205879 Z M57.0063189,4.70193472 L57.0063189,8.13886229 L60.9024756,8.13886229 L60.9024756,9.1351199 L57.0063189,9.1351199 L57.0063189,12.6429784 L61.3399504,12.6429784 L61.3399504,13.6972705 L55.6823821,13.6972705 L55.6823821,3.64764268 L61.3399504,3.64764268 L61.3399504,4.70193472 L57.0063189,4.70193472 Z" id="Shape"></path>
                <polygon id="Path" points="71.1662531 13.6972705 69.8307268 13.6972705 64.4620771 5.69902822 64.4620771 13.6972705 63.1265509 13.6972705 63.1265509 3.57320099 64.4620771 3.57320099 69.8307268 11.5876833 69.8307268 3.57320099 71.1662531 3.57320099"></polygon>
                <polygon id="Path" points="84.2679901 3.57320099 84.2679901 4.6353026 81.3591863 4.6353026 81.3591863 13.6972705 80.0303919 13.6972705 80.0303919 4.6353026 77.1215881 4.6353026 77.1215881 3.57320099"></polygon>
                <polygon id="Path" points="87.9740608 4.6353026 87.9740608 8.09768889 91.8718622 8.09768889 91.8718622 9.1029502 87.9740608 9.1029502 87.9740608 12.6351689 92.3076923 12.6351689 92.3076923 13.6972705 86.6501241 13.6972705 86.6501241 3.57320099 92.3076923 3.57320099 92.3076923 4.6353026"></polygon>
                <path d="M96.5861452,8.61412362 L98.4982998,8.61412362 C99.9844471,8.61412362 100.726979,7.96452019 100.725896,6.66531333 C100.724811,5.36610646 99.9822792,4.71650303 98.4982998,4.71650303 L96.5861452,4.71650303 L96.5861452,8.61412362 Z M100.6511,13.6972705 L98.0088793,9.56092062 L96.5861452,9.56092062 L96.5861452,13.6972705 L95.2853598,13.6972705 L95.2853598,3.57320099 L98.6218744,3.57320099 C99.7709015,3.57320099 100.633214,3.84819978 101.208811,4.39819735 C101.784409,4.94819492 102.072208,5.67845745 102.072208,6.58898492 C102.072208,7.41289861 101.84186,8.07549411 101.381165,8.57677142 C100.920471,9.07804874 100.250024,9.39202373 99.369826,9.5186964 L102.133995,13.6972705 L100.6511,13.6972705 Z" id="Shape"></path>
                <path d="M106.113755,8.61412362 L108.024549,8.61412362 C109.509639,8.61412362 110.251642,7.96452019 110.25056,6.66531333 C110.249475,5.36610646 109.507472,4.71650303 108.024549,4.71650303 L106.113755,4.71650303 L106.113755,8.61412362 Z M110.175817,13.6972705 L107.535477,9.56092062 L106.113755,9.56092062 L106.113755,13.6972705 L104.813896,13.6972705 L104.813896,3.57320099 L108.143161,3.57320099 C109.293537,3.57320099 110.155777,3.84819978 110.729882,4.39819735 C111.303986,4.94819492 111.589956,5.67845745 111.587789,6.58898492 C111.587789,7.41289861 111.357606,8.07549411 110.897239,8.57677142 C110.436872,9.07804874 109.771235,9.39202373 108.900329,9.5186964 L111.662531,13.6972705 L110.175817,13.6972705 Z" id="Shape"></path>
                <path d="M119.56417,1.05429204 L116.465664,2.72278174 L116.465664,1.79584302 L119.56417,0 L119.56417,1.05429204 Z M115.666369,4.40416797 L115.666369,7.8427076 L119.56417,7.8427076 L119.56417,8.84057729 L115.666369,8.84057729 L115.666369,12.3452117 L120,12.3452117 L120,13.3995037 L114.342432,13.3995037 L114.342432,3.34987593 L120,3.34987593 L120,4.40416797 L115.666369,4.40416797 Z" id="Shape"></path>
                <path d="M30.4339632,26.6726772 C31.2177294,26.6726772 31.8169244,26.4623672 32.2315483,26.0417472 C32.6461722,25.6211271 32.854013,25.0298366 32.8550707,24.2678757 C32.8550707,23.5048137 32.6488165,22.911321 32.236308,22.4873976 C31.8237995,22.0634743 31.2230179,21.8520631 30.4339632,21.85316 L29.3598546,21.85316 L29.3598546,26.6726772 L30.4339632,26.6726772 Z M33.6467697,24.2678757 C33.65925,24.8416734 33.5332369,25.4095605 33.2802718,25.9195251 C33.0366756,26.3889954 32.6606924,26.7694484 32.20299,27.0096137 C31.6700807,27.2799716 31.0820447,27.4114718 30.4894932,27.3927964 L28.5856079,27.3927964 L28.5856079,21.142955 L30.4894932,21.142955 C31.080374,21.1257383 31.6666856,21.2553975 32.1998169,21.5211827 C32.658354,21.7562288 33.0349662,22.1344312 33.2770986,22.6030131 C33.532403,23.116946 33.6595212,23.6894399 33.6467697,24.2678757 L33.6467697,24.2678757 Z" id="Shape"></path>
                <rect id="Rectangle" x="34.2431762" y="21.1414392" width="1" height="6.25310174"></rect>
                <path d="M39.8993899,25.7410798 C39.9011206,26.0235174 39.8279304,26.3015479 39.6869952,26.5479111 C39.53558,26.8077799 39.3116848,27.0199365 39.0415786,27.1594892 C38.7105936,27.3244404 38.3425075,27.4049157 37.9713725,27.3934703 C37.5920817,27.4001444 37.2159659,27.324657 36.8698835,27.1723985 C36.5649954,27.0369821 36.2999478,26.8282812 36.0993351,26.5656614 C35.9086913,26.3073967 35.7947177,26.0024488 35.7700409,25.6846016 L36.6212664,25.6846016 C36.6418733,25.8652272 36.7037797,26.0389722 36.8023782,26.1929054 C36.9119749,26.3634451 37.0644973,26.5034814 37.2452788,26.5995483 C37.4585328,26.7118743 37.6980826,26.7675085 37.9400896,26.7609146 C38.2383547,26.7800432 38.5318,26.6799078 38.7534462,26.4833646 C38.9433615,26.2942165 39.0457371,26.0369605 39.0366392,25.7717394 C39.0467269,25.5526089 38.97601,25.3372393 38.8374162,25.1650023 C38.7028887,25.0077308 38.5341046,24.882011 38.3434749,24.7970872 C38.0846833,24.6831196 37.8184693,24.5860872 37.546583,24.506628 C37.2224627,24.4064986 36.9051536,24.286308 36.5965693,24.1467812 C36.3528562,24.0299747 36.1428586,23.8552277 35.9857286,23.6384775 C35.8063105,23.3751897 35.7179968,23.0623511 35.7338186,22.7461221 C35.7274159,22.4496516 35.8086089,22.1576895 35.9676174,21.9054039 C36.1302401,21.6564744 36.3646117,21.4604701 36.641024,21.3422357 C36.9647909,21.2019955 37.3161963,21.1336659 37.6700683,21.1421415 C38.2836532,21.1421415 38.7704597,21.287909 39.130488,21.5794441 C39.481819,21.8554156 39.7078396,22.2561174 39.7594399,22.6944849 L38.8917497,22.6944849 C38.8410919,22.4441016 38.7073715,22.2171651 38.511415,22.0490199 C38.2772958,21.8548142 37.9763568,21.7555381 37.6700683,21.7714699 C37.3889547,21.7580084 37.112531,21.8458263 36.8929341,22.0183603 C36.6925559,22.1959118 36.5848319,22.4527378 36.5998623,22.7170762 C36.5902946,22.9254271 36.6581539,23.1301083 36.7908529,23.2931537 C36.9200543,23.4418282 37.0814934,23.560357 37.26339,23.6400912 C37.5177854,23.7474575 37.7777337,23.8417164 38.0421708,23.9224821 C38.3732116,24.0225059 38.69717,24.1437931 39.0119421,24.2855562 C39.2612427,24.4060756 39.4753507,24.5864949 39.6343081,24.8099965 C39.8204805,25.0852668 39.9132481,25.4111073 39.8993899,25.7410798 Z" id="Path"></path>
                <polygon id="Path" points="41.5604022 21.7969664 41.5604022 23.9352729 43.8171608 23.9352729 43.8171608 24.5561248 41.5604022 24.5561248 41.5604022 26.7390138 44.0694789 26.7390138 44.0694789 27.3945409 40.7940447 27.3945409 40.7940447 21.1414392 44.0694789 21.1414392 44.0694789 21.7969664"></polygon>
                <path d="M46.5254227,19.653295 C46.6274139,19.651849 46.7284724,19.6733745 46.8214705,19.7163534 C46.9220925,19.7662779 47.017955,19.8257218 47.107812,19.8939125 C47.1872555,19.949851 47.2699101,20.0008324 47.3553274,20.0465802 C47.4224902,20.0770869 47.4954458,20.0918272 47.5688701,20.0897254 C47.664914,20.0931952 47.7578593,20.0545764 47.8244743,19.9835218 C47.8989278,19.8966523 47.9432915,19.7869691 47.9506587,19.6715488 L48.3939216,19.6715488 C48.3719442,19.9249846 48.2735584,20.1651065 48.1124335,20.3585532 C47.9672843,20.5171409 47.76307,20.6046741 47.5510749,20.5991708 C47.4400538,20.6023312 47.32968,20.5808198 47.2275253,20.5361124 C47.1229945,20.4858202 47.0228658,20.4264157 46.9282419,20.3585532 C46.8576077,20.3033064 46.7817301,20.2554949 46.7017572,20.2158422 C46.6362917,20.1852243 46.5650086,20.1699201 46.4930677,20.1710375 C46.2779072,20.1710375 46.1549584,20.3104297 46.1193679,20.5892142 L45.6841937,20.5892142 C45.7074847,20.3308265 45.8061422,20.0856345 45.9672996,19.8856154 C46.1116742,19.7287878 46.3153346,19.6440136 46.5254227,19.653295 Z M49.4292804,27.3945409 L48.6382016,27.3945409 L45.4560912,22.4295232 L45.4560912,27.3945409 L44.6650124,27.3945409 L44.6650124,21.1152538 L45.4560912,21.1152538 L48.6382016,26.093547 L48.6382016,21.1152538 L49.4292804,21.1152538 L49.4292804,27.3945409 Z" id="Shape"></path>
                <path d="M53.3098669,21.8791576 C52.9167073,21.8730416 52.5291354,21.9733495 52.1876757,22.1695931 C51.8541808,22.3651593 51.5841218,22.6537833 51.4101574,23.0005616 C51.0361758,23.804158 51.0361758,24.7334356 51.4101574,25.5370321 C51.5817077,25.8861256 51.8508315,26.1771844 52.1844694,26.3744547 C52.5263517,26.5694742 52.9137319,26.6691755 53.3066607,26.6632767 C53.6977067,26.669452 54.0829884,26.5679035 54.4208363,26.3696141 C54.753564,26.170705 55.0227982,25.8801284 55.1967514,25.5321915 C55.3900692,25.1411251 55.4863331,24.7087258 55.4772992,24.2720239 C55.4870676,23.8316294 55.3908127,23.3953956 55.1967514,23.0005616 C55.0230673,22.6541102 54.7536233,22.3655484 54.4208363,22.1695931 C54.0830545,21.9743493 53.699355,21.8740405 53.3098669,21.8791576 L53.3098669,21.8791576 Z M53.3098669,21.141774 C53.84296,21.1337104 54.3682283,21.2714562 54.8296345,21.5403161 C55.2796616,21.8057453 55.6476217,22.1917333 55.8925099,22.6552659 C56.4063842,23.6687827 56.4063842,24.868811 55.8925099,25.8823277 C55.6471087,26.3450667 55.2792343,26.7304062 54.8296345,26.9956641 C54.3682283,27.264524 53.84296,27.4022697 53.3098669,27.3942062 C52.7738276,27.4014571 52.2456725,27.2638254 51.7804806,26.9956641 C51.3267033,26.7326321 50.9551773,26.3469579 50.7079863,25.8823277 C50.1941121,24.868811 50.1941121,23.6687827 50.7079863,22.6552659 C50.954656,22.1898358 51.3262708,21.8035102 51.7804806,21.5403161 C52.2456725,21.2721547 52.7738276,21.134523 53.3098669,21.141774 L53.3098669,21.141774 Z" id="Shape"></path>
                <path d="M61.680201,21.1431654 C62.3254577,21.1213515 62.9605335,21.3067711 63.4906118,21.671741 C63.9789474,22.0256108 64.3280422,22.5363971 64.478257,23.1168376 L63.6359018,23.1168376 C63.4922055,22.7501847 63.2358071,22.4374992 62.9029221,22.2229467 C62.541985,21.99093 62.1185483,21.8725854 61.6883634,21.8834945 C61.2916002,21.8771627 60.9005601,21.977734 60.5570607,22.1744536 C60.2208028,22.371769 59.9483964,22.6600055 59.7718419,23.0053033 C59.5744638,23.3985663 59.4769615,23.8335728 59.4877919,24.2725915 C59.4755246,24.720585 59.5747566,25.1646866 59.7767393,25.5657428 C59.9568844,25.91464 60.2352983,26.2043563 60.5782828,26.3998254 C60.9388602,26.5983048 61.3460894,26.698694 61.7585596,26.6907844 C62.1211241,26.6944176 62.4791371,26.6106476 62.8017089,26.4467021 C63.119745,26.2833821 63.3879952,26.0389709 63.5787653,25.7387018 C63.7868733,25.4098345 63.9117554,25.036095 63.9428064,24.6492218 L61.5136889,24.6492218 L61.5136889,24.0592216 L64.6153846,24.0592216 L64.6153846,24.7882356 C64.5674219,25.2573526 64.4110177,25.7092357 64.1582926,26.1088663 C63.9061835,26.5026446 63.5559317,26.8255194 63.1412629,27.046401 C62.6936079,27.2829449 62.1924322,27.4025576 61.6850984,27.3939354 C61.1325111,27.4048497 60.5871736,27.2680394 60.1064986,26.9979079 C59.653163,26.7374802 59.283571,26.3552654 59.0404947,25.8954964 C58.5332346,24.8763979 58.5332346,23.6817166 59.0404947,22.6626182 C59.2844893,22.2022444 59.6537544,21.8186877 60.1064986,21.5553574 C60.5832072,21.2782357 61.1274611,21.1356821 61.680201,21.1431654 L61.680201,21.1431654 Z" id="Path"></path>
                <path d="M66.007906,24.25477 L67.1692312,24.25477 C68.0724841,24.25477 68.5241105,23.852659 68.5241105,23.0484369 C68.5241105,22.2442149 68.0724841,21.841553 67.1692312,21.8404514 L66.007906,21.8404514 L66.007906,24.25477 Z M68.4801949,27.3945409 L66.8715806,24.8381064 L66.007906,24.8381064 L66.007906,27.3945409 L65.2109181,27.3945409 L65.2109181,21.1414392 L67.2391709,21.1414392 C67.9385684,21.1414392 68.4628455,21.3116478 68.8120021,21.6520651 C69.1682778,22.00766 69.3592352,22.5001945 69.3373635,23.0071242 C69.3573925,23.4563906 69.2072179,23.8963763 68.9177249,24.2365924 C68.5926357,24.5695916 68.1624426,24.7755475 67.7027251,24.8182762 L69.3796526,27.3945409 L68.4801949,27.3945409 Z" id="Shape"></path>
                <path d="M73.7635888,19.7130322 L71.9322434,20.7523243 L71.9322434,20.1756741 L73.7603928,19.057072 L73.7635888,19.7130322 Z M73.4631587,25.3308274 L72.3557221,22.1699914 L71.2482854,25.3308274 L73.4631587,25.3308274 Z M73.6868833,25.9603509 L71.0245609,25.9603509 L70.5179845,27.3945409 L69.6774194,27.3945409 L71.9146651,21.2513167 L72.7999751,21.2513167 L75.0372208,27.3945409 L74.1966557,27.3945409 L73.6868833,25.9603509 Z" id="Shape"></path>
                <polygon id="Path" points="79.2059553 21.1414392 79.2059553 21.7969664 76.4477242 21.7969664 76.4477242 23.9616921 78.7843043 23.9616921 78.7843043 24.5924513 76.4477242 24.5924513 76.4477242 27.3945409 75.6327543 27.3945409 75.6327543 21.1414392"></polygon>
                <rect id="Rectangle" x="79.5037221" y="21.1414392" width="1" height="6.25310174"></rect>
                <path d="M84.0030125,21.1439041 C84.6840393,21.1169803 85.35489,21.3112484 85.9096004,21.6960229 C86.4182278,22.0733798 86.7834418,22.6041697 86.9478908,23.2050398 L86.0895929,23.2050398 C85.938297,22.8111743 85.6660049,22.4720274 85.3096252,22.2335697 C84.9198775,21.9835608 84.4597946,21.8573893 83.9930129,21.8725067 C83.1923307,21.8568625 82.4573808,22.3011361 82.1180903,23.0058885 C81.9220848,23.4031148 81.8255724,23.8397499 81.8364353,24.2801335 C81.8261002,24.7163086 81.9226388,25.1486228 82.1180903,25.5414255 C82.2896231,25.8828784 82.5564065,26.1706723 82.8880585,26.3720324 C83.2207364,26.5684238 83.6037809,26.669455 83.9930129,26.6634735 C84.4597946,26.6785909 84.9198775,26.5524194 85.3096252,26.3024104 C85.6660049,26.0639528 85.938297,25.7248059 86.0895929,25.3309403 L86.9478908,25.3309403 C86.7834418,25.9318104 86.4182278,26.4626003 85.9096004,26.8399572 C85.35489,27.2247317 84.6840393,27.4189999 84.0030125,27.3920761 C83.4528542,27.4026157 82.9103106,27.2659428 82.4347439,26.9970116 C81.9813603,26.733344 81.6139181,26.3505512 81.3747877,25.8927739 C81.1136903,25.3913364 80.9826735,24.8355101 80.9931368,24.273657 C80.9844723,23.7119867 81.1153918,23.1565734 81.3747877,22.6545401 C81.6132992,22.1950763 81.9807758,21.8105638 82.4347439,21.5454451 C82.9096368,21.2742503 83.4522232,21.1353259 84.0030125,21.1439041 Z" id="Path"></path>
                <path d="M90.5291075,21.8791607 C90.1359385,21.8729654 89.7483461,21.9732785 89.4069162,22.1695959 C89.0746068,22.365649 88.8057052,22.6542257 88.6326042,23.0005632 C88.2586227,23.8041586 88.2586227,24.733435 88.6326042,25.5370305 C88.8041545,25.8861235 89.0732783,26.177182 89.4069162,26.3744519 C89.7487693,26.5695442 90.1361695,26.6692505 90.5291075,26.6632736 C90.9228535,26.6708468 91.3110814,26.5692529 91.6512987,26.3696113 C91.983632,26.1702101 92.2527451,25.8797646 92.4272138,25.5321899 C92.620038,25.1410053 92.7157537,24.7085983 92.7061585,24.2720239 C92.7164246,23.831763 92.6207212,23.3955366 92.4272138,23.0005632 C92.2530047,22.6544827 91.9836859,22.3660555 91.6512987,22.1695959 C91.3102006,21.9724566 90.9223798,21.8720844 90.5291075,21.8791607 Z M90.5291075,21.141778 C91.0627136,21.1336644 91.588511,21.2714034 92.0504782,21.5403197 C92.5005053,21.8057486 92.8684654,22.191736 93.1133536,22.655268 C93.6272279,23.6687835 93.6272279,24.8688102 93.1133536,25.8823256 C92.8679524,26.345064 92.500078,26.730403 92.0504782,26.9956605 C91.588511,27.2645767 91.0627136,27.4023158 90.5291075,27.3942021 C89.9935724,27.4014799 89.4659268,27.2638369 89.0013242,26.9956605 C88.547547,26.7326289 88.176021,26.3469552 87.92883,25.8823256 C87.4149558,24.8688102 87.4149558,23.6687835 87.92883,22.655268 C88.1754996,22.1898385 88.5471145,21.8035134 89.0013242,21.5403197 C89.4659268,21.2721432 89.9935724,21.1345002 90.5291075,21.141778 L90.5291075,21.141778 Z" id="Shape"></path>
                <path d="M97.4540312,26.7215759 C97.7517772,26.7315755 98.0407744,26.6216018 98.2541697,26.4170949 C98.4650257,26.2100513 98.5789283,25.9261163 98.5686274,25.6332185 C98.5708239,25.4200726 98.508966,25.2110378 98.3908189,25.0323545 C98.27601,24.855074 98.1181524,24.7086911 97.9314801,24.6064051 C97.7515125,24.5028237 97.5472761,24.4470148 97.3387849,24.4444471 C97.0575031,24.4353625 96.7846111,24.5394674 96.5830986,24.7327323 C96.3739443,24.9535279 96.2667173,25.2494631 96.286751,25.5506199 C96.2684619,25.8677137 96.3881941,26.177484 96.6160261,26.4025187 C96.8404854,26.6152389 97.1424797,26.7302185 97.4540312,26.7215759 L97.4540312,26.7215759 Z M100.417507,27.3386357 L99.0559546,25.8599596 C99.0522218,25.9777634 99.0339784,26.094687 99.0016242,26.2081692 C98.9442966,26.5498281 98.7578878,26.8575739 98.4797231,27.0697855 C98.1861525,27.2911182 97.8237075,27.4055792 97.4540312,27.3937014 C97.1148616,27.3999573 96.7797681,27.3201968 96.4810233,27.1621015 C96.2037538,27.0116258 95.9754384,26.7870265 95.8224731,26.5142697 C95.6589496,26.2230849 95.5765919,25.8945463 95.5837487,25.561957 C95.575456,25.2369485 95.650177,24.9150863 95.8010703,24.62584 C95.9316675,24.3755511 96.132138,24.1671065 96.3789481,24.024976 C96.624227,23.8880814 96.9020394,23.8176629 97.1840257,23.820909 C97.2496529,23.8227049 97.3150945,23.8286556 97.3799443,23.8387244 L97.2465879,23.6767664 C97.0989845,23.5069432 96.9724234,23.3204632 96.8695679,23.1212507 C96.779954,22.9260219 96.7360678,22.7134831 96.7411507,22.4993321 C96.737666,22.0067767 97.0183953,21.5548783 97.4655559,21.3332349 C97.7341324,21.1995964 98.0323324,21.1339135 98.3331957,21.1421245 C98.8402794,21.1421245 99.2277264,21.2668321 99.4955368,21.5162474 C99.7628809,21.7633761 99.9311405,22.096717 99.9696929,22.4556035 C100.00459,22.5834234 100.022302,22.7151922 100.022377,22.8475417 C100.025895,22.8906612 100.025895,22.9339886 100.022377,22.9771081 L99.2617515,22.9771081 C99.2660096,22.9296928 99.2660096,22.8820004 99.2617515,22.8345851 C99.2617515,22.7795194 99.2617515,22.7406495 99.2617515,22.7163558 C99.2715903,22.4684416 99.1823518,22.2265939 99.0131488,22.0426107 C98.8365757,21.8768729 98.5983099,21.7901494 98.3545986,21.802913 C98.126807,21.7915385 97.9044284,21.8736465 97.7405006,22.0296541 C97.5928375,22.1744047 97.5114085,22.3720329 97.5149471,22.577072 C97.5106606,22.736776 97.5456801,22.8951329 97.6170224,23.0386521 C97.7089753,23.2010887 97.8194464,23.3526877 97.9462975,23.4905148 L101.240695,27.3321574 L100.417507,27.3386357 Z" id="Shape"></path>
                <polygon id="Path" points="111.066998 21.1414392 109.481495 27.3945409 108.496537 27.3945409 107.051271 22.2857221 105.607655 27.3945409 104.622697 27.3945409 103.027295 21.1414392 103.923162 21.1414392 105.119301 26.455007 106.599213 21.1414392 107.49508 21.1414392 108.974992 26.4368438 110.18103 21.1414392"></polygon>
                <polygon id="Path" points="112.428889 21.7969664 112.428889 23.9352729 114.685647 23.9352729 114.685647 24.5561248 112.428889 24.5561248 112.428889 26.7390138 114.937965 26.7390138 114.937965 27.3945409 111.662531 27.3945409 111.662531 21.1414392 114.937965 21.1414392 114.937965 21.7969664"></polygon>
                <path d="M117.918165,26.7217389 C118.257511,26.7445685 118.593624,26.6411478 118.866756,26.4298615 C119.094474,26.2236949 119.218169,25.9194077 119.201925,25.6053491 C119.218194,25.2895402 119.091118,24.9841384 118.858851,24.7808368 C118.585495,24.5695832 118.249963,24.4645914 117.91026,24.4840123 L116.618596,24.4840123 L116.618596,26.7217389 L117.918165,26.7217389 Z M116.60911,23.8870654 L117.900774,23.8870654 C118.213616,23.9090235 118.523382,23.8110974 118.771897,23.6116782 C118.978393,23.4153567 119.089278,23.1325707 119.073865,22.8415837 C119.087474,22.5567233 118.978487,22.2803911 118.77664,22.0879794 C118.577436,21.9049377 118.275468,21.8125923 117.867574,21.8125923 L116.602786,21.8125923 L116.60911,23.8870654 Z M118.759249,24.1608035 C119.10931,24.2319726 119.42557,24.4257063 119.655667,24.7099287 C119.882905,24.9889736 120.004871,25.3448233 119.998741,25.7108867 C120.017051,26.1756619 119.834916,26.6245792 119.502312,26.934463 C119.170305,27.2411816 118.691267,27.3945409 118.062035,27.3945409 L115.831266,27.3945409 L115.831266,21.1414392 L118.028834,21.1414392 C118.629608,21.1414392 119.084932,21.2816063 119.396386,21.5586425 C119.95276,22.1221965 120.020498,23.0293841 119.554484,23.6759902 C119.348032,23.9235363 119.068083,24.0918845 118.759249,24.1542074 L118.759249,24.1608035 Z" id="Shape"></path>
            </g>
        </g>
    </g>
</svg>