<?xml version="1.0" encoding="UTF-8"?>
<svg id="Capa_1" xmlns="http://www.w3.org/2000/svg" version="1.1" viewBox="0 0 33 33">
  <!-- Generator: Adobe Illustrator 30.0.0, SVG Export Plug-In . SVG Version: 2.1.1 Build 123)  -->
  <defs>
    <style>
      .st0 {
        fill: #fff;
      }
    </style>
  </defs>
  <path class="st0" d="M9.77,6.03c.99,0,1.89.09,2.71.26.81.17,1.51.46,2.09.86.58.4,1.03.93,1.35,1.59.32.66.48,1.47.48,2.44,0,1.05-.24,1.92-.71,2.62-.48.7-1.18,1.27-2.11,1.72,1.28.37,2.23,1.01,2.87,1.93.63.92.95,2.03.95,3.33,0,1.05-.2,1.95-.61,2.72-.41.77-.96,1.39-1.64,1.88-.69.49-1.47.84-2.36,1.08-.88.23-1.79.35-2.72.35H0V6.03h9.77ZM9.19,14.43c.81,0,1.48-.19,2.01-.58.52-.39.79-1.02.79-1.89,0-.48-.09-.88-.26-1.19-.17-.31-.41-.55-.7-.73-.29-.17-.63-.3-1-.36-.38-.07-.77-.1-1.18-.1h-4.28v4.86h4.62ZM9.45,23.25c.45,0,.87-.04,1.28-.13.41-.09.77-.23,1.08-.44.31-.2.56-.48.74-.83.18-.35.28-.79.28-1.34,0-1.07-.3-1.83-.9-2.28-.6-.46-1.4-.68-2.39-.68h-4.97v5.7h4.89Z"/>
  <path class="st0" d="M23.14,22.81c.62.6,1.51.9,2.68.9.83,0,1.55-.21,2.15-.63.6-.42.97-.86,1.11-1.32h3.64c-.58,1.8-1.47,3.09-2.68,3.87-1.2.78-2.66,1.16-4.36,1.16-1.18,0-2.25-.19-3.2-.57-.95-.38-1.76-.92-2.41-1.61-.66-.7-1.17-1.53-1.53-2.5-.36-.97-.54-2.04-.54-3.2s.18-2.17.55-3.14c.37-.97.89-1.81,1.57-2.52.68-.71,1.49-1.27,2.43-1.67.94-.41,1.98-.61,3.13-.61,1.28,0,2.39.25,3.35.74.95.49,1.73,1.16,2.34,1.99.61.83,1.05,1.78,1.32,2.85.27,1.07.37,2.18.29,3.35h-10.85c.06,1.34.4,2.31,1.02,2.91ZM27.81,14.9c-.49-.54-1.25-.81-2.25-.81-.66,0-1.21.11-1.64.33-.44.22-.79.5-1.05.83-.26.33-.45.68-.55,1.05-.11.37-.17.7-.19.99h6.72c-.19-1.05-.54-1.84-1.03-2.39Z"/>
  <rect class="st0" x="21.42" y="7.08" width="8.4" height="2.33"/>
</svg>