<?xml version="1.0" encoding="UTF-8"?>
<svg id="Capa_1" xmlns="http://www.w3.org/2000/svg" version="1.1" viewBox="0 0 33 33">
  <!-- Generator: Adobe Illustrator 30.0.0, SVG Export Plug-In . SVG Version: 2.1.1 Build 123)  -->
  <defs>
    <style>
      .st0 {
        fill: #fff;
      }

      .st1 {
        fill: none;
        stroke: #fff;
        stroke-miterlimit: 10;
        stroke-width: 1.5px;
      }
    </style>
  </defs>
  <path class="st1" d="M31.23,9.09c-.36-1.33-1.4-2.37-2.73-2.73-2.39-.65-12.01-.65-12.01-.65,0,0-9.62.02-12.01.67-1.33.36-2.37,1.4-2.73,2.73-.72,4.25-1,10.72.02,14.8.36,1.33,1.4,2.37,2.73,2.73,2.39.65,12.01.65,12.01.65,0,0,9.62,0,12.01-.65,1.33-.36,2.37-1.4,2.73-2.73.76-4.25,1-10.72-.02-14.82h0Z"/>
  <path class="st0" d="M13.42,21.12l7.98-4.62-7.98-4.62v9.25Z"/>
</svg>