<?xml version="1.0" encoding="UTF-8"?>
<svg id="Capa_1" data-name="Capa 1" xmlns="http://www.w3.org/2000/svg" xmlns:xlink="http://www.w3.org/1999/xlink" version="1.1" viewBox="0 0 35 34">
  <defs>
    <style>
      .cls-1 {
        clip-path: url(#clippath);
      }

      .cls-2 {
        fill: none;
      }

      .cls-2, .cls-3, .cls-4 {
        stroke-width: 0px;
      }

      .cls-3 {
        fill: #00005b;
      }

      .cls-4 {
        fill: #99f;
      }
    </style>
    <clipPath id="clippath">
      <rect class="cls-2" x=".2" y="0" width="34.7" height="33.8"/>
    </clipPath>
  </defs>
  <g class="cls-1">
    <g>
      <path class="cls-3" d="M28.7,0H6.3C2.9,0,.2,2.8.2,6.2v21.5c0,3.4,2.7,6.1,6.1,6.1h22.4c3.4,0,6.1-2.7,6.1-6.1V6.2c0-3.4-2.7-6.1-6.1-6.1Z"/>
      <path class="cls-4" d="M14.1,20.3h-5.4l-1.1,3.4c0,0,0,.1-.1.2,0,0-.1,0-.2,0h-2.7c-.2,0-.2,0-.2-.3l4.6-13.3c0-.1,0-.3.1-.5,0-.3,0-.6,0-.9,0,0,0,0,0,0,0,0,0,0,0,0,0,0,0,0,0,0,0,0,0,0,0,0h3.7c.1,0,.2,0,.2.1l5.3,14.8c0,.2,0,.2-.1.2h-3c0,0-.1,0-.1,0s0,0,0-.1l-1.2-3.4ZM9.6,17.4h3.7c0-.3-.2-.7-.3-1-.1-.4-.3-.8-.4-1.2-.1-.4-.3-.9-.4-1.3-.1-.4-.3-.9-.4-1.3-.1-.4-.2-.8-.3-1.1h0c-.1.6-.3,1.2-.5,1.9-.2.7-.4,1.4-.7,2.1-.2.7-.4,1.4-.7,2Z"/>
      <path class="cls-4" d="M27.2,19h-4.6c0,.5.2.9.4,1.3.3.4.6.7,1.1.9.6.3,1.2.4,1.8.4.5,0,1,0,1.5-.2.4,0,.9-.2,1.3-.3,0,0,.1,0,.1.1v2.2c0,0,0,.1,0,.2,0,0,0,0-.1.1-.5.2-.9.3-1.4.4-.7.1-1.4.2-2,.2-1.1,0-2-.2-2.8-.5-.7-.3-1.3-.8-1.8-1.4-.5-.6-.8-1.2-1-1.9-.2-.7-.3-1.4-.3-2.1,0-.8.1-1.6.4-2.3.2-.7.6-1.4,1.1-2,.5-.6,1.1-1,1.7-1.4.7-.3,1.5-.5,2.4-.5.8,0,1.5.1,2.2.4.6.3,1.1.6,1.5,1.2.4.5.7,1,.9,1.6.2.6.3,1.2.3,1.8,0,.3,0,.7,0,.9,0,.3,0,.5,0,.6,0,0,0,0,0,.1,0,0,0,0-.1,0,0,0-.3,0-.5,0-.2,0-.5,0-.8,0-.3,0-.7,0-1.1,0ZM22.7,16.9h3c.4,0,.6,0,.8,0,.1,0,.2,0,.3-.1h0c0-.3,0-.5,0-.7-.1-.4-.4-.7-.7-1s-.7-.4-1.2-.3c-.4,0-.8,0-1.1.3-.3.2-.6.5-.8.8-.2.3-.3.7-.3,1Z"/>
    </g>
  </g>
</svg>