<?xml version="1.0" encoding="UTF-8"?>
<svg id="Capa_1" data-name="Capa 1" xmlns="http://www.w3.org/2000/svg" version="1.1" viewBox="0 0 67 53">
  <defs>
    <style>
      .cls-1 {
        fill: #7e13f8;
      }

      .cls-1, .cls-2 {
        stroke-width: 0px;
      }

      .cls-2 {
        fill: #fff;
      }
    </style>
  </defs>
  <rect class="cls-2" x="16.4" y="5" width="32.3" height="43"/>
  <path class="cls-1" d="M14,0C10.2,0,7.5,3.4,7.6,7c0,3.4,0,7.9-1.2,11.5-1.1,3.7-3,6-6.1,6.3v3.4c3.1.3,5,2.6,6.1,6.3,1.1,3.6,1.3,8.1,1.2,11.5,0,3.6,2.7,6.9,6.5,6.9h38.7c3.8,0,6.6-3.3,6.4-6.9,0-3.4,0-7.9,1.2-11.5,1.1-3.7,3-6,6.1-6.3v-3.4c-3.1-.3-5-2.6-6.1-6.3-1.1-3.6-1.3-8.1-1.2-11.5,0-3.6-2.7-6.9-6.4-6.9H14ZM45.2,32.6c0,4.9-3.7,7.9-9.8,7.9h-10.4c-.6,0-1.1-.5-1.1-1.1V13.6c0-.6.5-1.1,1.1-1.1h10.3c5.1,0,8.4,2.8,8.4,7s-2.3,5.6-5.1,6.1v.2c3.9.4,6.5,3.1,6.5,6.9h0ZM34.2,16h-5.9v8.4h5c3.9,0,6-1.6,6-4.3s-1.8-4-5.1-4h0ZM28.3,27.7v9.2h6.2c4,0,6.2-1.6,6.2-4.6s-2.2-4.6-6.4-4.6h-6Z"/>
</svg>