<svg xmlns="http://www.w3.org/2000/svg" id="Capa_1" version="1.1" viewBox="0 0 35 34"><defs><style>.st0{fill-opacity:.2}.st1{fill:#119eff}.st2{fill:#53b9ff}</style></defs><path d="M5.8 7.2.5 12.4l8.1 8.1-8.1 8.2L5.7 34l8.2-8.2 8.1 8.1 5.3-5.3z" class="st2"/><path d="m19.2 20.6-5.3 5.3L22 34l5.3-5.3z" class="st1"/><path d="m19.2 20.6-5.3 5.3 2 2 3.2-7.3Z" class="st0"/><path d="m26.3 13.4 8.2-8.2L29.2 0 21 8.2 13 0 7.7 5.3l21.5 21.5 5.3-5.3-8.1-8.1Z" class="st2"/><path d="m15.8 13.4 5.3-5.3L13 0 7.7 5.3z" class="st1"/><path d="m15.8 13.4 5.3-5.3-2-2-3.2 7.3Z" class="st0"/></svg>