<?xml version="1.0" encoding="UTF-8"?>
<svg width="61px" height="52px" viewBox="0 0 61 52" version="1.1" xmlns="http://www.w3.org/2000/svg" xmlns:xlink="http://www.w3.org/1999/xlink">
    <title>classroom_icon</title>
    <defs>
        <linearGradient x1="50.0183036%" y1="1.328327%" x2="50.0183036%" y2="101.044677%" id="linearGradient-1">
            <stop stop-color="#BF360C" stop-opacity="0.2" offset="0%"></stop>
            <stop stop-color="#BF360C" stop-opacity="0.02" offset="100%"></stop>
        </linearGradient>
        <radialGradient cx="3.44460799%" cy="2.34388%" fx="3.44460799%" fy="2.34388%" r="140.095459%" gradientTransform="translate(0.0344, 0.0234), scale(0.8525, 1), translate(-0.0344, -0.0234)" id="radialGradient-2">
            <stop stop-color="#FFFFFF" stop-opacity="0.1" offset="0%"></stop>
            <stop stop-color="#FFFFFF" stop-opacity="0" offset="100%"></stop>
        </radialGradient>
    </defs>
    <g id="Página-1" stroke="none" stroke-width="1" fill="none" fill-rule="evenodd">
        <g id="MacBook-Pro-13&quot;" transform="translate(-845, -1836)" fill-rule="nonzero">
            <g id="Graphic-designer-Skills-Copia" transform="translate(350, 1760)">
                <g id="classroom_icon" transform="translate(495, 76)">
                    <polygon id="Trazado" fill="#0F9D58" points="5 6 54 6 54 47 5 47"></polygon>
                    <path d="M41.0757089,27.4301231 C42.80152,27.4301231 44.1905875,25.9855177 44.1905875,24.2150615 C44.1905875,22.4446054 42.7909968,21 41.0757089,21 C39.3604209,21 37.9608302,22.4446054 37.9608302,24.2150615 C37.9608302,25.9855177 39.3604209,27.4301231 41.0757089,27.4301231 L41.0757089,27.4301231 Z M41.0757089,29.5698769 C37.7398422,29.5698769 34.1514177,31.3946416 34.1514177,33.653874 L34.1514177,36 L48,36 L48,33.653874 C48,31.3946416 44.4115756,29.5698769 41.0757089,29.5698769 Z M18.9242911,27.4301231 C20.6501023,27.4301231 22.0391698,25.9855177 22.0391698,24.2150615 C22.0391698,22.4446054 20.6395791,21 18.9242911,21 C17.2090032,21 15.8094125,22.4446054 15.8094125,24.2150615 C15.8094125,25.9855177 17.2090032,27.4301231 18.9242911,27.4301231 L18.9242911,27.4301231 Z M18.9242911,29.5698769 C15.5884244,29.5698769 12,31.3946416 12,33.653874 L12,36 L25.8485823,36 L25.8485823,33.653874 C25.8485823,31.3946416 22.2601578,29.5698769 18.9242911,29.5698769 Z" id="Forma" fill="#57BB8A"></path>
                    <path d="M29.5,25.138486 C31.7486428,25.138486 33.5743757,23.3127614 33.5641043,21.0641289 C33.5641043,18.8154964 31.7383279,16.9897718 29.4896851,17.0000431 C27.2410423,17.0000431 25.4256243,18.8258112 25.4256243,21.0744437 C25.4256243,23.3230763 27.2513572,25.138486 29.5,25.138486 Z M29.5,27.8616006 C24.9201954,27.8616006 20,30.2959001 20,33.2872002 L20,36 L39,36 L39,33.2872002 C39,30.2855852 34.0798046,27.8616006 29.5,27.8616006 Z" id="Forma" fill="#F7F7F7"></path>
                    <polygon id="Trazado" fill="#F1F1F1" points="36 44 48 44 48 47 36 47"></polygon>
                    <path d="M56.8385147,0 L4.16148532,0 C1.86476684,0 0,1.8408 0,4.108 L0,47.9024 C0,50.1592 1.86476684,52 4.16148532,52 L56.8385147,52 C59.1352332,52 61,50.1592 61,47.892 L61,4.108 C60.9894646,1.8408 59.1352332,0 56.8385147,0 Z M55.4478411,46.5296 L5.54162349,46.5296 L5.54162349,5.4704 L55.4478411,5.4704 L55.4478411,46.5296 Z" id="Forma" fill="#F4B400"></path>
                    <path d="M56.8385147,0 L4.16148532,0 C1.86476684,0 0,2.06775701 0,4.61448598 L0,5 C0,2.45327103 1.86476684,0.385514019 4.16148532,0.385514019 L56.8385147,0.385514019 C59.1352332,0.385514019 61,2.45327103 61,5 L61,4.61448598 C60.9894646,2.06775701 59.1352332,0 56.8385147,0 Z" id="Trazado" fill="#FFFFFF" opacity="0.2"></path>
                    <path d="M56.8385147,51.614486 L4.16148532,51.614486 C1.86476684,51.614486 0,49.546729 0,47 L0,47.385514 C0,49.932243 1.86476684,52 4.16148532,52 L56.8385147,52 C59.1352332,52 61,49.932243 61,47.385514 L61,47 C60.9894646,49.546729 59.1352332,51.614486 56.8385147,51.614486 Z" id="Trazado" fill="#BF360C" opacity="0.2"></path>
                    <polygon id="Trazado" fill="url(#linearGradient-1)" points="48.4704506 47 36 47 41.5400819 52 54 52"></polygon>
                    <polygon id="Trazado" fill="#263238" opacity="0.2" points="5 4.95 54 4.95 54 5.05 5 5.05"></polygon>
                    <polygon id="Trazado" fill="#FFFFFF" opacity="0.2" points="5 46.95 54 46.95 54 47.05 5 47.05"></polygon>
                    <path d="M56.8385147,0 L4.16148532,0 C1.86476684,0 0,1.8408 0,4.108 L0,47.9024 C0,50.1592 1.86476684,52 4.16148532,52 L56.8385147,52 C59.1352332,52 61,50.1592 61,47.892 L61,4.108 C60.9894646,1.8408 59.1352332,0 56.8385147,0 Z" id="Trazado" fill="url(#radialGradient-2)"></path>
                </g>
            </g>
        </g>
    </g>
</svg>