<svg xmlns="http://www.w3.org/2000/svg" viewBox="0 0 68 77"><path d="M.5 5h56.3c5.9 0 10.7 4.8 10.7 10.7v45.6c0 5.9-4.8 10.7-10.7 10.7H11.2C5.3 72 .5 67.2.5 61.3z" style="fill:#639"/><path d="M24.5 66.7c-4.3 0-7-2.4-6.9-6.9V48.5c0-2.3.7-4 2-5.2 2.4-2.3 7.9-2.4 10.2 0 1.4 1.3 2 3.9 1.8 6.3h-4.9c0-.9 0-2.4-.6-2.9-.7-1-2.6-.9-3.1.2-.3.6-.5 1.4-.5 2.5v9.8c0 2.1.7 3.1 2.1 3.1.7 0 1.2-.2 1.5-.7.5-.6.6-1.8.5-2.8h4.9c.3 4.7-2.4 8-7.2 7.9Zm15.7 0c-4.8 0-6.9-3.3-6.8-7.9h4.7c-.1 2 .6 3.8 2.2 3.7.7 0 1.3-.2 1.6-.7.6-.8.7-3.3-.1-4.2-.6-.9-2.6-1.7-3.7-2.3-1.5-.7-2.7-1.6-3.3-2.6-1.5-2.3-1.4-7.2.8-9.2 2.1-2.5 7.6-2.6 9.6 0 1.3 1.3 1.9 3.9 1.7 6.3h-4.5c0-1 0-2.5-.4-3.1-.3-.5-.8-.7-1.5-.7-1.3 0-2 .8-2 2.4 0 1.7.7 2.4 2.2 3 2 .8 4.5 2.1 5.4 3.6 2.7 4.8.8 12.1-5.8 11.8Zm15.1 0c-4.8 0-6.9-3.3-6.8-7.9h4.7c-.1 2 .6 3.8 2.2 3.7.7 0 1.3-.2 1.6-.7.6-.8.7-3.3-.1-4.2-.6-.9-2.6-1.7-3.7-2.3-1.5-.7-2.7-1.6-3.3-2.6-1.5-2.3-1.4-7.2.8-9.2 2.1-2.5 7.6-2.6 9.6 0 1.3 1.3 1.9 3.9 1.7 6.3h-4.5c0-1 0-2.5-.4-3.1-.3-.5-.8-.7-1.5-.7-1.3 0-2 .8-2 2.4 0 1.7.7 2.4 2.2 3 2 .8 4.5 2.1 5.4 3.6 2.7 4.8.8 12.1-5.8 11.8Z" style="fill:#fff"/></svg>