<?xml version="1.0" encoding="UTF-8"?>
<svg id="Capa_1" data-name="Capa 1" xmlns="http://www.w3.org/2000/svg" xmlns:xlink="http://www.w3.org/1999/xlink" version="1.1" viewBox="0 0 35 53">
  <defs>
    <style>
      .cls-1 {
        fill: #f24e1e;
      }

      .cls-1, .cls-2, .cls-3, .cls-4, .cls-5, .cls-6 {
        stroke-width: 0px;
      }

      .cls-7 {
        clip-path: url(#clippath);
      }

      .cls-2 {
        fill: none;
      }

      .cls-3 {
        fill: #ff7262;
      }

      .cls-4 {
        fill: #a259ff;
      }

      .cls-5 {
        fill: #1abcfe;
      }

      .cls-6 {
        fill: #0acf83;
      }
    </style>
    <clipPath id="clippath">
      <rect class="cls-2" x=".5" y="0" width="34.2" height="51.2"/>
    </clipPath>
  </defs>
  <g class="cls-7">
    <g>
      <path class="cls-6" d="M9,51.3c4.7,0,8.5-3.8,8.5-8.5v-8.5h-8.5c-4.7,0-8.5,3.8-8.5,8.5s3.8,8.5,8.5,8.5Z"/>
      <path class="cls-4" d="M.5,25.7c0-4.7,3.8-8.5,8.5-8.5h8.5v17.1h-8.5c-4.7,0-8.5-3.8-8.5-8.5Z"/>
      <path class="cls-1" d="M.5,8.6C.5,3.9,4.3,0,9,0h8.5v17.1h-8.5C4.3,17.2.5,13.4.5,8.6Z"/>
      <path class="cls-3" d="M17.6,0h8.5c4.7,0,8.5,3.8,8.5,8.5s-3.8,8.5-8.5,8.5h-8.5V0Z"/>
      <path class="cls-5" d="M34.6,25.7c0,4.7-3.8,8.5-8.5,8.5s-8.5-3.8-8.5-8.5,3.8-8.5,8.5-8.5,8.5,3.8,8.5,8.5Z"/>
    </g>
  </g>
</svg>