<?xml version="1.0" encoding="UTF-8"?>
<svg width="36px" height="50px" viewBox="0 0 36 50" version="1.1" xmlns="http://www.w3.org/2000/svg" xmlns:xlink="http://www.w3.org/1999/xlink">
    <title>firebase_icon</title>
    <g id="Página-1" stroke="none" stroke-width="1" fill="none" fill-rule="evenodd">
        <g id="MacBook-Pro-13&quot;" transform="translate(-857, -1398)">
            <g id="Web-Developer-Skills" transform="translate(350, 1169)">
                <g id="card-copia-8" transform="translate(465, 211)">
                    <g id="firebase_icon" transform="translate(42, 18)">
                        <path d="M0,40 L0.289296178,39.5799261 L13.9711113,12.6519479 L14,12.3668574 L7.96893098,0.615955498 C7.46337807,-0.368362927 6.04074402,-0.119456444 5.87504258,0.982460046 L0,40 Z" id="Trazado" fill="#FFC24A" fill-rule="nonzero"></path>
                        <g id="a-link" fill="#FFA712">
                            <path d="M-3.07912644e-17,40 L0.2225678,39.5518027 L14,12.5657756 L7.87765209,0.616473105 C7.36886626,-0.36996168 6.07672497,-0.118450156 5.90976446,0.985795662 L-3.07912644e-17,40 Z" id="a"></path>
                        </g>
                        <path d="M0,40 L0.2225678,39.5518027 L14,12.5657756 L7.87765209,0.616473105 C7.36886626,-0.36996168 6.07672497,-0.118450156 5.90976446,0.985795662 L0,40 Z" id="a" fill="#FCCA3F" fill-rule="nonzero"></path>
                        <path d="M18.4745957,21 L23,16.3289276 L18.4732225,7.61928074 C18.0435459,6.79481917 16.8437748,6.79232794 16.4186298,7.61928074 L14,12.2677935 L14,12.6636237 L18.4744583,21 L18.4745957,21 Z" id="Trazado" fill="#F4BD62" fill-rule="nonzero"></path>
                        <g id="c-link" transform="translate(14, 7)" fill="#FFA50E">
                            <path d="M4.47450445,14 L9,9.33519027 L4.47450445,0.661959526 C4.0448232,-0.161334182 3.0008475,-0.247630034 2.57568624,0.578080526 L0.0748622817,5.42728189 L0,5.67522252 L4.47450445,14 L4.47450445,14 Z" id="c"></path>
                        </g>
                        <path d="M18.4745044,21 L23,16.3351903 L18.4745044,7.66195953 C18.0448232,6.83866582 17.0008475,6.75236997 16.5756862,7.57808053 L14.0748623,12.4272819 L14,12.6752225 L18.4745044,21 L18.4745044,21 Z" id="c" fill="#FCCA3F" fill-rule="nonzero"></path>
                        <polygon id="Trazado" fill="#F6820C" fill-rule="nonzero" points="0 40 0.135832287 39.8616388 0.629459807 39.6586708 18.77013 21.3629686 19 20.7296228 14.4746104 12"></polygon>
                        <path d="M19.6101583,49.5620172 L36,40.2675622 L31.3196448,10.9575003 C31.1731899,10.0404814 30.0668139,9.67800235 29.4212282,10.3354524 L0,40.3097009 L16.295823,49.5613006 C17.3257182,50.145978 18.5800187,50.1462492 19.6101583,49.5620172" id="Trazado" fill="#FDE068" fill-rule="nonzero"></path>
                        <path d="M36,40.2706735 L31.3122399,10.9694582 C31.1657163,10.0526312 30.2370695,9.67333909 29.5905163,10.3307113 L0,40.3342016 L16.2654022,49.5613802 C17.2968504,50.1458982 18.5530581,50.146226 19.5848023,49.5622464 L36,40.2705291 L36,40.2706735 Z" id="Trazado" fill="#FCCA3F" fill-rule="nonzero"></path>
                        <path d="M19.6099532,49.2869426 C18.579846,49.8720838 17.3256085,49.8718121 16.2957458,49.2862247 L0.131091055,40.1526098 L0,40.2937343 L16.2957458,49.5605777 C17.325645,50.1462185 18.5799505,50.1464902 19.6100942,49.5612956 L36,40.2515261 L35.9598269,40 L19.6100942,49.2870861 L19.6099532,49.2869426 Z" id="Trazado" fill="#EEAB37" fill-rule="nonzero"></path>
                    </g>
                </g>
            </g>
        </g>
    </g>
</svg>