<?xml version="1.0" encoding="UTF-8"?>
<svg width="67px" height="65.0294118px" viewBox="0 0 67 65.0294118" version="1.1" xmlns="http://www.w3.org/2000/svg" xmlns:xlink="http://www.w3.org/1999/xlink">
    <title>github-icon</title>
    <g id="github-icon" stroke="none" stroke-width="1" fill="none" fill-rule="evenodd">
        <path d="M33.5002617,0 C15.0009336,0 0,14.9256476 0,33.3379486 C0,48.0674768 9.59879687,60.5641613 22.9095508,64.9722892 C24.5837656,65.2809233 25.198543,64.2490177 25.198543,63.3684339 C25.198543,62.5735384 25.1671367,59.9474141 25.1530039,57.161894 C15.8331992,59.1783032 13.8666445,53.2283072 13.8666445,53.2283072 C12.3426562,49.3749393 10.1468359,48.3500658 10.1468359,48.3500658 C7.10749609,46.2810456 10.3761016,46.3237595 10.3761016,46.3237595 C13.7399727,46.558686 15.5112852,49.759104 15.5112852,49.759104 C18.4993281,54.8556031 23.3484531,53.3822336 25.2600469,52.5302994 C25.5607617,50.3758513 26.4288828,48.9048258 27.3870352,48.0724254 C19.9461094,47.229607 12.1241211,44.3709002 12.1241211,31.5968357 C12.1241211,27.9570374 13.4327148,24.9829509 15.575668,22.648271 C15.2278437,21.808578 14.0812539,18.4180309 15.9001992,13.8257644 C15.9001992,13.8257644 18.7134141,12.929814 25.1153164,17.2431378 C27.7874648,16.5044997 30.6532852,16.1341388 33.5002617,16.1213767 C36.3472383,16.1341388 39.2154141,16.5042392 41.8925352,17.2431378 C48.2865859,12.9300744 51.095875,13.8260248 51.095875,13.8260248 C52.9192695,18.4177704 51.7721563,21.8088384 51.424332,22.648271 C53.5722578,24.9829509 54.8719531,27.9570374 54.8719531,31.5968357 C54.8719531,44.4013729 47.0350469,47.2207516 39.5752773,48.0461199 C40.7768281,49.08063 41.8475195,51.1095409 41.8475195,54.219843 C41.8475195,58.6803215 41.8087852,62.2703738 41.8087852,63.3684339 C41.8087852,64.2557894 42.4117852,65.2952481 44.1098164,64.9676011 C57.4132422,60.5547851 67,48.0627887 67,33.338209 C67,14.9256476 52.0011602,0 33.5002617,0 Z M12.5470586,47.4905786 C12.4732539,47.6562252 12.2112734,47.7059713 11.9728477,47.5921543 C11.7297109,47.4835464 11.5933555,47.2577356 11.6718711,47.0915681 C11.7441055,46.9209729 12.0066094,46.8733104 12.2489609,46.9876483 C12.4923594,47.0965167 12.6310703,47.324411 12.5470586,47.4905786 Z M14.1948398,48.9537905 C14.0351914,49.1012056 13.7226992,49.0327071 13.510707,48.7998642 C13.2916484,48.5675421 13.2505586,48.256564 13.4125625,48.1070653 C13.5774453,47.9596502 13.8802539,48.0286697 14.0998359,48.2609917 C14.3191563,48.4961787 14.3615547,48.8048127 14.1948398,48.9537905 Z M15.3254648,50.8259101 C15.1200156,50.9678557 14.7844922,50.8347654 14.5769492,50.5383725 C14.3717617,50.2419796 14.3717617,49.8864644 14.5813984,49.7439979 C14.7894648,49.6015314 15.1200156,49.7296731 15.3301758,50.0239824 C15.5348398,50.3253238 15.5348398,50.680839 15.3252031,50.8261705 L15.3254648,50.8259101 Z M17.2370586,52.9941621 C17.0535938,53.1957509 16.6623242,53.1415771 16.3760039,52.8665412 C16.0831406,52.5977561 16.0017461,52.2164563 16.1859961,52.0148675 C16.3718164,51.8127577 16.7651797,51.869536 17.0535938,52.1424883 C17.3441016,52.4107525 17.4330859,52.7949173 17.2370586,52.9941621 Z M19.708207,53.7260285 C19.6270742,53.9872605 19.2501992,54.106026 18.8709688,53.995074 C18.492,53.8807362 18.2441523,53.5749671 18.3205742,53.3111305 C18.3993516,53.0480753 18.7777969,52.9246217 19.1599063,53.0433872 C19.5383516,53.1569437 19.7869844,53.4606292 19.708207,53.7262889 L19.708207,53.7260285 Z M22.5201133,54.0367462 C22.5295352,54.3115216 22.2078828,54.539416 21.8095469,54.544625 C21.4091172,54.5534803 21.0848477,54.3310554 21.0803984,54.0601867 C21.0803984,53.7828067 21.3949844,53.556996 21.7956758,53.5502243 C22.1940117,53.5424108 22.5201133,53.7632729 22.5201133,54.0367462 L22.5201133,54.0367462 Z M25.2825547,53.9312636 C25.3301875,54.1995278 25.0535508,54.4750847 24.657832,54.5485318 C24.2691797,54.6191139 23.9090547,54.4534673 23.8595898,54.1875471 C23.8114336,53.9125112 24.0933047,53.6369544 24.4814336,53.5658513 C24.8776758,53.4973528 25.232043,53.6585718 25.2825547,53.9312636 Z" id="Shape" fill="#FFFFFF" fill-rule="nonzero"></path>
    </g>
</svg>