<?xml version="1.0" encoding="UTF-8"?>
<svg id="Capa_1" data-name="Capa 1" xmlns="http://www.w3.org/2000/svg" xmlns:xlink="http://www.w3.org/1999/xlink" version="1.1" viewBox="0 0 35 34">
  <defs>
    <style>
      .cls-1 {
        clip-path: url(#clippath);
      }

      .cls-2 {
        fill: none;
      }

      .cls-2, .cls-3, .cls-4 {
        stroke-width: 0px;
      }

      .cls-3 {
        fill: #300;
      }

      .cls-4 {
        fill: #ff9a00;
      }
    </style>
    <clipPath id="clippath">
      <rect class="cls-2" x=".2" y=".1" width="34.6" height="33.8"/>
    </clipPath>
  </defs>
  <g class="cls-1">
    <g>
      <path class="cls-3" d="M28.7.1H6.3C2.9.1.2,2.9.2,6.3v21.5c0,3.4,2.7,6.1,6.1,6.1h22.4c3.4,0,6.1-2.7,6.1-6.1V6.3c0-3.4-2.7-6.1-6.1-6.1Z"/>
      <path class="cls-4" d="M17,20.4h-5.4l-1.1,3.4c0,0,0,.1-.1.2,0,0-.1,0-.2,0h-2.7c-.2,0-.2,0-.2-.3l4.6-13.4c0-.1,0-.3.1-.5,0-.3,0-.6,0-.9,0,0,0,0,0,0,0,0,0,0,0,0s0,0,0,0c0,0,0,0,0,0h3.7c.1,0,.2,0,.2.1l5.3,14.9c0,.2,0,.2-.1.2h-3c0,0-.1,0-.1,0,0,0,0,0,0-.1l-1.2-3.4ZM12.5,17.5h3.7c0-.3-.2-.7-.3-1-.1-.4-.3-.8-.4-1.2-.1-.4-.3-.9-.4-1.3-.1-.4-.3-.9-.4-1.3-.1-.4-.2-.8-.3-1.1h0c-.1.6-.3,1.2-.5,1.9-.2.7-.4,1.4-.7,2.1-.2.7-.4,1.4-.7,2Z"/>
      <path class="cls-4" d="M24.7,11.2c-.2,0-.5,0-.7-.1-.2,0-.4-.2-.6-.4-.2-.2-.3-.4-.4-.6,0-.2-.1-.5-.1-.7,0-.2,0-.5.1-.7,0-.2.2-.4.4-.6.2-.2.4-.3.6-.4.2,0,.5-.1.7-.1.6,0,1,.2,1.3.5.2.2.3.4.4.6s.1.5.1.7c0,.2,0,.5-.1.7,0,.2-.2.4-.4.6-.2.2-.4.3-.6.4-.2,0-.5.1-.7.1ZM23.1,23.8v-11.1c0-.1,0-.2.2-.2h2.9c.1,0,.2,0,.2.2v11.1c0,.2,0,.2-.2.2h-2.8c-.1,0-.2,0-.2-.2Z"/>
    </g>
  </g>
</svg>