<?xml version="1.0" encoding="UTF-8"?>
<svg id="Capa_1" data-name="Capa 1" xmlns="http://www.w3.org/2000/svg" xmlns:xlink="http://www.w3.org/1999/xlink" version="1.1" viewBox="0 0 35 34">
  <defs>
    <style>
      .cls-1 {
        clip-path: url(#clippath);
      }

      .cls-2 {
        fill: none;
      }

      .cls-2, .cls-3, .cls-4 {
        stroke-width: 0px;
      }

      .cls-3 {
        fill: #49021f;
      }

      .cls-4 {
        fill: #f36;
      }
    </style>
    <clipPath id="clippath">
      <rect class="cls-2" x=".2" y="0" width="34.6" height="33.7"/>
    </clipPath>
  </defs>
  <g class="cls-1">
    <g>
      <path class="cls-3" d="M28.6,0H6.3C2.9,0,.2,2.8.2,6.2v21.5c0,3.4,2.7,6.1,6.1,6.1h22.3c3.4,0,6.1-2.7,6.1-6.1V6.2c0-3.4-2.7-6.1-6.1-6.1Z"/>
      <path class="cls-4" d="M12.7,8.9v14.8c0,.2,0,.2-.2.2h-2.8c-.1,0-.2,0-.2-.2v-14.8c0-.1,0-.2.2-.2h2.8s0,0,0,0c0,0,0,0,0,0,0,0,0,0,0,0,0,0,0,0,0,0Z"/>
      <path class="cls-4" d="M21,24.2c-1.1,0-2.1-.2-3.1-.7-.9-.4-1.7-1.1-2.2-2-.5-.9-.8-2-.8-3.3,0-1.1.3-2.1.8-3,.5-.9,1.3-1.7,2.3-2.2,1-.6,2.2-.8,3.6-.8s.2,0,.3,0c.1,0,.3,0,.4,0v-4.6c0-.1,0-.2.1-.2h2.9s0,0,0,0c0,0,0,0,0,0,0,0,0,0,0,0,0,0,0,0,0,0v13.7c0,.3,0,.5,0,.9,0,.3,0,.6,0,.8,0,0,0,0,0,.1,0,0,0,0-.1,0-.8.3-1.5.5-2.3.7-.7.1-1.5.2-2.2.2ZM22.4,21.3v-6.3c-.1,0-.3,0-.4,0-.2,0-.3,0-.5,0-.6,0-1.1.1-1.6.4-.5.2-.9.6-1.2,1.1-.3.5-.5,1.1-.5,1.8,0,.5,0,1,.2,1.5.1.4.4.7.7,1,.3.3.6.5,1,.6.4.1.8.2,1.2.2.2,0,.4,0,.6,0,.2,0,.3,0,.5,0Z"/>
    </g>
  </g>
</svg>