<?xml version="1.0" encoding="UTF-8"?>
<svg id="Capa_1" data-name="Capa 1" xmlns="http://www.w3.org/2000/svg" version="1.1" viewBox="0 0 67 67">
  <defs>
    <style>
      .cls-1 {
        fill: #323330;
      }

      .cls-1, .cls-2 {
        stroke-width: 0px;
      }

      .cls-2 {
        fill: #f0db4f;
      }
    </style>
  </defs>
  <path class="cls-2" d="M0,0h66.8v66.8H0V0Z"/>
  <path class="cls-1" d="M61.5,50.9c-.5-3.1-2.5-5.6-8.4-8-2-.9-4.3-1.6-5-3.2-.2-.9-.3-1.4-.1-2,.4-1.8,2.6-2.3,4.2-1.8,1.1.4,2.1,1.2,2.7,2.5,2.9-1.9,2.9-1.9,4.9-3.1-.7-1.1-1.1-1.7-1.6-2.2-1.7-1.9-4.1-2.9-7.9-2.9-.7,0-1.3.2-2,.3-1.9.5-3.7,1.5-4.7,2.8-3.2,3.6-2.3,9.9,1.6,12.5,3.8,2.8,9.4,3.5,10.1,6.2.7,3.3-2.4,4.3-5.5,3.9-2.3-.5-3.5-1.6-4.9-3.7q-2.5,1.4-5.1,2.9c.6,1.3,1.3,1.9,2.3,3.1,4.8,4.9,17,4.7,19.1-2.8,0-.3.7-2,.2-4.6ZM36.4,30.7h-6.3c0,5.4,0,10.8,0,16.2s.2,6.6-.4,7.6c-.9,1.9-3.3,1.7-4.4,1.3-1.1-.5-1.7-1.3-2.3-2.4-.2-.3-.3-.6-.4-.6-1.7,1-3.4,2.1-5.1,3.1.8,1.7,2.1,3.2,3.7,4.2,2.4,1.4,5.6,1.9,8.9,1.1,2.2-.6,4.1-2,5-4,1.4-2.6,1.1-5.8,1.1-9.3,0-5.7,0-11.5,0-17.2h0Z"/>
</svg>