<?xml version="1.0" encoding="UTF-8"?>
<svg width="76px" height="52px" viewBox="0 0 76 52" version="1.1" xmlns="http://www.w3.org/2000/svg" xmlns:xlink="http://www.w3.org/1999/xlink">
    <title>moodle_icon</title>
    <g id="Página-1" stroke="none" stroke-width="1" fill="none" fill-rule="evenodd">
        <g id="MacBook-Pro-13&quot;" transform="translate(-368, -1836)" fill-rule="nonzero">
            <g id="Graphic-designer-Skills-Copia" transform="translate(350, 1760)">
                <g id="card" transform="translate(-0, 58)">
                    <g id="moodle_icon" transform="translate(18, 18)">
                        <path d="M63.8640497,52 L63.8640497,27.9462129 C63.8640497,22.9174904 61.8057395,20.4029189 57.6891192,20.4024986 C53.5724935,20.4019632 51.5131393,22.9165346 51.5110566,27.9462129 L51.5110566,52 L39.376356,52 L39.376356,27.9462129 C39.376356,22.9174904 37.3539065,20.4029189 33.3090076,20.4024986 C29.1911339,20.4024986 27.1330308,22.91707 27.1346983,27.9462129 L27.1346983,52 L15,52 L15,26.5267162 C15,21.2783498 16.8058183,17.3064135 20.4174549,14.6109071 C23.5962449,12.2048966 27.8940549,11.0012609 33.3108848,11 C38.8019405,11 42.8468398,12.4215983 45.4455827,15.2647948 C47.6840389,12.4215983 51.7656343,11 57.6903688,11 C63.1076142,11 67.4050067,12.2036357 70.5825463,14.6109071 C74.1937656,17.3038862 76,21.2758226 76,26.5267162 L76,52 L63.8640497,52 Z" id="path6" fill="#F27F22"></path>
                        <path d="M38.8328813,9.28397848 L51,0.534776806 L50.8434333,0 C28.8956456,2.64403692 18.9078999,4.52259802 0,15.3176289 L0.174880088,15.8088793 L1.67872421,15.8225682 C1.53919876,17.3149695 1.29992219,20.9987143 1.60801452,26.5386298 C-0.490548505,32.5194287 1.55435092,36.5824913 3.47424529,41 C3.77728691,36.3984306 3.74572011,31.3671722 2.312586,26.3583 C2.0145951,20.856939 2.26081672,17.2372433 2.39529104,15.8294087 L14.9304793,15.9475568 C14.9304793,15.9475568 14.8477743,19.6785601 15.3017053,23.186327 C26.5035097,27.0628365 37.7678196,23.1726381 43.7440501,13.6163014 C42.088684,11.783758 38.8328813,9.28398639 38.8328813,9.28398639 L38.8328813,9.28397848 Z" id="path18" fill="#333333"></path>
                    </g>
                </g>
            </g>
        </g>
    </g>
</svg>