<?xml version="1.0" encoding="UTF-8"?>
<svg id="Capa_1" data-name="Capa 1" xmlns="http://www.w3.org/2000/svg" xmlns:xlink="http://www.w3.org/1999/xlink" version="1.1" viewBox="0 0 35 34">
  <defs>
    <style>
      .cls-1 {
        clip-path: url(#clippath);
      }

      .cls-2 {
        fill: none;
      }

      .cls-2, .cls-3, .cls-4 {
        stroke-width: 0px;
      }

      .cls-3 {
        fill: #31a8ff;
      }

      .cls-4 {
        fill: #001e36;
      }
    </style>
    <clipPath id="clippath">
      <rect class="cls-2" x=".3" y=".4" width="34.2" height="33.4"/>
    </clipPath>
  </defs>
  <g class="cls-1">
    <g>
      <path class="cls-4" d="M28.5.4H6.4C3,.4.3,3.1.3,6.4v21.3c0,3.3,2.7,6.1,6.1,6.1h22.1c3.3,0,6.1-2.7,6.1-6.1V6.4c0-3.3-2.7-6.1-6.1-6.1Z"/>
      <path class="cls-3" d="M8,23.8v-14.7c0-.1,0-.2.1-.2.2,0,.5,0,.8,0,.3,0,.7,0,1.1,0,.4,0,.8,0,1.2,0,.4,0,.9,0,1.3,0,1.2,0,2.1.1,2.9.4.7.2,1.4.6,1.9,1.2.5.5.8,1,1,1.6.2.6.3,1.2.3,1.8,0,1.2-.3,2.2-.9,3-.6.8-1.4,1.4-2.3,1.7-1,.4-2,.5-3.2.5s-.6,0-.7,0c-.1,0-.3,0-.6,0v4.6s0,0,0,0c0,0,0,0,0,0,0,0,0,0,0,0,0,0,0,0,0,0h-2.7c-.1,0-.2,0-.2-.2ZM11.1,11.7v4.8c.2,0,.4,0,.6,0h.8c.6,0,1.1,0,1.6-.3.5-.1.9-.4,1.2-.8.3-.4.4-.8.4-1.5,0-.4-.1-.9-.3-1.3-.2-.4-.6-.7-1-.8-.5-.2-1.1-.3-1.7-.3-.4,0-.7,0-1,0-.3,0-.5,0-.6,0Z"/>
      <path class="cls-3" d="M27.7,15.6c-.4-.2-.9-.4-1.4-.5-.5-.1-1.1-.2-1.6-.2-.3,0-.6,0-.9.1-.2,0-.3.1-.4.3,0,.1-.1.3-.1.4,0,.1,0,.3.1.4.1.2.3.3.5.4.3.2.7.3,1,.5.8.3,1.5.6,2.2,1,.5.3.9.7,1.1,1.2.2.5.3,1,.3,1.5,0,.7-.2,1.3-.6,1.9-.4.6-1,1-1.6,1.3-.7.3-1.6.5-2.6.5-.7,0-1.3,0-1.9-.2-.5,0-1-.2-1.5-.5,0,0,0,0-.1-.1,0,0,0-.1,0-.2v-2.5s0,0,0,0c0,0,0,0,0,0,0,0,0,0,0,0,0,0,0,0,0,0,.5.3,1.1.6,1.8.7.5.1,1.1.2,1.7.2.5,0,.9,0,1.2-.2.1,0,.2-.1.3-.2,0-.1.1-.2.1-.4,0-.2-.1-.4-.3-.6-.2-.2-.7-.4-1.4-.7-.7-.3-1.4-.6-2-1-.4-.3-.8-.7-1.1-1.2-.2-.5-.3-1-.3-1.5,0-.6.2-1.2.5-1.7.4-.6.9-1,1.5-1.3.7-.3,1.5-.5,2.5-.5.6,0,1.2,0,1.8.1.4,0,.8.2,1.2.3,0,0,0,0,0,0,0,0,0,0,0,0,0,0,0,.1,0,.2v2.3s0,0,0,0c0,0,0,0,0,0,0,0,0,0,0,0s0,0,0,0Z"/>
    </g>
  </g>
</svg>