<?xml version="1.0" encoding="UTF-8"?>
<svg width="52px" height="52px" viewBox="0 0 52 52" version="1.1" xmlns="http://www.w3.org/2000/svg" xmlns:xlink="http://www.w3.org/1999/xlink">
    <title>prezi_icon</title>
    <g id="Página-1" stroke="none" stroke-width="1" fill="none" fill-rule="evenodd">
        <g id="MacBook-Pro-13&quot;" transform="translate(-539, -1836)" fill="#1981FF" fill-rule="nonzero">
            <g id="Graphic-designer-Skills-Copia" transform="translate(350, 1760)">
                <g id="card-copia" transform="translate(155, 58)">
                    <g id="prezi_icon" transform="translate(34, 18)">
                        <path d="M25.9891558,2.13905459e-07 C25.5337004,2.13905459e-07 25.0782449,0.0108337627 24.6227895,0.0325004292 L24.9134134,5.55100038 C25.6356356,5.50766705 26.3448448,5.52283372 27.0540541,5.55100038 L27.3425092,0.0325004292 C26.8917192,0.0107809723 26.4404698,-5.55224408e-05 25.9891558,2.13905459e-07 L25.9891558,2.13905459e-07 Z M21.8900567,0.320667093 C20.9943277,0.465833759 20.0985986,0.654333757 19.2440774,0.884000422 L20.6906907,6.22916704 C21.3847181,6.04283371 22.0787454,5.89766705 22.8009676,5.78283372 L21.8900567,0.320667093 Z M30.047047,0.320667093 L29.2077077,5.78066705 C29.9320988,5.89766705 30.6391391,6.04066705 31.3201535,6.22916704 L32.7212212,0.884000422 C31.8397495,0.651965645 30.9472514,0.463954741 30.047047,0.320667093 L30.047047,0.320667093 Z M16.6696697,1.72250042 C15.8173173,2.05616708 14.9931598,2.41583374 14.1841842,2.83616707 L16.7130464,7.76100037 C17.350684,7.44250037 18.0013347,7.1543337 18.6519853,6.89433371 L16.6696697,1.72250042 Z M35.3390057,1.73766708 L33.343677,6.89433371 C34.0246914,7.1543337 34.688355,7.44466703 35.3259927,7.77616703 L37.8114781,2.83616707 C37.0176844,2.43100041 36.1935269,2.05616708 35.3390057,1.73766708 Z M11.813647,4.19250039 C11.048048,4.68433372 10.310644,5.21950039 9.60143477,5.79583371 L13.0867534,10.0858337 C13.6506507,9.65250035 14.2297297,9.21916702 14.8370037,8.82916702 L11.813647,4.19250039 Z M40.1429763,4.19250039 L37.1499833,8.84433369 C37.7572573,9.23433369 38.3363363,9.65466702 38.8850517,10.1010003 L42.3985652,5.82616705 C41.676343,5.24766705 40.9237571,4.69950039 40.1429763,4.19250039 L40.1429763,4.19250039 Z M25.9848182,7.57250037 C23.4537871,7.57250037 21.0984318,8.04916703 18.7842843,9.03283369 C16.5867745,9.94885955 14.591691,11.2888747 12.9132466,12.976167 C11.2322915,14.6595604 9.9004764,16.6578623 8.99416083,18.8565003 C7.98131465,21.1098336 7.5323657,23.4931669 7.5323657,26.0216669 C7.5323657,28.5220002 7.98131465,30.9053335 8.99416083,33.1868335 C9.91358434,35.3694998 11.2440401,37.3554645 12.9132466,39.0368334 C14.5888056,40.7205607 16.5781891,42.0602115 18.7691024,42.9801667 C21.0467758,43.9450188 23.4956519,44.4416729 25.9696363,44.4405643 C28.4355306,44.4470635 30.8768322,43.9508866 33.1441441,42.9823334 C35.3367288,42.0488986 37.3336342,40.7111191 39.0303637,39.0390001 C40.7019169,37.3599959 42.0320589,35.3734002 42.9472806,33.1890002 C43.9449449,30.9053335 44.4372706,28.5068335 44.4372706,26.0216669 C44.4639716,23.5554239 43.9610669,21.1121262 42.9624625,18.8565003 C42.0667334,16.603167 40.7068735,14.666167 39.0433767,12.976167 C37.351128,11.2995853 35.3540258,9.96118088 33.159326,9.03283369 C30.8919959,8.06433879 28.4507064,7.56816441 25.9848182,7.57466703 L25.9848182,7.57250037 Z M44.4090757,7.63100037 L40.4748081,11.5180003 C40.9823156,12.0380003 41.4724725,12.573167 41.9366033,13.1495003 L46.2308976,9.63950035 C45.6670003,8.93100036 45.0445445,8.26800036 44.4090757,7.63100037 Z M7.56056056,7.64616703 C6.92726059,8.28100036 6.33299967,8.94616702 5.76910244,9.63950035 L10.0937604,13.106167 C10.5275275,12.5580003 11.0046713,12.0380003 11.51001,11.5310003 L7.56056056,7.64616703 Z M25.9718051,9.09133369 C28.2837838,9.09133369 30.4678011,9.50950035 32.5498832,10.4043337 C34.6037704,11.2710003 36.3670337,12.4843337 37.9155822,14.0443336 C39.4771438,15.6043336 40.6916917,17.3983336 41.5592259,19.4046669 C42.4594262,21.4946241 42.9221973,23.7464412 42.9191096,26.0216669 C42.9229141,28.2814317 42.4653641,30.5182357 41.5744077,32.5953335 C40.7068735,34.6038335 39.4923257,36.4086668 37.9307641,37.9686668 C36.3957819,39.5185809 34.5732745,40.7549393 32.5650651,41.6086668 C30.482983,42.4753334 28.2989656,42.9238394 25.9848182,42.9238394 C23.7265032,42.9257323 21.4903866,42.4786616 19.4067401,41.6086668 C17.3528529,40.7420001 15.5895896,39.5286668 13.9976643,37.9686668 C12.4607084,36.4272671 11.2379896,34.6023814 10.3973974,32.5953335 C9.51535475,30.5164398 9.06738242,28.2795553 9.08061658,26.0216669 C9.08061658,23.6968336 9.4994995,21.5150003 10.3973974,19.4046669 C11.2345679,17.3983336 12.4794795,15.5913336 13.9976643,14.0465003 C15.5455277,12.4990758 17.3767166,11.2633215 19.3915582,10.4065003 C21.4716786,9.52257601 23.7113807,9.07493605 25.9718051,9.09133369 L25.9718051,9.09133369 Z M25.9718051,10.577667 C21.7057057,10.577667 18.0772439,12.0943337 15.0820821,15.114667 C12.0305305,18.1198336 10.5405405,21.7598336 10.5405405,26.0216669 C10.5405405,30.2401668 12.0305305,33.8801668 15.0820821,36.8550001 C18.0620621,39.8623334 21.7057057,41.3920001 25.9696363,41.3920001 C30.1945279,41.3920001 33.8381715,39.8623334 36.8593594,36.8571668 C39.882716,33.8801668 41.3575242,30.2401668 41.3575242,26.0216669 C41.3575242,21.7598336 39.8675342,18.1198336 36.8593594,15.114667 C33.8381715,12.1095003 30.2075409,10.577667 25.9718051,10.577667 L25.9718051,10.577667 Z M47.820654,11.8495003 L43.179346,14.8698336 C43.5849183,15.4613336 43.9319319,16.083167 44.2507508,16.7180003 L49.1805138,14.1895003 C48.7749416,13.3813337 48.3129796,12.6013337 47.820654,11.8495003 Z M4.14898232,11.864667 C3.65882549,12.6295003 3.19469469,13.4095003 2.77610944,14.2328336 L7.70804137,16.746167 C8.05505506,16.083167 8.41508175,15.4613336 8.80547214,14.854667 L4.14898232,11.864667 Z M25.9718051,12.0943337 C29.7889556,12.0943337 33.0704037,13.437667 35.8183183,16.1828336 C38.5228562,18.8846669 39.8393393,22.1346669 39.8393393,26.0216669 C39.8393393,29.8350002 38.5228562,33.1153335 35.8183183,35.8150001 C33.0855856,38.5190001 29.7889556,39.8623334 25.9718051,39.8623334 C22.124291,39.8623334 18.827661,38.5190001 16.1686687,35.8171668 C13.4337671,33.1153335 12.0739072,29.8220002 12.0739072,26.0216669 C12.0739072,22.1498336 13.4337671,18.8846669 16.1664998,16.1850003 C18.8428428,13.4550003 22.124291,12.0943337 25.9696363,12.0943337 L25.9718051,12.0943337 Z M25.9718051,13.6543337 C22.5732399,13.6543337 19.6236236,14.8395003 17.2097097,17.2510003 C14.7784451,19.6798336 13.6072739,22.5831669 13.6072739,26.0065002 C13.6072739,29.4016669 14.7784451,32.3050002 17.2075409,34.7338335 C19.6366366,37.1605001 22.5732399,38.3738334 25.9696363,38.3738334 C29.3963964,38.3738334 32.2766099,37.1605001 34.7057057,34.7468335 C37.1348015,32.3201668 38.3493493,29.4168335 38.3493493,26.0216669 C38.3493493,22.5983336 37.1348015,19.6798336 34.7057057,17.2683336 C32.2766099,14.841667 29.4137471,13.6565003 25.9718051,13.6565003 L25.9718051,13.6543337 Z M25.9978312,15.1883336 C26.184351,15.1883336 26.3708709,15.192667 26.5595596,15.2013336 C29.5091758,15.3465003 31.9968302,16.5598336 34.0073407,18.7698336 C36.0178512,20.9646669 36.956957,23.5646669 36.7834501,26.5416669 C36.6815148,29.5468335 35.466967,32.0450002 33.2547548,34.0535001 C30.9991658,36.0620001 28.3965632,37.0001668 25.4165832,36.8268335 C22.4105772,36.6535001 19.9077411,35.4835001 17.8972306,33.3038335 C15.9170838,31.0505002 14.990991,28.4635002 15.1211211,25.4431669 C15.294628,22.4683336 16.4657991,19.9680003 18.7213881,17.9746669 C20.7687688,16.0918336 23.2108775,15.1883336 25.9978312,15.1883336 L25.9978312,15.1883336 Z M50.2887888,16.661667 L45.1139473,18.6680003 C45.3742075,19.3180003 45.5910911,19.9983336 45.7776109,20.6916669 L51.1281281,19.2746669 C50.8982316,18.3798336 50.6076076,17.513167 50.2909576,16.6595003 L50.2887888,16.661667 Z M1.67650984,16.7050003 C1.35769102,17.5413336 1.0692359,18.3950003 0.837170504,19.2746669 L6.18768769,20.7046669 C6.37637638,20.0113336 6.60844178,19.3331669 6.85352019,18.6680003 L1.67650984,16.7050003 Z M26.0151818,16.993167 C25.6681682,16.993167 25.3341675,17.0213336 25.0023357,17.0495003 L25.0023357,34.9505001 L25.0175175,34.9505001 C25.3211545,35.0220001 25.6681682,35.0220001 26.0151818,35.0220001 C26.3621955,35.0220001 26.7092092,35.0220001 27.0128462,34.9505001 L27.0258592,34.9505001 L27.0258592,17.0495003 C26.6940274,17.0213336 26.3621955,16.993167 26.0151818,16.993167 L26.0151818,16.993167 Z M22.9636303,17.4980003 C22.2526013,17.7472875 21.5768272,18.0873856 20.9531198,18.5098336 L20.9531198,33.4750002 C20.9683016,33.4901668 20.9813146,33.4901668 20.9964965,33.5053335 C21.6037704,33.9105001 22.2826159,34.2571668 22.9636303,34.4868335 L22.9636303,17.4980003 Z M29.0667334,17.513167 L29.0667334,34.5020001 C29.7775104,34.2537186 30.4526941,33.9135507 31.0750751,33.4901668 L31.0750751,18.5401669 C30.4396063,18.1068336 29.7737738,17.7601669 29.0667334,17.513167 L29.0667334,17.513167 Z M18.9426093,20.3731669 C17.6481895,21.9586112 16.9519988,23.9477102 16.9754755,25.9935002 C16.9754755,27.5665002 17.3224892,29.0116669 18.0468802,30.2553335 C18.3071405,30.7450002 18.5955956,31.1935002 18.9426093,31.6268335 L18.9426093,20.3731669 Z M33.0855856,20.4013336 L33.0855856,31.6116668 C33.4325993,31.1935002 33.7232232,30.7320002 33.9834835,30.2835002 C34.6775108,29.0116669 35.0093427,27.5665002 35.0093427,26.0216669 C35.0093427,23.8831669 34.3868869,22.0046669 33.0855856,20.4013336 Z M0.273273273,21.9331669 C0.143143143,22.8301669 0.04337671,23.7250002 0,24.6350002 L5.52402402,24.9231669 C5.56740073,24.2016669 5.63897231,23.4931669 5.75392059,22.7846669 L0.273273273,21.9331669 Z M51.696363,21.9331669 L46.2308976,22.7998336 C46.3328328,23.5083336 46.4195863,24.2168336 46.462963,24.9383336 L46.462963,24.9535002 L51.986987,24.6631669 L51.986987,24.6501669 C51.9436103,23.7250002 51.841675,22.8301669 51.696363,21.9331669 Z M46.475976,27.0616669 C46.4195863,27.7983335 46.3458458,28.5220002 46.2308976,29.2283335 L51.7115449,30.0820002 C51.8568569,29.1850002 51.9436103,28.2750002 52,27.3520002 L46.475976,27.0616669 Z M5.53703704,27.0898335 L0.013013013,27.3801669 C0.0563897231,28.2901669 0.158324992,29.1720002 0.288455122,30.0386668 L5.75392059,29.1720002 C5.63581107,28.4842007 5.56335849,27.7893514 5.53703704,27.0920002 L5.53703704,27.0898335 Z M45.7971305,31.3083335 C45.6084418,32.0016668 45.3785452,32.6820002 45.131298,33.3450002 L50.3083083,35.3253335 C50.6271271,34.4738335 50.9155822,33.6071668 51.1628295,32.7101668 L45.7971305,31.3083335 Z M6.20286954,31.3386668 L0.852352352,32.7535002 C1.08441775,33.6353335 1.35769102,34.4868335 1.67650984,35.3253335 L6.85352019,33.3753335 C6.61047383,32.705065 6.39342856,32.0256699 6.20286954,31.3386668 L6.20286954,31.3386668 Z M7.72105439,35.2971668 L2.79129129,37.8256668 C3.19469469,38.6186668 3.64364364,39.3986668 4.1359693,40.1505001 L8.79245913,37.1605001 C8.41508175,36.5668335 8.05505506,35.9471668 7.72105439,35.2971668 L7.72105439,35.2971668 Z M44.2507508,35.3101668 C43.9304783,35.9475253 43.5727176,36.5653839 43.179346,37.1605001 L47.820654,40.1786668 C48.3129796,39.4138334 48.7749416,38.6186668 49.1956957,37.8105001 L44.2507508,35.3101668 Z M10.0482149,38.8635001 L5.75392059,42.3605001 C6.33299967,43.0690001 6.94027361,43.7471667 7.57574241,44.3841667 L11.51001,40.4841668 C10.9938861,39.9720433 10.5065955,39.4317133 10.0503837,38.8656668 L10.0482149,38.8635001 Z M41.8932266,38.8938334 C41.4594595,39.4571668 40.9823156,39.9923334 40.4748081,40.4820001 L44.378712,44.3971667 C45.0293627,43.7471667 45.6366366,43.0690001 46.2157157,42.3605001 L41.8932266,38.8938334 Z M13.0997664,41.9271667 L9.60143477,46.2171667 C10.310644,46.7956667 11.048048,47.3308334 11.813647,47.8205 L14.8500167,43.1990001 C14.2427427,42.7938334 13.6658325,42.3756667 13.0997664,41.9271667 Z M38.8698699,41.9271667 C38.3304126,42.3739158 37.7655746,42.7891629 37.1781782,43.1708334 L40.1711712,47.8205 C40.9389389,47.3156667 41.676343,46.7805 42.3833834,46.2171667 L38.8698699,41.9271667 Z M16.6848515,44.2541667 L14.1690023,49.179 C14.977978,49.5841667 15.8173173,49.959 16.6696697,50.2926667 L18.6216216,45.1208334 C17.9620303,44.8642429 17.3156397,44.5749958 16.6848515,44.2541667 L16.6848515,44.2541667 Z M35.3108108,44.2541667 C34.675342,44.5705001 34.0225225,44.8608334 33.3588589,45.1056667 L35.3108108,50.2926667 C36.178345,49.959 37.0025025,49.5841667 37.82666,49.179 L35.3108108,44.2541667 Z M20.7058725,45.7838334 L19.2592593,51.129 C20.1267935,51.3608333 21.0095095,51.5493333 21.9052386,51.6923333 L22.7879546,46.2323334 C22.0863445,46.1204231 21.391303,45.9707046 20.7058725,45.7838334 L20.7058725,45.7838334 Z M31.3049716,45.7838334 C30.6109443,45.9723334 29.9017351,46.1175 29.1946947,46.2323334 L30.0622289,51.6923333 C30.9574176,51.5490181 31.8448599,51.3610048 32.7212212,51.129 L31.3049716,45.7838334 Z M24.9285953,46.449 L24.6097764,51.9675 C25.5206874,52.0108333 26.4315983,52.0108333 27.357691,51.9675 L27.0670671,46.449 C26.3448448,46.4923334 25.6356356,46.4923334 24.9285953,46.449 L24.9285953,46.449 Z" id="Forma"></path>
                    </g>
                </g>
            </g>
        </g>
    </g>
</svg>