<?xml version="1.0" encoding="UTF-8"?>
<svg width="53px" height="52px" viewBox="0 0 53 52" version="1.1" xmlns="http://www.w3.org/2000/svg" xmlns:xlink="http://www.w3.org/1999/xlink">
    <title>quizizz_icon</title>
    <defs>
        <path d="M46.965151,52 L6.03484905,52 C2.70136042,52 0,49.2900152 0,45.9458841 L0,6.05411585 C0,2.70998476 2.70136042,0 6.03484905,0 L46.965151,0 C50.2986396,0 53,2.70998476 53,6.05411585 L53,45.9409299 C53,49.285061 50.2986396,51.9950457 46.965151,51.9950457 L46.965151,51.9950457 L46.965151,52 Z" id="path-1"></path>
        <path d="M46.965151,52 L6.03484905,52 C2.70136042,52 0,49.2900152 0,45.9458841 L0,6.05411585 C0,2.70998476 2.70136042,0 6.03484905,0 L46.965151,0 C50.2986396,0 53,2.70998476 53,6.05411585 L53,45.9409299 C53,49.285061 50.2986396,51.9950457 46.965151,51.9950457 L46.965151,51.9950457 L46.965151,52 Z" id="path-3"></path>
        <path d="M46.965151,52 L6.03484905,52 C2.70136042,52 0,49.2900152 0,45.9458841 L0,6.05411585 C0,2.70998476 2.70136042,0 6.03484905,0 L46.965151,0 C50.2986396,0 53,2.70998476 53,6.05411585 L53,45.9409299 C53,49.285061 50.2986396,51.9950457 46.965151,51.9950457 L46.965151,51.9950457 L46.965151,52 Z" id="path-5"></path>
        <path d="M46.965151,52 L6.03484905,52 C2.70136042,52 0,49.2900152 0,45.9458841 L0,6.05411585 C0,2.70998476 2.70136042,0 6.03484905,0 L46.965151,0 C50.2986396,0 53,2.70998476 53,6.05411585 L53,45.9409299 C53,49.285061 50.2986396,51.9950457 46.965151,51.9950457 L46.965151,51.9950457 L46.965151,52 Z" id="path-7"></path>
        <path d="M46.965151,52 L6.03484905,52 C2.70136042,52 0,49.2900152 0,45.9458841 L0,6.05411585 C0,2.70998476 2.70136042,0 6.03484905,0 L46.965151,0 C50.2986396,0 53,2.70998476 53,6.05411585 L53,45.9409299 C53,49.285061 50.2986396,51.9950457 46.965151,51.9950457 L46.965151,51.9950457 L46.965151,52 Z" id="path-9"></path>
        <path d="M46.965151,52 L6.03484905,52 C2.70136042,52 0,49.2900152 0,45.9458841 L0,6.05411585 C0,2.70998476 2.70136042,0 6.03484905,0 L46.965151,0 C50.2986396,0 53,2.70998476 53,6.05411585 L53,45.9409299 C53,49.285061 50.2986396,51.9950457 46.965151,51.9950457 L46.965151,51.9950457 L46.965151,52 Z" id="path-11"></path>
        <path d="M46.965151,52 L6.03484905,52 C2.70136042,52 0,49.2900152 0,45.9458841 L0,6.05411585 C0,2.70998476 2.70136042,0 6.03484905,0 L46.965151,0 C50.2986396,0 53,2.70998476 53,6.05411585 L53,45.9409299 C53,49.285061 50.2986396,51.9950457 46.965151,51.9950457 L46.965151,51.9950457 L46.965151,52 Z" id="path-13"></path>
    </defs>
    <g id="Página-1" stroke="none" stroke-width="1" fill="none" fill-rule="evenodd">
        <g id="MacBook-Pro-13&quot;" transform="translate(-694, -1836)">
            <g id="Graphic-designer-Skills-Copia" transform="translate(350, 1760)">
                <g id="card-copia-2" transform="translate(310, 58)">
                    <g id="quizizz_icon" transform="translate(34, 18)">
                        <g id="Clipped">
                            <mask id="mask-2" fill="white">
                                <use xlink:href="#path-1"></use>
                            </mask>
                            <g id="Trazado"></g>
                            <polygon id="Trazado" fill="#2D70AE" fill-rule="nonzero" mask="url(#mask-2)" points="-0.0691390235 33.0053354 13.1956765 33.0053354 13.1956765 52 -0.0691390235 52"></polygon>
                        </g>
                        <g id="Clipped">
                            <mask id="mask-4" fill="white">
                                <use xlink:href="#path-3"></use>
                            </mask>
                            <g id="Trazado"></g>
                            <polygon id="Trazado" fill="#2D9DA6" fill-rule="nonzero" mask="url(#mask-4)" points="13.200615 33.0053354 26.4654305 33.0053354 26.4654305 52 13.200615 52"></polygon>
                        </g>
                        <g id="Clipped">
                            <mask id="mask-6" fill="white">
                                <use xlink:href="#path-5"></use>
                            </mask>
                            <g id="Trazado"></g>
                            <polygon id="Trazado" fill="#EFA929" fill-rule="nonzero" mask="url(#mask-6)" points="26.4654305 33.0053354 39.730246 33.0053354 39.730246 52 26.4654305 52"></polygon>
                        </g>
                        <g id="Clipped">
                            <mask id="mask-8" fill="white">
                                <use xlink:href="#path-7"></use>
                            </mask>
                            <g id="Trazado"></g>
                            <polygon id="Trazado" fill="#D5546D" fill-rule="nonzero" mask="url(#mask-8)" points="39.7351845 33.0053354 53 33.0053354 53 52 39.7351845 52"></polygon>
                        </g>
                        <g id="Clipped">
                            <mask id="mask-10" fill="white">
                                <use xlink:href="#path-9"></use>
                            </mask>
                            <g id="Trazado"></g>
                            <path d="M45.4490309,47.1695884 L7.53121506,47.1695884 C3.37299665,47.1695884 0,43.7858232 0,39.6143293 L0,0 L53.019754,0 L53.019754,39.5746951 C53.019754,43.7709604 49.6319419,47.1695884 45.4490309,47.1695884 Z" id="Trazado" fill="#5D2057" fill-rule="nonzero" mask="url(#mask-10)"></path>
                        </g>
                        <g id="Clipped">
                            <mask id="mask-12" fill="white">
                                <use xlink:href="#path-11"></use>
                            </mask>
                            <g id="Trazado"></g>
                            <path d="M15.0525531,12.0636433 L15.0525531,12.0636433 C15.0426761,12.0735518 15.0327991,12.0834604 15.0229221,12.0933689 C15.0130451,12.1032774 15.0031681,12.113186 14.9932911,12.1230945 L14.9932911,12.1230945 C9.1411666,18.0632622 9.16092061,27.6349085 15.0525531,33.5503049 C19.5614051,38.0735518 26.2036899,39.148628 31.7298733,36.7755335 C32.0607529,36.636814 32.357063,36.433689 32.6138651,36.1760671 C33.6657659,35.1208079 33.7497205,33.3224085 32.6089266,32.1779726 C31.7891353,31.355564 30.5495714,31.0880335 29.4877935,31.5438262 C26.0357808,33.0201982 21.8874394,32.3464177 19.0724935,29.5224848 C15.3883712,25.8266006 15.3784942,19.8368902 19.0428625,16.1261433 C22.7418002,12.4500762 28.7124488,12.4599848 32.396571,16.1558689 C35.211517,18.9798018 35.8831532,23.1413872 34.4114797,26.6044207 C33.9571375,27.6745427 34.2287551,28.918064 35.0436079,29.7355183 C36.1844018,30.8799543 37.9770779,30.800686 39.0289788,29.7404726 C40.0808796,28.6802591 39.4783824,29.2004573 39.6265375,28.8536585 C41.9920798,23.3147866 40.9204249,16.6463415 36.4115729,12.1230945 C30.5199404,6.21265244 20.9738166,6.19283537 15.0574916,12.0636433 L15.0574916,12.0636433 L15.0525531,12.0636433 Z" id="Trazado" fill="#FFFFFF" fill-rule="nonzero" mask="url(#mask-12)"></path>
                        </g>
                        <g id="Clipped">
                            <mask id="mask-14" fill="white">
                                <use xlink:href="#path-13"></use>
                            </mask>
                            <g id="Trazado"></g>
                            <ellipse id="Óvalo" fill="#FFFFFF" fill-rule="nonzero" mask="url(#mask-14)" cx="38.8561312" cy="36.007622" rx="3.44707417" ry="3.45807927"></ellipse>
                        </g>
                    </g>
                </g>
            </g>
        </g>
    </g>
</svg>