<?xml version="1.0" encoding="utf-8" ?>
<svg xmlns="http://www.w3.org/2000/svg" xmlns:xlink="http://www.w3.org/1999/xlink" width="67" height="52">
	<path fill="#CF649A" transform="translate(0.21106 1.65356)" d="M55.989208 28.210474C53.705677 28.210474 51.675873 28.72097 50.026657 29.486715C49.392342 28.338099 48.884892 27.317104 48.75803 26.423737C48.631165 25.530367 48.504303 25.019871 48.631165 23.871252C48.75803 22.722635 49.392342 21.191145 49.392342 21.06352C49.392342 21.06352 49.26548 20.4254 47.996853 20.4254C46.60136 20.4254 45.459595 20.680649 45.332733 21.06352L44.825279 22.977882C44.571556 24.126501 42.288025 28.465723 40.892532 30.635334C40.385082 29.741964 40.004494 28.976219 40.004494 28.465723C39.877628 27.444729 39.750767 26.934233 39.877628 25.785616C40.004494 24.636997 40.638805 23.233131 40.638805 23.105507C40.638805 22.977882 40.511944 22.339762 39.243317 22.339762C37.847824 22.339762 36.706059 22.595011 36.579197 22.977882L36.071747 24.892246L31.75841 34.591682L30.743507 36.88892C30.48978 37.399414 30.743507 36.88892 30.743507 37.016541L30.362919 37.654663L29.855467 38.292786C29.855467 38.292786 29.728603 37.399414 29.98233 36.250797C30.362919 33.825939 31.504683 29.997213 31.504683 29.741964C31.504683 29.741964 31.75841 29.103844 30.743507 28.72097C29.855467 28.338099 29.601742 28.976219 29.474878 28.976219L29.348015 29.103844C29.348015 29.103844 30.362919 24.764622 27.318211 24.764622C25.542131 24.764622 22.878012 26.934233 21.609383 28.72097L17.296047 31.14583L15.139379 32.294449L15.012516 32.166824C11.333493 28.210474 4.6097636 25.530367 4.9903522 20.297775C4.9903522 18.383413 5.7515292 13.40607 17.803497 7.2801099C27.825661 2.302767 35.691158 3.7066331 37.086647 6.7696133C39.116455 11.108835 32.900173 19.149158 22.497423 20.297775C18.564674 20.680649 16.53487 19.149158 16.027418 18.63866C15.519967 18.00054 15.393105 18.00054 15.139379 18.128164C14.885653 18.255789 15.012516 18.766285 15.139379 19.149158C15.519967 19.914904 16.788595 21.318769 18.945263 22.084515C20.848206 22.722635 25.415268 23.105507 30.997232 20.935896C37.213512 18.511038 42.16116 11.746956 40.765671 6.0038681C39.243317 0.26078033 29.728603 -1.6535823 20.848206 1.5370221C15.393105 3.4513845 9.6842766 6.5143647 5.4978037 10.470715C0.55015314 15.065185 -0.21102387 19.149158 0.042701792 20.808271C1.3113301 26.806608 9.4305515 30.762959 12.728985 33.57069L12.348396 33.825939C10.69918 34.719307 4.3560381 38.037537 2.833684 41.483387C1.0576044 45.439739 3.0874097 48.247471 4.4829006 48.630341C8.6693745 49.906582 13.109573 47.736973 15.393105 44.291119C17.676636 40.717644 17.422909 36.123173 16.408007 34.081184L16.281143 33.953564L17.676636 33.187817L19.960167 31.911575C19.579578 33.060192 19.325851 34.336433 19.19899 36.250797C18.945263 38.420406 19.960167 41.355762 21.101931 42.504383C21.609383 43.014877 22.243696 43.014877 22.624285 43.014877C24.019777 43.014877 24.654091 41.866261 25.415268 40.462395L27.064484 36.88892C27.064484 36.88892 26.049582 42.12151 28.713701 42.12151C29.601742 42.12151 30.616644 40.972893 30.997232 40.33477L31.124094 40.207146L31.250957 39.951897L33.788216 35.229805L36.959785 27.955225L37.594101 30.50771C37.847824 31.528704 38.48214 32.549698 38.862728 33.57069L38.355278 34.464058L37.340374 35.740299C36.071747 37.27179 34.422527 39.058529 34.295666 39.569027C34.041939 40.207146 34.041939 40.590019 34.549393 40.972893C34.929981 41.228142 35.564293 41.228142 36.198608 41.228142L38.48214 40.717644L40.638805 39.569027C41.907436 38.675655 42.668613 37.27179 42.541748 35.485054C42.541748 34.591682 42.16116 33.57069 41.780571 32.677319L42.16116 32.166824C44.190968 29.231468 45.713322 25.913239 45.713322 25.913239L46.347633 28.593348L47.489399 31.14583C45.975266 32.356861 44.795799 33.938919 44.064102 35.740299C43.302925 37.909912 43.810379 38.80328 44.952145 39.058529C45.459595 39.186153 46.220772 38.930904 46.728222 38.675655C47.362537 38.548031 48.123714 38.165161 48.884892 37.654663C50.153519 36.633671 51.422146 35.35743 51.295284 33.57069C51.295284 32.804943 51.041557 31.911575 50.787834 31.14583C52.310188 30.50771 54.466854 30.124836 57.004112 30.50771C62.71294 31.14583 63.854706 34.719307 63.600979 36.123173C63.347252 37.654663 62.205486 38.420406 61.824898 38.675655L61.317448 39.186153C61.444313 39.441402 61.571175 39.441402 61.951763 39.441402C62.332352 39.313778 64.869606 38.165161 64.996468 35.485054C65.123337 31.911575 61.824898 28.08285 55.989208 28.210474ZM12.348396 42.887253C10.572316 44.929241 7.9081974 45.822609 6.7664318 45.056866C5.6246662 44.418743 6.0052547 41.355762 8.4156485 39.186153C9.8111401 37.909912 11.587219 36.633671 12.728985 35.867924L13.87075 35.229805L13.997613 35.10218L14.378201 34.974556C15.139379 38.037537 14.378201 40.717644 12.348396 42.887253ZM26.049582 33.57069C25.415268 35.229805 24.019777 39.313778 23.2586 39.058529C22.497423 38.930904 22.116835 35.740299 23.004873 32.677319C23.512325 31.14583 24.654091 29.359093 25.288404 28.593348C26.303307 27.444729 27.445072 27.061857 27.698799 27.572353C28.079388 28.210474 26.43017 32.549698 26.049582 33.57069ZM37.340374 39.058529L36.706059 39.186153L36.706059 38.930904L38.735867 36.761295L39.877628 35.35743L39.877628 35.485054C39.877628 37.27179 38.101551 38.548031 37.340374 39.058529ZM45.967045 37.016541C45.713322 36.88892 45.840183 36.378422 46.474499 34.974556C46.728222 34.336433 47.362537 33.315441 48.377441 32.422073L48.631165 33.57069C48.631165 35.867924 46.981949 36.633671 45.967045 37.016541Z"/>
</svg>
