<?xml version="1.0" encoding="UTF-8"?>
<svg id="Capa_1" data-name="Capa 1" xmlns="http://www.w3.org/2000/svg" version="1.1" viewBox="0 0 35 42">
  <defs>
    <style>
      .cls-1 {
        fill: #ff3e00;
      }

      .cls-1, .cls-2 {
        stroke-width: 0px;
      }

      .cls-2 {
        fill: #fff;
      }
    </style>
  </defs>
  <path class="cls-1" d="M32,5.7C28.2.3,20.8-1.3,15.5,2.1l-9.4,6c-2.6,1.6-4.3,4.2-4.9,7.2-.4,2.5,0,5.1,1.1,7.3-.8,1.2-1.4,2.6-1.6,4-.5,3,.2,6.2,2,8.7,3.7,5.4,11.2,7,16.5,3.5l9.4-6c2.6-1.6,4.3-4.2,4.9-7.2.4-2.5,0-5.1-1.1-7.3.8-1.2,1.4-2.6,1.6-4,.5-3-.2-6.2-2-8.7"/>
  <path class="cls-2" d="M14.5,35.9c-3,.8-6.2-.4-8-3-1.1-1.5-1.5-3.4-1.2-5.2,0-.3.1-.6.2-.9l.2-.5.5.4c1.1.8,2.4,1.4,3.7,1.8h.3c0,.1,0,.5,0,.5,0,.5,0,1,.4,1.4.5.8,1.5,1.1,2.4.9.2,0,.4-.1.6-.3l9.4-6c.5-.3.8-.8.9-1.3,0-.6,0-1.1-.4-1.6-.5-.8-1.5-1.1-2.4-.9-.2,0-.4.1-.6.3l-3.6,2.3c-.6.4-1.2.7-1.9.8-3,.8-6.2-.4-8-3-1.1-1.5-1.5-3.4-1.2-5.2.3-1.8,1.4-3.4,2.9-4.3l9.4-6c.6-.4,1.2-.7,1.9-.8,3-.8,6.2.4,8,3,1.1,1.5,1.5,3.4,1.2,5.2,0,.3-.1.6-.2.9l-.2.5-.5-.4c-1.1-.8-2.4-1.4-3.7-1.8h-.3c0-.1,0-.5,0-.5,0-.5,0-1-.4-1.4-.5-.8-1.5-1.1-2.4-.9-.2,0-.4.1-.6.3l-9.4,6c-.5.3-.8.8-.9,1.3,0,.6,0,1.1.4,1.6.5.8,1.5,1.1,2.4.9.2,0,.4-.1.6-.3l3.6-2.3c.6-.4,1.2-.7,1.9-.8,3-.8,6.2.4,8,3,1.1,1.5,1.5,3.4,1.2,5.2-.3,1.8-1.4,3.4-2.9,4.3l-9.4,6c-.6.4-1.2.7-1.9.8"/>
</svg>