<?xml version="1.0" encoding="UTF-8"?>
<svg width="50px" height="50px" viewBox="0 0 50 50" version="1.1" xmlns="http://www.w3.org/2000/svg" xmlns:xlink="http://www.w3.org/1999/xlink">
    <title>vite_icon</title>
    <defs>
        <linearGradient x1="-0.828%" y1="6.80963014%" x2="57.636%" y2="78.9761405%" id="linearGradient-1">
            <stop stop-color="#41D1FF" offset="0%"></stop>
            <stop stop-color="#BD34FE" offset="100%"></stop>
        </linearGradient>
        <linearGradient x1="43.3982432%" y1="2.242%" x2="50.3149389%" y2="89.03%" id="linearGradient-2">
            <stop stop-color="#FFEA83" offset="0%"></stop>
            <stop stop-color="#FFDD35" offset="8.333%"></stop>
            <stop stop-color="#FFA800" offset="100%"></stop>
        </linearGradient>
    </defs>
    <g id="Página-1" stroke="none" stroke-width="1" fill="none" fill-rule="evenodd">
        <g id="MacBook-Pro-13&quot;" transform="translate(-695, -1398)" fill-rule="nonzero">
            <g id="Web-Developer-Skills" transform="translate(350, 1169)">
                <g id="card-copia-7" transform="translate(310, 211)">
                    <g id="vite_icon" transform="translate(35, 18)">
                        <path d="M49.8345709,6.92472711 L26.3470409,49.3400537 C25.8620794,50.2158247 24.6161794,50.2209531 24.1239912,49.3495215 L0.170835632,6.92867202 C-0.365493178,5.97913109 0.438609412,4.82879402 1.50423577,5.02130584 L25.0169611,9.26544215 C25.1669685,9.2925131 25.3205632,9.2922459 25.4704773,9.26465316 L48.4914052,5.02722322 C49.5535159,4.8317527 50.3613294,5.97321372 49.8345709,6.92472711 Z" id="Trazado" fill="url(#linearGradient-1)"></path>
                        <path d="M36.0261491,0.012385743 L18.5897462,3.43480336 C18.3031871,3.49103799 18.0909089,3.73434982 18.0736606,4.02633718 L17.0011275,22.1719412 C16.9891687,22.3737227 17.0728719,22.5693442 17.2269984,22.6998211 C17.381125,22.8302979 17.5876381,22.8803608 17.7842687,22.8349144 L22.6388821,21.712688 C23.093053,21.6076878 23.5035311,22.0084549 23.4100714,22.4659418 L21.9678141,29.5405999 C21.8708277,30.0167316 22.3169654,30.4237791 22.7811289,30.2824704 L25.7796761,29.3700482 C26.2444274,29.2287395 26.6911529,29.6369646 26.5927949,30.1134888 L24.3007794,41.2260423 C24.157357,41.9212025 25.0803939,42.3001845 25.4652048,41.7043329 L25.7224638,41.3063135 L39.930687,12.9032697 C40.1687447,12.4277267 39.7582666,11.8854547 39.2370868,11.9863334 L34.2398347,12.9523352 C33.7703811,13.0430083 33.3708752,12.6049514 33.5033254,12.1449131 L36.7648137,0.819611553 C36.8974598,0.358395736 36.4963865,-0.0798574203 36.026345,0.012385743 L36.0261491,0.012385743 Z" id="Trazado" fill="url(#linearGradient-2)"></path>
                    </g>
                </g>
            </g>
        </g>
    </g>
</svg>