<?xml version="1.0" encoding="UTF-8"?>
<svg id="Capa_1" data-name="Capa 1" xmlns="http://www.w3.org/2000/svg" version="1.1" viewBox="0 0 67 67">
  <defs>
    <style>
      .cls-1 {
        fill: #33b2ee;
      }

      .cls-1, .cls-2 {
        stroke-width: 0px;
      }

      .cls-2 {
        fill: #fff;
      }
    </style>
  </defs>
  <ellipse class="cls-2" cx="33.6" cy="33.2" rx="32" ry="32.3"/>
  <path class="cls-1" d="M4.8,33.5c0,11.4,6.6,21.2,16.2,25.9L7.3,21.8c-1.6,3.6-2.5,7.5-2.5,11.7h0Z"/>
  <path class="cls-1" d="M53,32.1c0-3.6-1.3-6-2.4-7.9-1.5-2.4-2.8-4.4-2.8-6.7s2-5.1,4.8-5.1.2,0,.4,0c-5.1-4.7-11.9-7.6-19.4-7.6s-18.9,5.2-24,13h1.9c3,0,7.7-.4,7.7-.4,1.6,0,1.7,2.2.2,2.4,0,0-1.6.2-3.3.3l10.5,31.2,6.3-18.9-4.5-12.3c-1.5,0-3-.3-3-.3-1.5,0-1.4-2.5.2-2.4,0,0,4.7.4,7.6.4s7.7-.4,7.7-.4c1.6,0,1.7,2.2.2,2.4,0,0-1.6.2-3.3.3l10.4,30.9,2.9-9.6c1.2-4,2.2-6.8,2.2-9.3h-.3Z"/>
  <path class="cls-1" d="M34,36l-8.6,25.1c2.6.8,5.3,1.2,8.1,1.2s6.6-.6,9.6-1.6c0,0,0-.3-.2-.4l-8.8-24.2h0Z"/>
  <path class="cls-1" d="M58.8,19.7c0,.9.2,1.9.2,3,0,2.9-.5,6.2-2.2,10.3l-8.8,25.4c8.6-5,14.3-14.3,14.3-24.9s-1.3-9.7-3.5-13.8h0Z"/>
  <path class="cls-1" d="M33.5,0C15,0,0,15,0,33.5s15,33.5,33.5,33.5,33.5-15,33.5-33.5C67.1,15,52,0,33.5,0h0ZM33.5,65.5C15.9,65.5,1.5,51.1,1.5,33.5S15.9,1.5,33.5,1.5s32,14.4,32,32-14.4,32-32,32h0Z"/>
</svg>