<?xml version="1.0" encoding="UTF-8"?>
<svg width="35px" height="34px" viewBox="0 0 35 34" version="1.1" xmlns="http://www.w3.org/2000/svg" xmlns:xlink="http://www.w3.org/1999/xlink">
    <title>after-effects</title>
    <g id="Page-1" stroke="none" stroke-width="1" fill="none" fill-rule="evenodd">
        <g id="onepage_desktop" transform="translate(-993, -1752)" fill-rule="nonzero">
            <g id="HABILIDADES" transform="translate(249, 1248)">
                <g id="card__habilidades-copy-4" transform="translate(721, 480)">
                    <g id="after-effects" transform="translate(23, 24)">
                        <path d="M28.8020909,0 L6.19790911,0 C2.77489936,0 0,2.7610945 0,6.16707509 L0,27.7881488 C0,31.1941124 2.77489936,33.9552239 6.19790911,33.9552239 L28.8020909,33.9552239 C32.2250836,33.9552239 35,31.1941124 35,27.7881488 L35,6.16707509 C35,2.7610945 32.2250836,0 28.8020909,0 Z" id="Path" fill="#FFFFFF"></path>
                        <path d="M14.0831946,20.8172456 L8.56623402,20.8172456 L7.44375056,24.3344642 C7.4284775,24.3985042 7.39150974,24.4551617 7.33918214,24.4946515 C7.28685454,24.5341414 7.22246469,24.5540611 7.15716366,24.5508722 L4.3628871,24.5508722 C4.20356127,24.5508722 4.14780591,24.4627189 4.19570779,24.2864124 L8.9722719,10.4939671 C9.02000023,10.3497242 9.06781534,10.2086703 9.11554366,10.024195 C9.17811116,9.70338355 9.21008914,9.3773301 9.21108709,9.05040298 C9.20783289,9.02755652 9.20995897,9.00427323 9.217205,8.98234412 C9.22445102,8.9604587 9.23668683,8.94053904 9.25291446,8.92420142 C9.26914209,8.9078638 9.28888427,8.89554506 9.31066574,8.88824992 C9.33240382,8.88095478 9.35557375,8.87881429 9.3782664,8.88209055 L13.1756622,8.88209055 C13.2868258,8.88209055 13.3505214,8.9221483 13.3667057,9.00235116 L18.7880795,24.3104383 C18.8358078,24.470844 18.7880361,24.5510032 18.6448077,24.5508722 L15.5400367,24.5508722 C15.4867112,24.5568568 15.4330385,24.5430528 15.389085,24.5120812 C15.3451316,24.4811097 15.3138912,24.4350673 15.3012215,24.3825597 L14.0831946,20.8172456 Z M9.42608151,17.8516183 L13.1995264,17.8516183 C13.1039829,17.5311563 12.9925156,17.1704619 12.8651244,16.7695786 C12.7375162,16.3690885 12.6021847,15.9402915 12.4591299,15.4831877 C12.3158581,15.0263896 12.1725863,14.5695041 12.0292712,14.1126624 C11.8859994,13.6558206 11.7546164,13.2150107 11.6351654,12.7901889 C11.5158012,12.3656729 11.4083257,11.9769773 11.3127822,11.6240585 L11.2888747,11.6240585 C11.1544978,12.2734571 10.9871015,12.9154731 10.7873368,13.5476166 C10.5641851,14.2689618 10.337302,15.0063389 10.1066874,15.7597041 C9.87572573,16.513375 9.64884262,17.2106507 9.42608151,17.8516183 Z" id="Shape" fill="#2D2F33"></path>
                        <path d="M26.9850609,18.5618861 L22.2038537,18.5618861 C22.2624096,19.0363198 22.4195138,19.493154 22.665025,19.9029384 C22.936419,20.3086989 23.3202507,20.6259756 23.7692522,20.8156783 C24.377739,21.0797144 25.0358748,21.2091014 25.6987727,21.1949511 C26.2246729,21.1848248 26.7485888,21.127118 27.2641712,21.0225825 C27.7252984,20.9601442 28.1772101,20.8419891 28.6100735,20.670726 C28.6908082,20.6060767 28.7314622,20.6464051 28.7314622,20.7924187 L28.7314622,23.1047137 C28.7354306,23.1676826 28.722864,23.2306516 28.6949971,23.2872529 C28.6672183,23.3315168 28.6299154,23.3689267 28.5857781,23.396741 C28.1056467,23.610057 27.6003822,23.760979 27.0821543,23.8459694 C26.3781174,23.9785844 25.6626163,24.0397404 24.9463655,24.0285528 C23.7972955,24.0285528 22.8345636,23.8500376 22.0582137,23.4930516 C21.3242375,23.1687881 20.6760227,22.6770645 20.1651584,22.0570152 C19.6879812,21.4727838 19.3330306,20.7981231 19.1215153,20.0733171 C18.9120724,19.35793 18.8058076,18.6161437 18.8059987,17.8705545 C18.8037793,17.0564689 18.9307679,16.247159 19.1822317,15.4730922 C19.4243918,14.71804 19.8073417,14.015963 20.3107983,13.404227 C20.8073324,12.7996103 21.4282535,12.3097881 22.1310558,11.9681463 C22.8428531,11.6194294 23.6843286,11.4942875 24.6551296,11.4942875 C25.4602283,11.4739022 26.2599034,11.6318109 26.9971866,11.9567377 C27.6171817,12.2219235 28.1629679,12.6352897 28.5868804,13.1607972 C28.9845133,13.6753825 29.2884922,14.2562974 29.4848835,14.8767889 C29.6761159,15.4747284 29.7743557,16.0986691 29.7761194,16.7265895 C29.7761194,17.0837082 29.7639938,17.408237 29.7396984,17.7001758 C29.7154912,17.9922472 29.6952524,18.2031754 29.6790261,18.3330046 C29.6727648,18.3866874 29.6470144,18.4361693 29.6067572,18.4720315 C29.566456,18.507938 29.5144701,18.5277484 29.4605881,18.5277484 C29.3634948,18.5277484 29.1976601,18.5399088 28.963084,18.5642739 C28.7283316,18.5885948 28.4370957,18.6048234 28.0893763,18.6129156 C27.741216,18.6212732 27.3733902,18.5618861 26.9850609,18.5618861 Z M22.2038537,16.3446193 L25.3832414,16.3446193 C25.7715707,16.3446193 26.05875,16.3405511 26.2447794,16.3324589 C26.3692987,16.3199447 26.4894969,16.2800143 26.5967758,16.2154534 L26.5967758,16.0693956 C26.5918814,15.8790296 26.5591643,15.6904323 26.4996825,15.5096178 C26.3687255,15.0943501 26.1054888,14.7336938 25.7503177,14.4830562 C25.3951466,14.2324187 24.9677949,14.1056407 24.5338291,14.1222231 C24.1253934,14.09746 23.7185891,14.192444 23.3630211,14.3955896 C23.0074973,14.5987351 22.7185542,14.9011982 22.5315107,15.266188 C22.365235,15.6056631 22.2546051,15.9698127 22.2038537,16.3446193 Z" id="Shape" fill="#2D2F33"></path>
                    </g>
                </g>
            </g>
        </g>
    </g>
</svg>