<?xml version="1.0" encoding="UTF-8"?>
<svg width="67px" height="53px" viewBox="0 0 67 53" version="1.1" xmlns="http://www.w3.org/2000/svg" xmlns:xlink="http://www.w3.org/1999/xlink">
    <title>bootstrap-icon</title>
    <g id="bootstrap-icon" stroke="none" stroke-width="1" fill="none" fill-rule="evenodd">
        <path d="M13.9161094,0 C10.0931836,0 7.26426563,3.3227007 7.3909375,6.9260832 C7.51263672,10.3878254 7.35455859,14.871717 6.21791406,18.5281172 C5.07786719,22.1951729 3.14952344,24.5180747 0,24.816429 L0,28.183571 C3.14952344,28.4819253 5.07786719,30.8048271 6.21791406,34.4721427 C7.35455859,38.1285428 7.51263672,42.6119148 7.3909375,46.0739168 C7.26426563,49.6767795 10.0931836,53 13.9166328,53 L53.0888633,53 C56.9120508,53 59.7401836,49.6772993 59.6135117,46.0739168 C59.4920742,42.6121746 59.6498906,38.1285428 60.7865352,34.4721427 C61.9273672,30.805087 63.8504766,28.4816655 67,28.183571 L67,24.816429 C63.8504766,24.5180747 61.9273672,22.1951729 60.7867969,18.5281172 C59.6498906,14.8722368 59.4920742,10.3880852 59.6135117,6.9260832 C59.7401836,3.32322049 56.9120508,0 53.0888633,0 L13.9155859,0 L13.9161094,0 Z M45.4239063,32.6248406 C45.4239063,37.586671 41.6970313,40.5956839 35.5120937,40.5956839 L24.9831484,40.5956839 C24.3560774,40.5956839 23.8478125,40.0907095 23.8478125,39.4680188 L23.8478125,13.5319812 C23.8478125,13.2328608 23.9673554,12.945968 24.1803288,12.7344336 C24.3933022,12.5228992 24.6821856,12.4040563 24.9834102,12.4040563 L35.4518984,12.4040563 C40.6090664,12.4040563 43.9936133,15.1783879 43.9936133,19.4374743 C43.9936133,22.4269953 41.7166602,25.1033482 38.8160313,25.5719308 L38.8160313,25.7281251 C42.7651055,26.1582439 45.4239063,28.8738403 45.4239063,32.6248406 Z M34.3636719,15.9788508 L28.3606289,15.9788508 L28.3606289,24.3993047 L33.4170352,24.3993047 C37.325543,24.3993047 39.4810586,22.8363229 39.4810586,20.0424995 C39.4810586,17.4246219 37.6275664,15.9788508 34.3639336,15.9788508 L34.3636719,15.9788508 Z M28.3606289,27.7404576 L28.3606289,37.0198498 L34.5848242,37.0198498 C38.6540273,37.0198498 40.8100664,35.3983926 40.8100664,32.350916 C40.8100664,29.3029196 38.5940937,27.7399378 34.3231055,27.7399378 L28.3606289,27.7399378 L28.3606289,27.7404576 Z" id="Shape" fill="#FFFFFF" fill-rule="nonzero"></path>
    </g>
</svg>