<?xml version="1.0" encoding="UTF-8"?>
<svg width="67px" height="76px" viewBox="0 0 67 76" version="1.1" xmlns="http://www.w3.org/2000/svg" xmlns:xlink="http://www.w3.org/1999/xlink">
    <title>html5-icon</title>
    <g id="html5-icon" stroke="none" stroke-width="1" fill="none" fill-rule="evenodd">
        <polyline id="Path" fill="#FFFFFF" fill-rule="nonzero" points="6.09090909 68.28125 0 0 67 0 60.9090909 68.28125 33.4257206 76"></polyline>
        <polyline id="Path" fill="#FFFFFF" fill-rule="nonzero" points="33 69 54.8641304 62.9678161 60 5 33 5"></polyline>
        <path d="M33,30.1 L21.9084507,30.1 L21.1690141,21.4 L33,21.4 L33,13 L12,13 L14.2183099,38.65 L33,38.65 L33,30.1 Z M33,52.15 L23.5352113,49.6 L22.943662,42.85 L14.6619718,42.85 L15.6971831,56.2 L33,61 L33,52.15 Z" id="Shape" fill="#2D2F33" fill-rule="nonzero"></path>
        <path d="M32.5106383,38.65 L43.571707,38.65 L42.4495696,49.6 L32.5106383,52.15 L32.5106383,61 L50.9457528,56.2 L53.5106383,30.1 L32.5106383,30.1 L32.5106383,38.65 Z M33,13 L33,21.4 L54.2198582,21.4 L55,13 L33,13 Z" id="Shape" fill="#2D2F33" fill-rule="nonzero"></path>
    </g>
</svg>