<?xml version="1.0" encoding="UTF-8"?>
<svg width="35px" height="34px" viewBox="0 0 35 34" version="1.1" xmlns="http://www.w3.org/2000/svg" xmlns:xlink="http://www.w3.org/1999/xlink">
    <title>illustrator</title>
    <g id="Page-1" stroke="none" stroke-width="1" fill="none" fill-rule="evenodd">
        <g id="onepage_desktop" transform="translate(-757, -1752)" fill-rule="nonzero">
            <g id="HABILIDADES" transform="translate(249, 1248)">
                <g id="card__habilidades-copy-6" transform="translate(481, 480)">
                    <g id="illustrator" transform="translate(27, 24)">
                        <path d="M28.8020909,0 L6.19790911,0 C2.77489936,0 0,2.7610945 0,6.16707509 L0,27.7881488 C0,31.1941124 2.77489936,33.9552239 6.19790911,33.9552239 L28.8020909,33.9552239 C32.2250836,33.9552239 35,31.1941124 35,27.7881488 L35,6.16707509 C35,2.7610945 32.2250836,0 28.8020909,0 Z" id="Path" fill="#FFFFFF"></path>
                        <path d="M16.8637403,20.4442328 L11.5438902,20.4442328 L10.461494,23.8204264 C10.4467663,23.8819737 10.411077,23.936463 10.3606181,23.9744416 C10.3101593,24.0124623 10.2481109,24.0315777 10.1851419,24.0285528 L7.4906572,24.0285528 C7.33697952,24.0285528 7.28325719,23.943773 7.32944835,23.7741714 L11.9353436,10.4545009 C11.9814511,10.315778 12.0275168,10.1577716 12.0735824,9.98043985 C12.1338318,9.67190526 12.1646677,9.35832924 12.1657137,9.04391299 C12.1625757,9.02194083 12.164584,8.99950653 12.1715713,8.97845862 C12.1786004,8.9573687 12.1903574,8.93825334 12.2060055,8.92254093 C12.2216536,8.90682852 12.2407325,8.89498119 12.2616943,8.88796522 C12.2826979,8.88090724 12.3049985,8.87889068 12.3269226,8.88204156 L15.9885767,8.88204156 C16.0958958,8.88204156 16.1572749,8.92056637 16.1728393,8.99765801 L21.4006417,23.7972779 C21.4467074,23.9515872 21.4005999,24.0286789 21.2624448,24.0285528 L18.2685543,24.0285528 C18.2171331,24.0342664 18.1653772,24.0209907 18.1229935,23.9912043 C18.0806516,23.961418 18.0504851,23.9171376 18.0382679,23.8666814 L16.8637403,20.4442328 Z M12.3729464,17.530589 L16.0116304,17.530589 C15.919541,17.2223905 15.8120545,16.8754991 15.6892546,16.4899569 C15.5661618,16.1047928 15.4357052,15.6924051 15.2977593,15.2527937 C15.1595624,14.8134764 15.0213236,14.3741171 14.8831685,13.9347157 C14.7450134,13.4953564 14.6183643,13.0714154 14.5032211,12.6628507 C14.388036,12.2545802 14.2843988,11.8807592 14.1923512,11.541346 L14.1692974,11.541346 C14.0396358,12.1658933 13.8782177,12.7833406 13.6856709,13.3912932 C13.4704887,14.0850339 13.2516664,14.794193 13.0292877,15.5187283 C12.8065325,16.2435578 12.587752,16.914192 12.3729464,17.530589 Z" id="Shape" fill="#2D2F33"></path>
                        <path d="M24.7781565,11.0128333 C24.5377361,11.0225686 24.2980009,10.9811292 24.0745821,10.8912289 C23.8511633,10.8013286 23.649157,10.6650351 23.4817106,10.4912222 C23.3147354,10.3098709 23.185018,10.0971169 23.1000529,9.86519404 C23.0150878,9.63322806 22.9765451,9.38670229 22.9866519,9.13974576 C22.9780868,8.8952015 23.0208692,8.65160491 23.112258,8.42485117 C23.2036469,8.19809743 23.3415867,7.99326954 23.5169986,7.8238073 C23.6907402,7.65606811 23.8958299,7.52464226 24.120405,7.43715426 C24.3449373,7.34962318 24.584544,7.30779608 24.8252642,7.31404214 C25.3910273,7.31404214 25.8349957,7.48393514 26.1571265,7.8238073 C26.3197336,8.0004202 26.4461107,8.20753114 26.5290202,8.43333721 C26.6119297,8.65914327 26.6497443,8.89920759 26.6403227,9.13974576 C26.6501725,9.38764997 26.610388,9.63508034 26.5233244,9.86721863 C26.4362609,10.0994 26.303717,10.3115939 26.1335299,10.4912222 C25.955677,10.6675766 25.7433927,10.8049901 25.5101241,10.8947611 C25.2768555,10.9845322 25.0276559,11.0247224 24.7781565,11.0128333 Z M23.1516144,23.7927155 L23.1516144,12.4591638 C23.1516144,12.3169258 23.2142676,12.2457637 23.3402163,12.2457637 L26.2396078,12.2457637 C26.3652568,12.2457637 26.4280813,12.3168827 26.4282098,12.4591638 L26.4282098,23.7927155 C26.4282098,23.9509349 26.3653424,24.0298507 26.2396078,24.0298507 L23.363813,24.0298507 C23.2224043,24.0298507 23.1517,23.9508056 23.1516144,23.7927155 Z" id="Shape" fill="#2D2F33"></path>
                    </g>
                </g>
            </g>
        </g>
    </g>
</svg>