<?xml version="1.0" encoding="UTF-8"?>
<svg width="35px" height="34px" viewBox="0 0 35 34" version="1.1" xmlns="http://www.w3.org/2000/svg" xmlns:xlink="http://www.w3.org/1999/xlink">
    <title>indesign</title>
    <g id="Page-1" stroke="none" stroke-width="1" fill="none" fill-rule="evenodd">
        <g id="onepage_desktop" transform="translate(-274, -1752)" fill-rule="nonzero">
            <g id="HABILIDADES" transform="translate(249, 1248)">
                <g id="card__habilidades-copy-7" transform="translate(0, 480)">
                    <g id="indesign" transform="translate(25, 24)">
                        <path d="M28.8020909,0 L6.19790911,0 C2.77489936,0 0,2.7610945 0,6.16707509 L0,27.7881488 C0,31.1941124 2.77489936,33.9552239 6.19790911,33.9552239 L28.8020909,33.9552239 C32.2250836,33.9552239 35,31.1941124 35,27.7881488 L35,6.16707509 C35,2.7610945 32.2250836,0 28.8020909,0 Z" id="Path" fill="#FFFFFF"></path>
                        <path d="M12.5357125,9.06725176 L12.5357125,23.7985593 C12.5357125,23.9528796 12.4676205,24.0298507 12.3314365,24.0298507 L9.58453677,24.0298507 C9.46328269,24.0298507 9.40277939,23.9527535 9.40298507,23.7985593 L9.40298507,9.06725176 C9.40298507,8.9440224 9.4710776,8.88234469 9.6072616,8.88221865 L12.3541201,8.88221865 C12.3787833,8.87864739 12.4039002,8.88100022 12.4275736,8.88902504 C12.4512058,8.89704987 12.4726521,8.91057863 12.4902628,8.92851894 C12.5079148,8.94650127 12.521195,8.96834896 12.5290724,8.99242343 C12.5369498,9.0164979 12.5392181,9.04212692 12.5357125,9.06725176 Z" id="Path" fill="#2D2F33"></path>
                        <path d="M20.7974084,24.0290191 C19.7092537,24.0452791 18.6311064,23.8229184 17.6413087,23.3780702 C16.7192441,22.9584778 15.9484517,22.2734884 15.4308963,21.4137358 C14.8948722,20.5383567 14.6268657,19.4418838 14.6270749,18.1243594 C14.6181412,17.057408 14.8954306,16.0070543 15.4308963,15.0790519 C15.9824257,14.1337759 16.7935487,13.3603913 17.7713632,12.8473779 C18.7956504,12.2894277 20.0328439,12.0104737 21.4829867,12.0104737 C21.5616723,12.0104737 21.6641096,12.0143592 21.7902986,12.0221302 C21.9162729,12.0301124 22.0659988,12.0417267 22.2395195,12.056973 L22.2395195,7.47739755 C22.2395195,7.36915243 22.2868081,7.31467088 22.3813855,7.31467088 L25.360142,7.31467088 C25.3793839,7.31196792 25.3990553,7.3136995 25.4175241,7.31978116 C25.4359928,7.32582059 25.4527436,7.33599893 25.4665308,7.34951373 C25.4803179,7.36307076 25.490669,7.37954193 25.496811,7.39770245 C25.5029959,7.41586296 25.5047568,7.43520603 25.502008,7.45412675 L25.502008,21.1928955 C25.502008,21.4566031 25.5138194,21.743328 25.5374423,22.0530282 C25.5611081,22.3631929 25.5808224,22.6421469 25.5965853,22.8898902 C25.599506,22.9381633 25.5874798,22.9862254 25.5621819,23.0276989 C25.5368839,23.0691725 25.499388,23.102157 25.4547193,23.122387 C24.6862463,23.4375353 23.8858179,23.6712992 23.0669638,23.8197508 C22.318291,23.9556168 21.5587517,24.0256404 20.7974084,24.0290191 Z M22.2394765,21.1463961 L22.2394765,14.800098 C22.1116983,14.7660576 21.9812572,14.7427023 21.8494417,14.7303278 C21.6884197,14.7144057 21.5266246,14.7066769 21.3647865,14.7070992 C20.7910947,14.7014821 20.2241461,14.8289014 19.7098979,15.0790519 C19.2090504,15.3238388 18.7813907,15.6923284 18.468753,16.1483685 C18.1455493,16.61332 17.9840119,17.2254983 17.9840978,17.9848613 C17.972587,18.4916242 18.0567274,18.9960642 18.2323096,19.47263 C18.3752064,19.8566615 18.601041,20.2055969 18.894308,20.4954894 C19.1750335,20.7621956 19.5149449,20.9611588 19.8871982,21.0766682 C20.2804114,21.2018913 20.6914062,21.2646506 21.1047203,21.262671 C21.3252719,21.262671 21.5301465,21.2548946 21.7193871,21.2393948 C21.8955707,21.2263446 22.0699074,21.1951761 22.2394765,21.1463961 Z" id="Shape" fill="#2D2F33"></path>
                    </g>
                </g>
            </g>
        </g>
    </g>
</svg>