<?xml version="1.0" encoding="UTF-8"?>
<svg width="67px" height="67px" viewBox="0 0 67 67" version="1.1" xmlns="http://www.w3.org/2000/svg" xmlns:xlink="http://www.w3.org/1999/xlink">
    <title>javascript-icon</title>
    <g id="javascript-icon" stroke="none" stroke-width="1" fill="none" fill-rule="evenodd">
        <polygon id="Path" fill="#FFFFFF" fill-rule="nonzero" points="0 0 67 0 67 67 0 67"></polygon>
        <path d="M61.8148777,50.4119725 C61.3143344,47.3866974 59.2796583,44.8467268 53.2536369,42.4769279 C51.1604558,41.5441348 48.8267539,40.8761162 48.1311937,39.338205 C47.8841723,38.4432278 47.8516695,37.9390152 48.007683,37.3969868 C48.4562218,35.6385456 50.6209091,35.0902145 52.3370576,35.594427 C53.4421532,35.9536784 54.4887438,36.7793895 55.1192984,38.0965816 C58.0705537,36.2436637 58.0640532,36.2562059 60.1247315,34.9831323 C59.3706662,33.8486542 58.9676313,33.3254706 58.4735886,32.8402291 C56.698935,30.9179189 54.2807258,29.9284018 50.4128911,30.0040337 C49.7433332,30.0859682 49.0673397,30.1741424 48.3977168,30.2561399 C46.4671147,30.7288392 44.6273905,31.7120536 43.5482972,33.0293088 C40.311017,36.5903098 41.2340969,42.8235741 45.1734378,45.3888183 C49.0542736,48.2124084 54.7552669,48.8552794 55.4833299,51.4960925 C56.1918912,54.7293553 53.0326828,55.7755333 49.8928461,55.4037395 C47.5786459,54.937343 46.2915995,53.7965621 44.9004141,51.7229881 C42.3392575,53.1599938 42.3392575,53.1599938 39.7065297,54.6285128 C40.3305837,55.9520707 40.9870755,56.550823 42.0337311,57.6979065 C46.9871597,62.56986 59.3836673,62.3303591 61.6069247,54.9562509 C61.6978676,54.7040816 62.2959843,53.0149697 61.8148777,50.4119725 L61.8148777,50.4119725 Z M36.2026616,30.3947354 L29.8061081,30.3947354 C29.8061081,35.7519934 29.7801708,41.0714355 29.7801708,46.4286936 C29.7801708,49.8384308 29.9621866,52.9645484 29.3901371,53.9225522 C28.4540561,55.8069835 26.0293463,55.5738482 24.9242507,55.2082311 C23.7996534,54.6725053 23.2276039,53.9098839 22.5645465,52.8321926 C22.3825307,52.5233625 22.2460189,52.2838615 22.20045,52.2649536 C20.4648648,53.2922866 18.7356502,54.3258592 17,55.3532553 C17.8646398,57.0738805 19.1386851,58.5676101 20.7703262,59.5381562 C23.2080372,60.9562539 26.4843207,61.3911372 29.9101821,60.6285158 C32.139875,59.9982501 34.0639765,58.6936632 35.0715637,56.7083264 C36.5276897,54.1053293 36.2156627,50.954001 36.2026616,47.4686319 C36.2351644,41.7836357 36.2026616,36.0986395 36.2026616,30.3947354 Z" id="Shape" fill="#2D2F33" fill-rule="nonzero"></path>
    </g>
</svg>