<?xml version="1.0" encoding="UTF-8"?>
<svg width="35px" height="34px" viewBox="0 0 35 34" version="1.1" xmlns="http://www.w3.org/2000/svg" xmlns:xlink="http://www.w3.org/1999/xlink">
    <title>photoshop</title>
    <g id="Page-1" stroke="none" stroke-width="1" fill="none" fill-rule="evenodd">
        <g id="onepage_desktop" transform="translate(-509, -1752)" fill-rule="nonzero">
            <g id="HABILIDADES" transform="translate(249, 1248)">
                <g id="card__habilidades-copy-5" transform="translate(241, 480)">
                    <g id="photoshop" transform="translate(19, 24)">
                        <path d="M28.8020909,0 L6.19790911,0 C2.77489936,0 0,2.7610945 0,6.16707509 L0,27.7881488 C0,31.1941124 2.77489936,33.9552239 6.19790911,33.9552239 L28.8020909,33.9552239 C32.2250836,33.9552239 35,31.1941124 35,27.7881488 L35,6.16707509 C35,2.7610945 32.2250836,0 28.8020909,0 Z" id="Path" fill="#FFFFFF"></path>
                        <path d="M7.8358209,23.8435453 L7.8358209,9.11118093 C7.8358209,9.00382642 7.88250248,8.94979313 7.97586565,8.94979313 C8.22453732,8.94979313 8.45154296,8.94619091 8.79400179,8.93827441 C9.13607903,8.93069299 9.50558858,8.92302781 9.90253046,8.91523696 C10.2993027,8.90761366 10.7193946,8.89994847 11.1628061,8.89215763 C11.6061752,8.88457621 12.0456859,8.88076456 12.4813383,8.88059701 C13.6635569,8.88059701 14.6593035,9.02661255 15.4685358,9.31868551 C16.1985663,9.56263114 16.8642771,9.96427858 17.4172906,10.494475 C17.8860993,10.9540511 18.2483586,11.5086253 18.4791377,12.1199136 C18.6974515,12.7148242 18.8080712,13.3430345 18.8059399,13.9758523 C18.8059399,15.2057169 18.5180603,16.2201605 17.9424055,17.0191411 C17.3629348,17.8214726 16.5484026,18.428991 15.608623,18.7598507 C14.6284369,19.1211616 13.5391999,19.243679 12.3413359,19.243679 C11.9989195,19.243679 11.7577525,19.2398673 11.617835,19.2321602 C11.4778326,19.2245788 11.2678291,19.2207253 10.9877819,19.2206415 L10.9877819,23.8205079 C10.9918523,23.8486973 10.9892235,23.8774313 10.9801077,23.9044479 C10.9709918,23.9314646 10.9556433,23.9560099 10.9352493,23.9761154 C10.9148552,23.9962626 10.8900092,24.0114255 10.8626617,24.020431 C10.8353142,24.0294366 10.8062283,24.0320335 10.7776936,24.0280124 L7.99918525,24.0280124 C7.89017675,24.0280124 7.8358209,23.9667328 7.8358209,23.8435453 Z M10.9877819,11.7164231 L10.9877819,16.5215322 C11.189772,16.5370301 11.376456,16.5446953 11.5478338,16.5445712 L12.3179739,16.5445712 C12.8846401,16.5427266 13.4475751,16.4539278 13.9866817,16.2813982 C14.4490032,16.1457286 14.8621416,15.8816357 15.1768713,15.520576 C15.480238,15.1671816 15.6319426,14.675353 15.631985,14.0450484 C15.6442808,13.5990434 15.5268348,13.1589444 15.2935117,12.7769835 C15.0482743,12.4075885 14.6938165,12.1218403 14.2783462,11.9585258 C13.73589,11.7502253 13.1564193,11.6522115 12.5747015,11.6703482 C12.2012488,11.6703482 11.8706617,11.6741599 11.582898,11.6818251 C11.294795,11.6897835 11.0964512,11.7013022 10.9877819,11.7164231 Z" id="Shape" fill="#2D2F33"></path>
                        <path d="M27.8278444,15.2686255 C27.3928217,15.0442358 26.9294957,14.8800914 26.450525,14.7806253 C25.9227278,14.6590791 25.3831551,14.5967228 24.8416898,14.5946964 C24.5488149,14.5867593 24.2563186,14.6219693 23.9736211,14.6993131 C23.7936654,14.7395048 23.6337282,14.8424328 23.5221968,14.9897743 C23.4467492,15.1076053 23.4065861,15.24473 23.406502,15.38481 C23.4107076,15.5207104 23.4595341,15.651418 23.5453695,15.7566257 C23.6805781,15.9154084 23.8458143,16.045736 24.0314475,16.1400514 C24.3614995,16.3184656 24.7016028,16.4775438 25.049991,16.6164416 C25.8268832,16.877519 26.5692478,17.2325319 27.2606832,17.6737543 C27.7317054,17.9721948 28.1214762,18.3834423 28.3949635,18.8705137 C28.6249653,19.3317475 28.7401134,19.8420812 28.7306509,20.3577765 C28.7444872,21.0387139 28.5506532,21.7076613 28.1750971,22.274905 C27.7730039,22.8507191 27.2145482,23.2984009 26.5662198,23.5645867 C25.863808,23.8743416 24.9957393,24.0292824 23.9620559,24.0293669 C23.3053584,24.0360374 22.6497544,23.9737233 22.005968,23.8434801 C21.498778,23.7500935 21.0050038,23.5940128 20.5360423,23.3786999 C20.4854074,23.3524824 20.4433098,23.3123329 20.4146279,23.2629376 C20.385904,23.2135423 20.3718154,23.1569699 20.3740022,23.0998487 L20.3740022,20.5901455 C20.3712266,20.5655745 20.3751377,20.540708 20.3853152,20.5181634 C20.3955347,20.4956611 20.411642,20.4763674 20.4319127,20.4623088 C20.451805,20.4510365 20.4746412,20.446097 20.4973512,20.4482079 C20.5201032,20.4502766 20.5416777,20.459269 20.5592149,20.473961 C21.1130445,20.8017853 21.7143968,21.0409092 22.3416134,21.1827202 C22.8944757,21.3218291 23.4615527,21.3958799 24.0314475,21.4034791 C24.5714829,21.4034791 24.9688658,21.3337347 25.2235963,21.1943302 C25.3386603,21.141473 25.4359768,21.0562766 25.5037704,20.9490424 C25.5715639,20.8418082 25.6069327,20.7171378 25.6055869,20.5901455 C25.6055869,20.3889757 25.48985,20.1953631 25.2583762,20.0091808 C25.0269025,19.8232941 24.5562167,19.598651 23.8462769,19.3352516 C23.1194308,19.0813091 22.4302665,18.7295471 21.7976248,18.2895912 C21.3451491,17.9736724 20.9725369,17.5558389 20.7096476,17.0695696 C20.4820009,16.611671 20.3668949,16.1056858 20.3740022,15.593959 C20.3726985,14.9790931 20.5409628,14.3758794 20.8601224,13.8511072 C21.223987,13.2732244 21.7465273,12.8132149 22.364786,12.5265533 C23.0436888,12.1859368 23.8924539,12.0155442 24.9111656,12.0152909 C25.5077236,12.010478 26.1037349,12.0532028 26.693564,12.1430854 C27.1207223,12.1975046 27.5382919,12.3108605 27.9344973,12.4800711 C27.9659128,12.4891058 27.9948049,12.5053598 28.0189027,12.5275243 C28.0430006,12.5497311 28.0616732,12.5772151 28.0733647,12.6078656 C28.0890094,12.6646068 28.0967896,12.7232479 28.0965373,12.7821423 L28.0965373,15.1291788 C28.0981354,15.156494 28.092542,15.1837669 28.080388,15.2082113 C28.0681919,15.2326978 28.0498136,15.2535114 28.0271036,15.2686255 C27.9961507,15.2840774 27.9620436,15.2921411 27.927474,15.2921411 C27.8929043,15.2921411 27.8587973,15.2840774 27.8278444,15.2686255 Z" id="Path" fill="#2D2F33"></path>
                    </g>
                </g>
            </g>
        </g>
    </g>
</svg>