<?xml version="1.0" encoding="UTF-8"?>
<svg width="35px" height="32px" viewBox="0 0 35 32" version="1.1" xmlns="http://www.w3.org/2000/svg" xmlns:xlink="http://www.w3.org/1999/xlink">
    <title>Sketch_dark</title>
    <g id="Page-1" stroke="none" stroke-width="1" fill="none" fill-rule="evenodd">
        <g id="onepage_desktop" transform="translate(-275, -1855)" fill="#FFFFFF">
            <g id="HABILIDADES" transform="translate(249, 1248)">
                <g id="card__habilidades-copy-8" transform="translate(1, 582)">
                    <g id="Sketch_dark" transform="translate(25, 25)">
                        <path d="M0.173693873,11.0904304 L7.28623602,1.41880318 C7.43329931,1.21928346 7.65688422,1.09037928 7.90298172,1.06322865 L17.4026403,0.00539443256 C17.4675186,-0.00179814419 17.532991,-0.00179814419 17.5978692,0.00539443256 L27.0975278,1.06211748 C27.3436253,1.08926811 27.5672102,1.21817229 27.7142735,1.41769201 L34.8279249,11.0904304 C35.0730061,11.4248406 35.0545922,11.8845997 34.7835547,12.1982672 L18.0049657,31.6348599 C17.8785412,31.7814281 17.6947326,31.8656716 17.501364,31.8656716 C17.3079954,31.8656716 17.1241868,31.7814281 16.9977623,31.6348599 L0.215845558,12.1982672 C-0.0548545506,11.8843353 -0.0728077469,11.4245854 0.172584619,11.0904304 L0.173693873,11.0904304 Z M19.947271,2.86443587 L26.6549351,9.2114412 C26.7879809,9.3377025 26.9848309,9.36903061 27.1503896,9.29029135 C27.3159483,9.21155209 27.4161437,9.03894995 27.4025729,8.85586668 L27.080889,4.35118187 C27.0715394,4.23698451 27.1503962,4.13438559 27.2629982,4.11424337 C27.3756003,4.09410114 27.4850323,4.16301899 27.5157169,4.27339994 L28.9865888,9.43145294 C29.0871015,9.78406453 29.3548123,10.064295 29.7020582,10.1803818 L32.8412494,11.2282155 C32.9446954,11.2622743 33.0081739,11.3665043 32.9910778,11.4742298 C32.9739817,11.5819552 32.8813656,11.6613274 32.7724756,11.6615719 L29.7553024,11.6615719 C29.3763354,11.661793 29.0237058,11.8558018 28.8202006,12.1760438 L20.5961851,25.121179 C20.500701,25.2677068 20.3083687,25.315338 20.1557247,25.2302594 C20.0030807,25.1451808 19.9420878,24.9563547 20.0160448,24.7978284 L25.9106251,12.6194008 C26.0107609,12.4127443 25.9976391,12.1690042 25.875898,11.9743337 C25.7541568,11.7796631 25.540946,11.6614854 25.3116275,11.6615719 L9.68888204,11.6615719 C9.45956354,11.6614854 9.24635267,11.7796631 9.12461152,11.9743337 C9.00287036,12.1690042 8.98974865,12.4127443 9.08988442,12.6194008 L14.9844647,24.7978284 C15.061352,24.956756 15.0011601,25.1481722 14.8472247,25.2342654 C14.6932894,25.3203586 14.4990384,25.2712476 14.4043244,25.1222902 L6.18030893,12.177155 C5.97685537,11.8561554 5.62367538,11.6616548 5.24409783,11.6615719 L2.13485646,11.6615719 C2.02596654,11.6613274 1.93335036,11.5819552 1.9162543,11.4742298 C1.89915823,11.3665043 1.9626367,11.2622743 2.06608266,11.2282155 L5.29179579,10.1781595 C5.64282261,10.063593 5.91394369,9.78159005 6.01502996,9.42589709 L7.48479264,4.27339994 C7.51547723,4.16301899 7.62490924,4.09410114 7.73751126,4.11424337 C7.85011328,4.13438559 7.9289701,4.23698451 7.91962055,4.35118187 L7.59793664,8.85586668 C7.58436581,9.03894995 7.68456125,9.21155209 7.85011992,9.29029135 C8.01567859,9.36903061 8.2125286,9.3377025 8.34557441,9.2114412 L15.0532385,2.86443587 C15.1374931,2.77921512 15.274054,2.7763427 15.3618055,2.85794547 C15.4495569,2.93954824 15.4568348,3.07618077 15.3782502,3.16667422 L10.8780033,8.71474804 C10.770286,8.84775899 10.7484472,9.03093529 10.8218651,9.18561632 C10.8952829,9.34029734 11.050893,9.43895811 11.2218723,9.43923114 L23.7786372,9.43923114 C23.9496165,9.43895811 24.1052266,9.34029734 24.1786444,9.18561632 C24.2520623,9.03093529 24.2302235,8.84775899 24.1225063,8.71474804 L19.6222593,3.16667422 C19.5436747,3.07618077 19.5509526,2.93954824 19.638704,2.85794547 C19.7264555,2.7763427 19.8630164,2.77921512 19.947271,2.86443587 Z" id="Shape"></path>
                    </g>
                </g>
            </g>
        </g>
    </g>
</svg>