<?xml version="1.0" encoding="UTF-8"?>
<svg width="35px" height="42px" viewBox="0 0 35 42" version="1.1" xmlns="http://www.w3.org/2000/svg" xmlns:xlink="http://www.w3.org/1999/xlink">
    <title>svelte</title>
    <g id="Page-1" stroke="none" stroke-width="1" fill="none" fill-rule="evenodd">
        <g id="onepage_desktop" transform="translate(-993, -1442)" fill-rule="nonzero">
            <g id="HABILIDADES" transform="translate(249, 1248)">
                <g id="card__habilidades-copy-3" transform="translate(721, 174)">
                    <g id="svelte" transform="translate(23, 20)">
                        <path d="M32.7690447,5.47293115 C28.8631294,-0.0244560292 21.1490525,-1.65381442 15.5716149,1.84058726 L5.7759965,7.98022586 C3.10030317,9.63557395 1.25730849,12.322572 0.69894914,15.3823181 C0.231648618,17.9313003 0.642332987,20.5607393 1.8659796,22.8543225 C1.02749034,24.1051148 0.455604866,25.5101084 0.184886987,26.9843877 C-0.378809926,30.1028998 0.358636391,33.3132419 2.23074498,35.8906686 C6.13734391,41.3885935 13.8514207,43.0172797 19.4281748,39.522878 L29.2237932,33.3835083 C31.8997114,31.7283262 33.7427743,29.0411798 34.3008406,25.9812816 C34.7680529,23.4323409 34.3576756,20.8029727 33.1346304,18.5091427 C33.9728672,17.2583544 34.544476,15.8534008 34.8149027,14.379212 C35.3790017,11.2607098 34.6415734,8.05023179 32.7691814,5.47293115" id="Path" fill="#FFFFFF"></path>
                        <path d="M14.7021919,35.8148842 C11.6404326,36.6190469 8.40730919,35.408452 6.60407586,32.782975 C5.51217848,31.2392112 5.08207099,29.3161949 5.41088832,27.4482179 C5.46601245,27.1446197 5.54186954,26.8452385 5.63791601,26.5522197 L5.8168345,26.0013407 L6.30336026,26.3623907 C7.42723908,27.1964855 8.68384999,27.8306396 10.0190335,28.237521 L10.3719668,28.3456887 L10.3394964,28.7016515 C10.2963356,29.2079335 10.4320251,29.7133012 10.7225145,30.1281803 C11.2651592,30.9190612 12.2386346,31.2840137 13.1607097,31.0422511 C13.3671793,30.9865168 13.5639759,30.8991564 13.744249,30.7832109 L23.2428329,24.6690571 C23.7127831,24.3701689 24.0366649,23.8854631 24.1353049,23.3334267 C24.2337705,22.7704342 24.1042181,22.1910858 23.775745,21.7255028 C23.2327819,20.9344608 22.2590744,20.5693464 21.3366221,20.8108965 C21.1304856,20.8666252 20.9340071,20.953893 20.7540104,21.069669 L17.1292543,23.4035751 C16.5332504,23.78636 15.8828266,24.0748811 15.200513,24.2591443 C12.1388863,25.063307 8.90563032,23.8527121 7.10266206,21.2271013 C6.01069787,19.6834173 5.58053857,17.7604313 5.90934198,15.892478 C6.23487044,14.0598616 7.30970024,12.4505763 8.87011169,11.4594756 L18.3679004,5.34465244 C18.9641789,4.9612667 19.6150845,4.67241412 20.2979671,4.48814614 C23.3595938,3.68398338 26.5928497,4.89457833 28.395818,7.52005528 C29.4877617,9.06379934 29.9179174,10.9868173 29.5891381,12.8548124 C29.5337703,13.1583127 29.4579174,13.4576326 29.3621104,13.7506768 L29.1831919,14.3016896 L28.6967987,13.9411751 C27.5730362,13.1066169 26.3163469,12.4721743 24.9809929,12.0652416 L24.6279271,11.95694 L24.66053,11.601111 C24.7033208,11.0948627 24.5676652,10.5896212 24.2775119,10.1745822 C23.7348478,9.38364674 22.7613008,9.01868723 21.8391842,9.26051143 C21.6327605,9.31625861 21.4360096,9.40361862 21.2557774,9.51955171 L11.7571935,15.6339732 C11.2872254,15.9326178 10.9634618,16.4173375 10.8652517,16.9693359 C10.7662467,17.5323076 10.8956387,18.1118411 11.2242814,18.5773937 C11.7672445,19.3684356 12.740952,19.73355 13.6634043,19.4919999 C13.86979,19.4361435 14.066525,19.3487906 14.2468112,19.2329597 L17.8709046,16.8999907 C18.4666706,16.5166562 19.1170953,16.227844 19.7995134,16.0436183 C22.8611401,15.2395894 26.0943961,16.4501844 27.8974969,19.0757952 C28.9893793,20.619464 29.4194888,22.5423926 29.0906844,24.4102846 C28.764974,26.2430363 27.6902174,27.8525036 26.1299147,28.8440902 L16.632126,34.9583779 C16.0358475,35.3417636 15.3849419,35.6306162 14.7020593,35.8148842" id="Path" fill="#2D2F33"></path>
                    </g>
                </g>
            </g>
        </g>
    </g>
</svg>