<?xml version="1.0" encoding="UTF-8"?>
<svg width="67px" height="67px" viewBox="0 0 67 67" version="1.1" xmlns="http://www.w3.org/2000/svg" xmlns:xlink="http://www.w3.org/1999/xlink">
    <title>wordpress-icon</title>
    <g id="wordpress-icon" stroke="none" stroke-width="1" fill="none" fill-rule="evenodd">
        <path d="M4,33.8327461 C4,45.3412923 10.5304028,55.2869289 20,60 L6.45788177,22 C4.88267666,25.6159916 4,29.6175931 4,33.8327461 Z" id="Path" fill="#FFFFFF" fill-rule="nonzero"></path>
        <path d="M51.9940427,32.055953 C51.9940427,28.5343415 50.7305634,26.0955103 49.6468847,24.197256 C48.2041461,21.8500572 46.8518495,19.8623393 46.8518495,17.5151404 C46.8518495,14.8957555 48.8361566,12.4574665 51.6311918,12.4574665 C51.7573773,12.4574665 51.8770639,12.4731904 52,12.480239 C46.9363342,7.83572414 40.190015,5 32.7802743,5 C22.837076,5 14.0891195,10.1075567 9,17.8437157 C9.667754,17.8637773 10.2970566,17.8778746 10.8315848,17.8778746 C13.808587,17.8778746 18.4167937,17.5162248 18.4167937,17.5162248 C19.9510573,17.4256769 20.1319412,19.6817855 18.5993023,19.8634237 C18.5993023,19.8634237 17.0574566,20.0450618 15.3417675,20.1350676 L25.7063061,51 L31.9348858,32.2977758 L27.5005227,20.1339832 C25.9678837,20.0439774 24.5159385,19.8623393 24.5159385,19.8623393 C22.9822164,19.7723335 23.1620172,17.4245925 24.6957392,17.5151404 C24.6957392,17.5151404 29.3960125,17.8767902 32.1926725,17.8767902 C35.1691331,17.8767902 39.7778813,17.5151404 39.7778813,17.5151404 C41.3132281,17.4245925 41.4935704,19.6807011 39.9603899,19.8623393 C39.9603899,19.8623393 38.4152949,20.0439774 36.7028552,20.1339832 L46.9883248,50.7652259 L49.827227,41.2674478 C51.0576708,37.3261707 51.9940427,34.4953264 51.9940427,32.055953 Z" id="Path" fill="#FFFFFF" fill-rule="nonzero"></path>
        <path d="M33.7876649,36 L25,60.8393244 C27.6238157,61.5896163 30.3986625,62 33.273825,62 C36.6845625,62 39.9554152,61.4264387 43,60.3850292 C42.9214193,60.2630525 42.8500836,60.1334862 42.791566,59.9925354 L33.7876649,36 Z" id="Path" fill="#FFFFFF" fill-rule="nonzero"></path>
        <path d="M58.5510273,20 C58.6721003,20.9241942 58.7406726,21.9162951 58.7406726,22.9834798 C58.7406726,25.9277615 58.2070944,29.237525 56.599931,33.3759715 L48,59 C56.3701067,53.9699325 62,44.6247505 62,33.9208816 C62.0005355,28.8764598 60.7501625,24.1329256 58.5510273,20 Z" id="Path" fill="#FFFFFF" fill-rule="nonzero"></path>
        <path d="M33.4991798,0 C15.028206,0 0,15.027603 0,33.4991797 C0,51.9729439 15.028206,67 33.4991798,67 C51.9696067,67 67,51.9729439 67,33.4991797 C67,15.027603 51.9696067,0 33.4991798,0 Z M33.4991798,65.4644842 C15.8752275,65.4644842 1.53601247,51.1248011 1.53601247,33.4991797 C1.53601247,15.8746521 15.8746807,1.53606262 33.4991798,1.53606262 C51.1225852,1.53606262 65.4607066,15.8746521 65.4607066,33.4991797 C65.4607066,51.1248011 51.1225852,65.4644842 33.4991798,65.4644842 Z" id="Shape" fill="#FFFFFF" fill-rule="nonzero"></path>
    </g>
</svg>