<?xml version="1.0" encoding="UTF-8"?>
<svg xmlns="http://www.w3.org/2000/svg" version="1.1" viewBox="0 0 32 32">
  <defs>
    <style>
      .cls-1 {
        fill: #28e98c;
      }
    </style>
  </defs>
  <!-- Generator: Adobe Illustrator 28.7.1, SVG Export Plug-In . SVG Version: 1.2.0 Build 142)  -->
  <g>
    <g id="Capa_1">
      <path class="cls-1" d="M15,5c-1.1,0-2,.9-2,2v1H4v18h24V8h-9v-1c0-1.1-.9-2-2-2h-2ZM15,7h2v2h-2v-2ZM6,10h7v1h6v-1h7v14H6v-14ZM16,12c-2.2,0-4,1.8-4,4s.5,2.1,1.2,2.9c-1.3.9-2.2,2.4-2.2,4.1h2c0-1.7,1.3-3,3-3s3,1.3,3,3h2c0-1.7-.9-3.2-2.2-4.1.7-.7,1.2-1.7,1.2-2.9,0-2.2-1.8-4-4-4ZM16,14c1.1,0,2,.9,2,2s-.9,2-2,2-2-.9-2-2,.9-2,2-2Z"/>
    </g>
  </g>
</svg>