<?xml version="1.0" encoding="UTF-8"?>
<svg xmlns="http://www.w3.org/2000/svg" version="1.1" viewBox="0 0 32 32">
  <defs>
    <style>
      .cls-1 {
        fill: #28e98c;
      }
    </style>
  </defs>
  <!-- Generator: Adobe Illustrator 28.7.1, SVG Export Plug-In . SVG Version: 1.2.0 Build 142)  -->
  <g>
    <g id="Capa_1">
      <path class="cls-1" d="M5,6c-1.6,0-3,1.4-3,3v14c0,1.6,1.4,3,3,3h22c1.6,0,3-1.4,3-3v-14c0-1.6-1.4-3-3-3H5ZM5,8h22c.6,0,1,.4,1,1v14c0,.6-.4,1-1,1H5c-.6,0-1-.4-1-1v-14c0-.6.4-1,1-1ZM21,10c-2.2,0-4,1.8-4,4s.5,2.1,1.2,2.8c-1.3.9-2.2,2.4-2.2,4.2h2c0-1.7,1.3-3,3-3s3,1.3,3,3h2c0-1.7-.9-3.3-2.2-4.2.7-.7,1.2-1.7,1.2-2.8,0-2.2-1.8-4-4-4ZM21,12c1.1,0,2,.9,2,2s-.9,2-2,2-2-.9-2-2,.9-2,2-2ZM7,14v4h5v-4h-5Z"/>
    </g>
  </g>
</svg>