<?xml version="1.0" encoding="UTF-8"?>
<svg xmlns="http://www.w3.org/2000/svg" version="1.1" viewBox="0 0 32 32">
  <defs>
    <style>
      .cls-1 {
        fill: #28e98c;
      }
    </style>
  </defs>
  <!-- Generator: Adobe Illustrator 28.7.1, SVG Export Plug-In . SVG Version: 1.2.0 Build 142)  -->
  <g>
    <g id="Capa_1">
      <path class="cls-1" d="M16,3c-1.9,0-3.4,1.3-3.9,3H3v20h6v-1.1l-1.8-.9h-2.2v-5h10l3.8-2H5v-9h22v9h-2.8l4.8,2.6V6h-9.1c-.4-1.7-2-3-3.9-3ZM16,5c.8,0,1.4.4,1.7,1h-3.5c.3-.6,1-1,1.7-1ZM16,14c-.6,0-1,.4-1,1s.4,1,1,1,1-.4,1-1-.4-1-1-1ZM21.3,17.8l-10.5,5.7v3.5h2v-2.4l2,1v6.4h13v-6.4l4.2-2.1-10.7-5.7ZM21.3,20.1l6.3,3.4-1.8.9v5.6h-9v-5.6l-1.8-.9,6.3-3.4Z"/>
    </g>
  </g>
</svg>