<?xml version="1.0" encoding="UTF-8"?>
<svg xmlns="http://www.w3.org/2000/svg" version="1.1" viewBox="0 0 32 32">
  <defs>
    <style>
      .cls-1 {
        fill: #28e98c;
      }
    </style>
  </defs>
  <!-- Generator: Adobe Illustrator 28.7.1, SVG Export Plug-In . SVG Version: 1.2.0 Build 142)  -->
  <g>
    <g id="Capa_1">
      <path class="cls-1" d="M22,3c-3.6,0-6.5,2.7-6.9,6.2-1.1-.8-2.3-1.2-3.6-1.2s-3,.6-4,1.7l-2.8,2.8c-2.2,2.2-2.2,5.8,0,8.1l.6.6-1,.9h0c-1.6,1.7-1.6,4.2,0,5.7,1.6,1.5,4.1,1.6,5.6,0h0s3-3.1,3-3.1c0,0,.1,0,.2-.2h0c1.2,0,2.3-.6,2.9-1.5.9-.2,1.7-.7,2.2-1.5,1.6-.3,2.8-1.7,2.8-3.4s-.1-.9-.3-1.3c.4,0,.7.2,1.1.2,3.8,0,7-3.2,7-7s-.2-2.2-.8-3.2l-.7-1.1-4.7,4.7-1.3-1.4,4.8-4.8-1.4-.6c-.8-.3-1.7-.6-2.8-.6ZM22,5c.1,0,.2,0,.4,0l-3.1,3.1-.7.7.7.7,2.7,2.9.7.8.7-.8,3.3-3.3c0,.3.2.5.2.8,0,2.8-2.2,5-5,5s-.8,0-1.3-.2h-.5c0,0-.4.3-.4.3v.2c-.1,0-2.9-2.8-2.9-2.8l.7-.7-.3-.3v-.2c-.1-.3-.2-.9-.2-1.2,0-2.8,2.2-5,5-5ZM11.5,10c1,0,2,.4,2.8,1.2l.4.5-.8.8,4.5,4.5c.4.2.6.7.6,1.2,0,.8-.7,1.5-1.5,1.5s-.5,0-.8-.2v.2c0,.8-.7,1.5-1.5,1.5s-.5,0-.8-.2v.2c0,.8-.7,1.5-1.5,1.5s-.6,0-.8-.2c0,.1-.1.3-.2.4s-.2.2-.3.3c-.2.2-.6.3-.9.3-.5,0-.9-.2-1.2-.6l-3.6-3.6c-1.4-1.4-1.4-3.8,0-5.2l2.8-2.8c.9-.9,1.9-1.3,2.8-1.3ZM6.7,22.6l1.7,1.6c.4.4.8.8,1.3,1l-1.2,1.2h0c-.7.8-2,.8-2.8,0h0s0,0,0,0c-.8-.7-.8-2,0-2.8l1.1-1Z"/>
    </g>
  </g>
</svg>