<?xml version="1.0" encoding="UTF-8"?>
<svg width="24px" height="17px" viewBox="0 0 24 17" version="1.1" xmlns="http://www.w3.org/2000/svg" xmlns:xlink="http://www.w3.org/1999/xlink">
    <title>YouTube_light_icon_(2017)</title>
    <g id="Página-1" stroke="none" stroke-width="1" fill="none" fill-rule="evenodd">
        <g id="YouTube_light_icon_(2017)" transform="translate(0, 0)" fill="#28E98C" fill-rule="nonzero">
            <path d="M11.9995722,0 C11.9995722,0 4.48789407,0 2.60982985,0.500039054 C1.60160584,0.78003905 0.771033426,1.62023437 0.494266057,2.66023439 C0,4.56023436 0,8.5 0,8.5 C0,8.5 0,12.4597658 0.494266057,14.3397655 C0.771033426,15.3797657 1.58183675,16.2000392 2.60982985,16.480039 C4.50766333,17 11.9995722,17 11.9995722,17 C11.9995722,17 19.5119068,17 21.389971,16.499961 C22.4179643,16.2199608 23.2287676,15.3996877 23.5055348,14.3596875 C23.9999011,12.4596876 23.9999011,8.51992196 23.9999011,8.51992196 C23.9999011,8.51992196 24.0195315,4.56023436 23.5055348,2.66023439 C23.2287676,1.62023437 22.4179643,0.799960942 21.389971,0.519960946 C19.5119068,0 11.9995722,0 11.9995722,0 Z M9.60766599,4.86027348 L15.854585,8.5 L9.60766599,12.1397265 L9.60766599,4.86027348 Z" id="path7"></path>
        </g>
    </g>
</svg>