<?xml version="1.0" encoding="UTF-8"?>
<svg width="55px" height="55px" viewBox="0 0 55 55" version="1.1" xmlns="http://www.w3.org/2000/svg" xmlns:xlink="http://www.w3.org/1999/xlink">
    <title>behance_box</title>
    <g id="Página-1" stroke="none" stroke-width="1" fill="none" fill-rule="evenodd">
        <g id="MacBook-Pro-13&quot;" transform="translate(-653, -6244)">
            <g id="behance_box" transform="translate(653, 6244)">
                <g id="behance" transform="translate(10, 16)" fill="#D8D8D8" fill-rule="nonzero">
                    <path d="M14.0972222,9.85765719 C16.0295139,8.93159791 17.0381945,7.53032401 17.0381945,5.34921075 C17.0381945,1.04790917 13.8420139,0 10.1536458,0 L0,0 L0,21.5918029 L10.4392361,21.5918029 C14.3524305,21.5918029 18.0286458,19.7092218 18.0286458,15.3226253 C18.0286458,12.611465 16.7465278,10.6070341 14.0972222,9.85765719 L14.0972222,9.85765719 Z M4.73350695,3.68595956 L9.17534723,3.68595956 C10.8828125,3.68595956 12.4201389,4.16726669 12.4201389,6.1534201 C12.4201389,7.98726115 11.2230903,8.7244531 9.5338542,8.7244531 L4.73350695,8.7244531 L4.73350695,3.68595956 L4.73350695,3.68595956 Z M9.79513893,17.9241208 L4.73350695,17.9241208 L4.73350695,11.9778455 L9.89236107,11.9778455 C11.9765625,11.9778455 13.2951389,12.8490722 13.2951389,15.0606481 C13.2951389,17.2417613 11.7213542,17.9241208 9.79513893,17.9241208 L9.79513893,17.9241208 Z M31.578993,3.25948491 L22.8472222,3.25948491 L22.8472222,1.1332041 L31.578993,1.1332041 L31.578993,3.25948491 L31.578993,3.25948491 Z M35,14.0005539 C35,9.37635008 32.3020833,5.51980061 27.4105903,5.51980061 C22.6588542,5.51980061 19.4322917,9.10218777 19.4322917,13.793409 C19.4322917,18.6613127 22.4887153,22 27.4105903,22 C31.1354167,22 33.547743,20.3184714 34.7083333,16.7421767 L30.9288195,16.7421767 C30.5217014,18.0764331 28.844618,18.7831625 27.5442708,18.7831625 C25.0347222,18.7831625 23.7161458,17.3087787 23.7161458,14.8047633 L34.9635417,14.8047633 C34.9817708,14.5488785 35,14.2747162 35,14.0005539 Z M23.7222222,12.0996954 C23.8619792,10.0465245 25.2230903,8.76100805 27.2769097,8.76100805 C29.4279514,8.76100805 30.5095486,10.0282471 30.6918403,12.0996954 L23.7222222,12.0996954 Z" id="Shape"></path>
                </g>
                <rect id="Rectángulo-Copia-2" stroke="#979797" stroke-width="0.5" x="0.25" y="0.25" width="54.5" height="54.5" rx="8"></rect>
            </g>
        </g>
    </g>
</svg>