<?xml version="1.0" encoding="UTF-8"?>
<svg width="55px" height="55px" viewBox="0 0 55 55" version="1.1" xmlns="http://www.w3.org/2000/svg" xmlns:xlink="http://www.w3.org/1999/xlink">
    <title>linkedin_box</title>
    <g id="Página-1" stroke="none" stroke-width="1" fill="none" fill-rule="evenodd">
        <g id="MacBook-Pro-13&quot;" transform="translate(-575, -6244)">
            <g id="linkedin_box" transform="translate(575, 6244)">
                <g id="linkedin-in" transform="translate(15, 13)" fill="#D8D8D8" fill-rule="nonzero">
                    <path d="M5.82098214,26 L0.429464286,26 L0.429464286,8.64151786 L5.82098214,8.64151786 L5.82098214,26 Z M3.12232143,6.27366071 C1.39866071,6.27366071 0,4.84598214 0,3.12232143 C0,1.39791092 1.39791092,0 3.12232143,0 C4.84673194,0 6.24464286,1.39791092 6.24464286,3.12232143 C6.24464286,4.84598214 4.84598214,6.27366071 3.12232143,6.27366071 Z M25.9941964,26 L20.6142857,26 L20.6142857,17.55 C20.6142857,15.5361607 20.5736607,12.9535714 17.8111607,12.9535714 C15.0080357,12.9535714 14.5785714,15.1415179 14.5785714,17.4049107 L14.5785714,26 L9.19285714,26 L9.19285714,8.64151786 L14.3638393,8.64151786 L14.3638393,11.009375 L14.4392857,11.009375 C15.1589286,9.64553571 16.9174107,8.20625 19.540625,8.20625 C24.9959821,8.20625 26,11.7986607 26,16.4647321 L26,26 L25.9941964,26 Z" id="Shape"></path>
                </g>
                <rect id="Rectángulo" stroke="#979797" stroke-width="0.5" x="0.25" y="0.25" width="54.5" height="54.5" rx="8"></rect>
            </g>
        </g>
    </g>
</svg>