<?xml version="1.0" encoding="UTF-8"?>
<svg width="56px" height="56px" viewBox="0 0 56 56" version="1.1" xmlns="http://www.w3.org/2000/svg" xmlns:xlink="http://www.w3.org/1999/xlink">
    <title>youtube_box</title>
    <defs>
        <path d="M0,28 L0,0 L35,0 L35,28 L0,28 Z" id="path-1"></path>
    </defs>
    <g id="Página-1" stroke="none" stroke-width="1" fill="none" fill-rule="evenodd">
        <g id="youtube_box" transform="translate(1.2, 1.2)">
            <g id="Grupo" transform="translate(9.8, 12.8)">
                <g>
                    <mask id="mask-2" fill="white">
                        <use xlink:href="#path-1"></use>
                    </mask>
                    <g id="Forma-combinada"></g>
                    <g id="Fill-2" mask="url(#mask-2)" fill="#D8D8D8">
                        <g transform="translate(-0, -0)" id="Fill-1">
                            <path d="M9.65741453,25.7303949 C8.87307028,25.7303949 8.05731808,25.7852497 7.27485403,25.7026142 C4.54909218,25.4147606 2.37111072,23.0870855 2.22436933,20.3527227 C2.06861151,17.4508826 2.21738266,14.5038693 2.21738266,11.5987093 C2.21738266,10.3881349 2.1981533,9.17580411 2.21738266,7.96535824 C2.25530724,5.57788056 3.67627151,3.38054175 5.95956578,2.56605253 C6.99124233,2.19804802 8.0286236,2.22897745 9.09890844,2.22897745 L13.4364326,2.22897745 L24.3874038,2.22897745 C25.270822,2.22897745 26.155458,2.21548331 27.0388121,2.22897745 C29.2789044,2.26320545 31.3349076,3.48849488 32.2789197,5.56352964 C32.8623812,6.84600853 32.7807632,8.20249099 32.7807632,9.568912 L32.7807632,14.9735083 C32.7807632,18.1088398 33.4516543,22.0698629 30.8012715,24.3606325 C29.7629074,25.2581214 28.4667203,25.6997226 27.1060508,25.7303949 C26.3425461,25.7475985 28.1874845,25.5522895 28.2189434,26.8487673 C28.2504023,28.1452452 26.6207458,27.9641922 27.2817126,27.949303 C30.1591086,27.8844454 32.694338,26.362392 34.0590243,23.7775357 C34.8890703,22.2053398 34.9941267,20.5627387 34.9941267,18.8369237 C34.9941267,15.3052071 35.0073523,11.7732121 34.9941267,8.24151691 C34.9769058,3.63573095 31.5350212,0.0383642952 26.8998266,0.0100908568 C23.7298451,-0.00925074538 20.5591159,0.0100908568 17.3890703,0.0100908568 C14.276606,0.0100908568 11.1632017,-0.012613571 8.05082283,0.0100908568 C3.3738364,0.0441903371 0.0156849858,3.72209345 0.00399780779,8.32393826 C-0.00499725973,11.8735399 0.00399780779,15.4232701 0.00399780779,18.9728932 C0.00399780779,20.7496218 0.157704496,22.4524753 1.08097019,24.0327249 C2.50152851,26.4641764 5.10725642,27.8978539 7.89376168,27.949303 C14.0752319,28.063382 20.2686671,27.949303 26.4513124,27.949303 L27.2817126,27.949303 C28.7059031,27.949303 28.5326129,25.7303949 27.1060508,25.7303949 L9.65741453,25.7303949 Z"></path>
                        </g>
                    </g>
                    <rect id="Rectángulo" fill="#D8D8D8" mask="url(#mask-2)" x="26" y="26" width="3" height="2"></rect>
                </g>
                <path d="M18.9876697,12.9052971 C19.2340368,13.0640289 20.5143402,13.6591989 20.5802182,13.9312802 C20.6310493,14.1413165 19.7563582,14.5696461 19.5021542,14.7334298 C18.6169737,15.3037011 17.731769,15.8739936 16.8465885,16.4442649 C16.2867707,16.8049245 15.6025034,17.443354 14.9520673,17.6648102 C14.4297942,17.8426246 14.5187969,17.614185 14.5187969,17.1812704 L14.5187969,14.7386091 L14.5187969,11.4938619 C14.5187969,11.2228843 14.306261,9.96290021 14.8724688,10.2540854 C15.5039514,10.5788415 13.7433401,9.86306999 14.5187969,8.70091178 C15.2942537,7.53875358 16.8915747,8.74536256 16.1332645,8.35537453 C14.3031503,7.41419131 12.1403912,8.43817913 12.0208126,10.3020148 C11.9739843,11.0318882 12.0208126,11.776514 12.0208126,12.507194 L12.0208126,16.3076723 C12.0208126,17.1827775 11.8846439,18.1679632 12.4485128,18.93995 C14.3379702,21.5269303 17.54366,18.70614 19.2903417,17.5808593 C20.1390144,17.0340858 21.0126929,16.5081991 21.8409898,15.9375882 C23.3844674,14.8743314 23.388205,13.0946375 21.8409898,12.0325693 C19.9844472,10.7581724 18.0332112,9.57942217 16.1332645,8.35537453 C14.8345625,7.51868939 13.5869327,9.42589086 14.8724688,10.2540854 C16.2442105,11.1378297 17.6159521,12.0215528 18.9876697,12.9052971 Z" id="Fill-3" stroke="#D8D8D8" stroke-width="0.2" fill="#D8D8D8"></path>
            </g>
            <rect id="Rectángulo" stroke="#979797" stroke-width="0.5" x="0" y="0" width="54.5" height="54.5" rx="8"></rect>
        </g>
    </g>
</svg>