<?xml version="1.0" encoding="UTF-8"?>
<svg width="62px" height="58px" viewBox="0 0 62 58" version="1.1" xmlns="http://www.w3.org/2000/svg" xmlns:xlink="http://www.w3.org/1999/xlink">
    <title>logotipocec</title>
    <g id="Page-1" stroke="none" stroke-width="1" fill="none" fill-rule="evenodd">
        <g id="onepage_desktop" transform="translate(-283, -3710)" fill="#F3F3F3" fill-rule="nonzero">
            <g id="FORMACION" transform="translate(250, 3441)">
                <g id="Experiencia2" transform="translate(0, 259)">
                    <g id="logotipocec" transform="translate(33, 10)">
                        <path d="M0,24.6347206 C0.127160856,24.4381711 0.10293974,24.2109107 0.145326692,23.9959347 C0.775075691,20.9002796 2.64615685,18.9163579 5.51030374,17.8291933 C7.19367126,17.1904074 8.9557574,17 10.7420647,17 C12.8493017,17 14.9323176,17.2272604 16.9366149,17.9213259 C18.1900576,18.3574202 19.3466159,18.9654953 20.3578474,19.8376838 C20.4426213,19.9113898 20.5031741,19.9912381 20.6363903,19.880679 C22.3318683,18.4434106 24.3301104,17.7309185 26.4797343,17.4115256 C29.2651626,16.9938578 32.0687567,16.9078674 34.854185,17.3930991 C36.9795879,17.7616294 38.9778299,18.4556949 40.6854185,19.8499681 C40.8973533,20.021949 41.0911222,20.2184985 41.2909464,20.4089058 C41.3757203,20.4887541 41.4302178,20.5378915 41.5271023,20.415048 C43.1135853,18.4986901 45.2329329,17.6019329 47.6005469,17.2456869 C50.5494677,16.8034505 53.4802227,16.9508626 56.3443696,17.8291933 C58.0519582,18.351278 59.5718332,19.2111822 60.7465573,20.6177397 C61.327864,21.3118052 61.7154019,22.1164298 62,22.976334 L62,23.2220209 C61.8970603,23.2220209 61.8001758,23.2097366 61.6972361,23.2158787 C59.6929388,23.2773005 57.6886415,23.3387222 55.6843442,23.4124283 C55.4481883,23.4185704 55.3210274,23.3694331 55.1999219,23.1360305 C54.3400723,21.5022126 53.0866296,20.5194649 51.1489403,20.6545927 C49.2475828,20.7897205 48.1152456,21.6434825 47.624768,23.4124283 C47.2796172,24.6654315 47.188788,25.9491456 47.4128333,27.2390018 C47.6732103,28.7499763 48.5270046,29.7142974 50.0287137,30.0644013 C50.3920305,30.1503917 50.7614025,30.1995291 51.1368298,30.2179556 C53.4923332,30.3469412 54.8911026,29.0632271 55.4300225,27.4416935 C55.4784647,27.3065657 55.5450728,27.281997 55.6722336,27.2942814 C56.8772341,27.4048405 58.0822346,27.5215418 59.2872351,27.6136744 C60.1894716,27.6873804 61.0917082,27.8102239 62,27.8286504 L62,28.0129156 C61.8728391,28.1234747 61.848618,28.2954555 61.78201,28.4367255 C60.849497,30.3223725 59.372009,31.6367975 57.5554253,32.5949764 C56.1445454,33.3443215 54.6186151,33.6759988 53.0563532,33.8234109 C50.4283621,34.07524 47.8367028,33.9094013 45.3055962,33.1047767 C43.8341635,32.6379716 42.477781,31.9623326 41.4302178,30.7646089 C41.3454439,30.6663342 41.2909464,30.6663342 41.1880066,30.7400403 C38.8809454,32.5396968 36.1863463,33.2951841 33.3706417,33.7005675 C30.4096103,34.1305196 27.4728001,33.9401122 24.5723215,33.2153358 C23.106944,32.8529476 21.7929485,32.189593 20.6606114,31.1699923 C20.5576716,31.0717176 20.4850083,31.0102958 20.3396816,31.1392815 C18.6018166,32.7178198 16.5490771,33.5470132 14.2541264,33.8172688 C11.2628186,34.1796569 8.31389784,34.0322448 5.42552984,33.1109189 C4.25080574,32.7362464 3.15480027,32.2080195 2.21017678,31.3911106 C1.03545268,30.3776521 0.514698701,29.0079476 0.181658365,27.5399683 C0.121105577,27.2697127 0.139271413,26.9748884 0.00605527884,26.7230593 L0.00605527884,24.6347206 L0,24.6347206 Z M17.0092782,27.4969731 C17.3544291,27.4969731 17.6935248,27.4908309 18.0386757,27.4969731 C18.2445551,27.5031153 18.3232738,27.4724044 18.2566657,27.2267175 C17.9539017,26.0597047 17.9417912,24.8804075 18.2324446,23.7072525 C18.2808868,23.5045609 18.262721,23.4431391 18.0447309,23.4492813 C17.3180975,23.4677078 16.591464,23.4492813 15.8648305,23.47385 C15.6407852,23.4799922 15.5378455,23.4124283 15.4288505,23.2097366 C14.5266139,21.5144969 13.182342,20.5808867 11.2204317,20.7098723 C9.2403555,20.8388579 8.0959078,21.7786103 7.72653579,23.688826 C7.47826936,24.9725401 7.48432464,26.2746807 7.76892275,27.5583948 C8.08985252,29.0140897 8.98603379,29.8924204 10.445356,30.1688182 C10.9418889,30.2609508 11.444477,30.303946 11.9470651,30.2793773 C13.703096,30.1811025 14.9686493,29.3703357 15.63473,27.6873804 C15.6952827,27.5399683 15.7679461,27.4908309 15.9193281,27.4908309 C16.2826448,27.5031153 16.6459615,27.4908309 17.0092782,27.4908309 L17.0092782,27.4969731 Z M32.9407169,26.2378277 C30.7608165,26.2378277 28.5809161,26.2378277 26.4010157,26.2378277 C26.2617443,26.2378277 26.1043071,26.1825481 26.1043071,26.4466616 C26.1224729,28.4490098 27.4183026,29.8309987 29.1258912,30.162676 C30.2340072,30.3776521 31.3542338,30.3837942 32.4684051,30.303946 C33.2616466,30.2486664 34.0306671,30.0951121 34.7391347,29.7142974 C35.3688837,29.3826201 35.8775271,28.915815 36.0591855,28.1971808 C36.1257935,27.9453517 36.2287333,27.9330673 36.4346128,27.9514939 C37.5851157,28.0804795 38.741674,28.1971808 39.892177,28.3323086 C40.1162223,28.3568773 40.1828304,28.3323086 40.110167,28.0927638 C39.9527298,27.5829635 39.84979,27.0608788 39.8195136,26.5265098 C39.8074031,26.2685386 39.7044633,26.2194012 39.4683075,26.2194012 C37.2884071,26.2316855 35.1085067,26.2194012 32.9286063,26.2194012 L32.9407169,26.2378277 Z M31.0454146,23.47385 C32.5350132,23.47385 34.0306671,23.4677078 35.5202657,23.4799922 C35.8048638,23.4799922 35.8351402,23.3878596 35.7745874,23.1483148 C35.5020998,22.0365816 34.8844614,21.1951039 33.8792851,20.6545927 C33.0860436,20.2246406 32.226194,20.0833707 31.336068,20.0710863 C30.1976756,20.058802 29.077449,20.1877876 28.0541068,20.7528675 C27.0973728,21.2810943 26.4918449,22.0795768 26.3101865,23.19131 C26.2677996,23.4308548 26.3283524,23.4861343 26.558453,23.4799922 C28.0480516,23.4677078 29.5437054,23.4799922 31.033304,23.4799922 L31.0454146,23.47385 Z" id="Shape"></path>
                        <path d="M61.9938538,51.1789264 C61.4652847,51.9652056 60.3651233,52.2315259 59.5292465,51.7813177 C59.3141312,51.6671804 59.1543312,51.4959745 59.0375543,51.2740408 C58.9699466,51.1472216 58.9883851,51.083812 59.1358928,51.0647891 C59.3510081,51.0394253 59.5599773,51.0077205 59.7750927,50.9696747 C59.867285,50.9569928 59.9226003,50.9696747 59.9840619,51.0521072 C60.150008,51.2867228 60.3958541,51.3057456 60.6478464,51.2867228 C60.752331,51.2803818 60.8936925,51.2740408 60.8936925,51.1155168 C60.8936925,50.9823567 60.7769156,50.9569928 60.6785771,50.931629 C60.4020003,50.8618784 60.1131311,50.8174917 59.8427003,50.7350592 C59.3817389,50.601899 59.1420389,50.3292377 59.1358928,49.9678029 C59.1297466,49.5936863 59.4001773,49.2449334 59.8365542,49.1054323 C60.2790772,48.9659312 60.7277464,48.9659312 61.1702694,49.0990913 C61.3915309,49.1625009 61.5759155,49.2893202 61.7295693,49.473208 C61.8524923,49.6190501 61.9078077,49.7395284 61.6496693,49.7839151 C61.5083078,49.8092789 61.3730924,49.8536657 61.2317309,49.8917114 C61.114954,49.9234162 61.0227617,49.9234162 60.9305694,49.8156199 C60.8015002,49.6634368 60.6109695,49.644414 60.4204387,49.6570959 C60.3159541,49.6634368 60.1991772,49.6888007 60.1807388,49.8092789 C60.1623003,49.9487801 60.2913695,49.9741439 60.3835618,49.9931668 C60.5740925,50.0375535 60.7646233,50.0755993 60.955154,50.1073041 C61.4222616,50.1833956 61.8094693,50.3672835 62,50.8491965 L62,51.1662445 L61.9938538,51.1789264 Z" id="Path"></path>
                        <path d="M32.6435811,50.1398253 C32.6435811,50.6496936 32.6385135,51.159562 32.6435811,51.6694303 C32.6435811,51.8824133 32.6131757,51.9727697 32.4256757,51.9663157 C32,51.9534076 32,51.9663157 32,51.4241772 C32,50.7142339 32.0050676,50.0042907 32,49.3008014 C32,49.0942725 32.035473,49.0103701 32.2077703,49.0232782 C32.5016892,49.0490943 32.8462838,48.9200137 33.0743243,49.0878185 C33.2922297,49.2491692 33.277027,49.7396755 33.3834459,50.075285 C33.4239865,50.2043656 33.4290541,50.3463542 33.5253378,50.4947969 C33.6266892,50.075285 33.7331081,49.6880432 33.8192568,49.2943474 C33.8597973,49.1007265 33.9256757,49.0103701 34.097973,49.0232782 C34.3310811,49.0426403 34.5692568,49.0361862 34.8074324,49.0232782 C34.9442568,49.0232782 35,49.0620024 35,49.2556232 C34.9949324,50.081739 34.9949324,50.9078548 35,51.7339706 C35,51.9211375 34.9493243,51.9663157 34.8074324,51.9663157 C34.2094595,51.9792237 34.2094595,51.9856778 34.2094595,51.2241023 L34.2094595,50.1398253 C34.1942568,50.1398253 34.1739865,50.1269172 34.1587838,50.1269172 C34.0371622,50.6238775 33.9155405,51.1143838 33.7989865,51.6113441 C33.722973,51.9340455 33.4695946,52.0760342 33.2212838,51.9598616 C33.1300676,51.9146834 33.1351351,51.811419 33.1097973,51.7210626 C32.972973,51.1918321 32.8412162,50.6626017 32.7043919,50.1333713 C32.6841216,50.1333713 32.6638514,50.1333713 32.6435811,50.1398253 Z" id="Path"></path>
                        <path d="M42.0065865,56.5106002 C42.0065865,56.0950202 42.0065865,55.6728438 42.0065865,55.2572638 C42.0065865,55.0857546 42.0312658,55 42.2225302,55 C42.7901534,55.013193 43.3516069,55 43.9192301,55.0065965 C44.1598531,55.0065965 44.3881363,55.0659651 44.5979101,55.1912987 C45.1161749,55.5079311 45.1408541,56.2401434 44.6287592,56.5633723 C44.4313251,56.6887059 44.4313251,56.781057 44.5300421,56.9657592 C44.6781178,57.2428125 44.7953443,57.5330589 44.9310803,57.8167087 C44.9927785,57.9420423 44.9742691,57.9948144 44.8323632,57.9948144 C44.5547214,57.9948144 44.2770796,57.9882179 43.9994378,57.9948144 C43.8698716,57.9948144 43.8205131,57.9222528 43.7773243,57.8167087 C43.6662676,57.5462519 43.5428712,57.2823916 43.4318145,57.0053383 C43.3762861,56.8668116 43.2899087,56.8338291 43.1665123,56.8470221 C42.9937574,56.8602151 43.0616254,56.9987418 43.043116,57.0910929 C43.043116,57.1108824 43.043116,57.1372684 43.043116,57.1570579 C43.043116,58.0212004 43.043116,58.0146039 42.2287,57.9948144 C42.0559451,57.9948144 41.9942469,57.9420423 42.0004167,57.7507436 C42.0127563,57.3351636 42.0004167,56.9129872 42.0004167,56.4974072 L42.0065865,56.5106002 Z M43.3947956,56.2005644 C43.4564938,56.2005644 43.518192,56.2005644 43.5798901,56.2005644 C43.7403054,56.1807748 43.9007207,56.1345993 43.9007207,55.923511 C43.9007207,55.7190193 43.7464752,55.6662473 43.5798901,55.6596507 C43.4564938,55.6596507 43.3330974,55.6596507 43.2158709,55.6530542 C43.1048142,55.6530542 43.0554556,55.6860368 43.043116,55.8179669 C43.0060971,56.1873713 43.0246065,56.2071609 43.4009654,56.2005644 L43.3947956,56.2005644 Z" id="Shape"></path>
                        <path d="M51,50.5047439 C51,50.0821639 51,49.6595838 51,49.2370038 C51,49.0809743 51.024948,48.9964583 51.1995842,49.0029595 C51.8419958,49.0224632 52.4844075,48.9639521 53.1268191,49.0419669 C53.6694387,49.1134804 54,49.4320408 54,49.8806257 C54,50.1731811 53.9064449,50.4267291 53.6444906,50.5502525 C53.4074844,50.6542722 53.4324324,50.7777956 53.5384615,50.9663313 C53.6756757,51.2068768 53.7754678,51.4669261 53.9064449,51.7204741 C53.993763,51.8895061 54.012474,51.9740221 53.7692308,51.9805233 C52.8711019,51.9935258 52.8711019,52 52.4906445,51.1353633 C52.4594595,51.0638498 52.4345114,50.9988374 52.3970894,50.9338251 C52.3347193,50.8233042 52.2349272,50.8558104 52.1476091,50.8623116 C52.016632,50.8688128 52.0602911,50.985835 52.0540541,51.0638498 C52.0540541,51.0963559 52.0540541,51.1288621 52.0540541,51.1613682 C52.047817,52.0325332 52.0540541,52.0260319 51.2058212,51.9870246 C51.031185,51.9805233 51,51.915511 51,51.7529802 C51.006237,51.3434027 51,50.9338251 51,50.5177463 L51,50.5047439 Z M52.3596674,50.199186 C52.5717256,50.1796823 52.8898129,50.2511959 52.8960499,49.9326356 C52.9022869,49.5815691 52.5717256,49.6725863 52.3471933,49.6400802 C52.1351351,49.6140752 52.04158,49.6660851 52.035343,49.9261343 C52.035343,50.199186 52.1476091,50.2316922 52.3534304,50.199186 L52.3596674,50.199186 Z" id="Shape"></path>
                        <path d="M41.9938017,51.9604025 C41.6280992,51.9604025 41.3181818,51.9539229 41.0082645,51.9604025 C40.8657025,51.9604025 40.8099174,51.8956058 40.7603306,51.7724921 C40.661157,51.5327444 40.5495868,51.3059561 40.4566116,51.0662083 C40.3946281,50.9106963 40.3202479,50.800542 40.1404959,50.8458996 C39.9669421,50.8912573 40.072314,51.0402897 40.0413223,51.1374847 C40.0413223,51.150444 40.0413223,51.1569237 40.0413223,51.169883 C40.0413223,52.0575975 40.0413223,52.0511179 39.1673554,51.9604025 C39.0247934,51.9474432 39,51.8891262 39,51.7595328 C39,50.9042167 39,50.0553802 39,49.200064 C39,49.063991 39.0371901,48.9991943 39.1735537,49.005674 C39.8243802,49.025113 40.4752066,48.9603163 41.1260331,49.044552 C41.6528926,49.1158283 41.9690083,49.4268524 41.981405,49.8609901 C41.9938017,50.1849735 41.8698347,50.4312009 41.5909091,50.5737536 C41.4297521,50.6515096 41.411157,50.7357453 41.4917355,50.8912573 C41.6590909,51.2217204 41.8140496,51.5651428 42,51.9539229 L41.9938017,51.9604025 Z M40.4256198,50.1979329 C40.4442149,50.1979329 40.5247934,50.1979329 40.6053719,50.1849735 C40.7541322,50.1590548 40.8966942,50.1007378 40.8904959,49.9128275 C40.8904959,49.7249171 40.7417355,49.6666001 40.5929752,49.6536408 C40.4628099,49.6406814 40.3264463,49.6471611 40.196281,49.6406814 C40.1219008,49.6406814 40.0661157,49.6536408 40.0413223,49.7508358 C39.9607438,50.0683395 40.053719,50.2044125 40.4256198,50.1979329 L40.4256198,50.1979329 Z" id="Shape"></path>
                        <path d="M43,43.5153297 C43,43.1021474 43.0062625,42.6824068 43,42.2692245 C43,42.085588 43.02505,41.9937697 43.2317127,42.0003282 C43.7640257,42.0134451 44.2963387,42.0003282 44.8286517,42.0068866 C45.0791519,42.0068866 45.3296521,42.0527958 45.5551023,42.1708478 C45.8306526,42.3151337 45.9934778,42.5512378 45.9997403,42.8726018 C46.0060028,43.1742904 45.8995402,43.4431867 45.6239899,43.5677972 C45.4173272,43.666174 45.4361147,43.7711091 45.5237898,43.9416288 C45.6678275,44.2170836 45.7868151,44.5122138 45.9308527,44.7876686 C46.0060028,44.9319544 45.9684277,44.9909805 45.8181276,44.9778636 C45.8056026,44.9778636 45.7993401,44.9778636 45.7868151,44.9778636 C45.1856145,45.012842 44.7597641,44.7439456 44.5092639,44.1711745 C44.4779514,44.0990315 44.4403763,44.0334471 44.4153263,43.9613041 C44.3714888,43.8235767 44.2650262,43.8366936 44.1585636,43.8432521 C44.0082634,43.8498105 44.0458385,43.9678626 44.039576,44.0596808 C44.039576,44.2892265 44.0333135,44.5187722 44.039576,44.7483179 C44.0458385,44.9122791 44.0020009,44.9713051 43.8329133,44.984422 C43,45.0303312 43,45.0303312 43,44.164616 C43,43.9481872 43,43.7252 43,43.5087712 L43,43.5153297 Z M44.3088637,43.2070826 C44.4591638,43.2005242 44.5405764,43.2070826 44.621989,43.1874073 C44.7660266,43.1611735 44.8912767,43.1087059 44.8975392,42.9316278 C44.8975392,42.7348743 44.7660266,42.6758483 44.609464,42.6627314 C44.4967389,42.656173 44.3777513,42.6627314 44.2650262,42.6496145 C44.089676,42.6299392 44.039576,42.7020821 44.0270509,42.8857187 C44.0020009,43.1874073 44.1335135,43.2464333 44.3088637,43.2070826 Z" id="Shape"></path>
                        <path d="M49.8891258,56.2882693 C49.8891258,56.8207045 49.8827292,57.2817154 49.8891258,57.7427264 C49.8891258,57.9310266 49.8315565,57.9764784 49.652452,57.9829715 C49,57.9959577 49,58.0024508 49,57.3531397 C49,56.6713629 49,55.9895862 49,55.3078094 C49,55.1130161 49.0383795,55.048085 49.2558635,55.0156194 C49.8123667,54.9441952 50.2089552,55.1130161 50.4904051,55.6194788 C50.6567164,55.9181619 50.8933902,56.1713933 51.1172708,56.4700764 C51.1172708,56.0480242 51.1236674,55.6584375 51.1172708,55.2688508 C51.1172708,55.0935367 51.1556503,55.0286056 51.347548,55.0221125 C52,55.0091263 52,55.0026332 52,55.6779168 C52,56.3596935 51.9936034,57.0414703 52,57.723247 C52,57.9180404 51.9488273,57.9634922 51.750533,57.9894646 C51.3027719,58.0414095 50.989339,57.9050542 50.7526652,57.4959881 C50.5095949,57.0934152 50.2025586,56.7298009 49.8827292,56.2882693 L49.8891258,56.2882693 Z" id="Path"></path>
                        <path d="M21.0084718,50.4853123 C21.0084718,50.0713707 21.0084718,49.6508587 21.0084718,49.2369171 C21.0084718,49.0726546 21.0457041,48.9938086 21.2132496,49.0003791 C21.6972698,49.0200906 22.18129,48.9806676 22.6653102,49.0332316 C23.4409836,49.1252186 23.9808523,49.6968522 23.9994685,50.4524598 C24.0180846,51.2080673 23.5464752,51.7994124 22.7770072,51.9439634 C22.2371385,52.0490915 21.684859,51.9702454 21.1387849,51.9899569 C20.9712395,51.9899569 21.0022664,51.8585469 21.0022664,51.7599894 C21.0022664,51.3329069 21.0022664,50.9058243 21.0022664,50.4787418 L21.0084718,50.4853123 Z M22.0447715,50.5050238 C22.0447715,50.7021388 22.0447715,50.8992538 22.0447715,51.0963688 C22.0447715,51.2277789 22.069593,51.2934839 22.2123169,51.3000544 C22.5846402,51.3263364 22.8638826,51.0635163 22.9073203,50.6298633 C22.9569634,50.1305052 22.7459802,49.7494162 22.3798624,49.6968522 C22.1440577,49.6639997 22.0013338,49.7099932 22.0385661,50.0122362 C22.0571822,50.1699282 22.0385661,50.3407612 22.0385661,50.5050238 L22.0447715,50.5050238 Z" id="Shape"></path>
                        <path d="M59.1252691,43.4759545 C59.1252691,43.0344341 59.1317485,42.6448572 59.1252691,42.2617733 C59.1252691,42.0734778 59.1900639,42.0280272 59.3650098,42.0280272 C60.0064782,42.0150413 60,42.0085483 60,42.6383643 C60,43.3396026 60,44.040841 60,44.7420793 C60,44.9173889 59.9546424,44.9693325 59.7667375,44.9888113 C59.313174,45.0407549 58.9956795,44.9173889 58.7559388,44.5018403 C58.529157,44.1057705 58.218142,43.7551513 57.8876886,43.3006449 C57.8876886,43.8265737 57.8747296,44.2616012 57.8876886,44.6901358 C57.8941681,44.9173889 57.8228938,44.9823184 57.5961121,44.9823184 C57,44.9758254 57,44.9823184 57,44.3914602 C57,43.6902218 57,42.9889834 57,42.2877451 C57,42.0994496 57.0388769,42.0410131 57.2462202,42.0150413 C57.7904964,41.9501118 58.1922241,42.0864637 58.4708417,42.5994066 C58.6328287,42.9045751 58.8855283,43.164293 59.1187896,43.4694616 L59.1252691,43.4759545 Z" id="Path"></path>
                        <path d="M28.8812095,43.4161549 C28.8812095,43.8595992 28.87473,44.3030435 28.8812095,44.7464879 C28.8812095,44.9225614 28.8358531,44.9877738 28.6479482,44.994295 C28,45.0138587 28,45.02038 28,44.3552135 C28,43.6704832 28.012959,42.985753 28,42.307544 C28,42.0727794 28.0777538,42.0401732 28.2915767,42.0140882 C28.8164147,41.9488758 29.1922246,42.1053856 29.4578834,42.5814361 C29.6263499,42.8879344 29.8790497,43.1553053 30.1187905,43.474846 C30.1187905,43.0705291 30.1317495,42.7053397 30.1187905,42.3401502 C30.1058315,42.0858219 30.1771058,42.007567 30.4362851,42.0140882 C31,42.0336519 31,42.0140882 31,42.6009998 C31,43.3052938 30.9935205,44.0095877 31,44.7138817 C31,44.9356039 30.9287257,44.9682101 30.7278618,44.9877738 C30.2807775,45.0399437 29.9827214,44.8899552 29.74946,44.4921595 C29.5161987,44.1008851 29.2181425,43.7422169 28.9460043,43.3770274 C28.9265659,43.3835487 28.9071274,43.3965912 28.8812095,43.4031124 L28.8812095,43.4161549 Z M28.9023326,43.304427 L28.8823326,43.334427 L28.9023326,43.334427 C28.9023326,43.334427 28.9023326,43.304427 28.9023326,43.304427 Z" id="Shape"></path>
                        <path d="M21.0002199,56.5135342 C21.0002199,56.085846 21.0002199,55.6581578 21.0002199,55.2304696 C21.0002199,55.1186127 20.9878522,55.000176 21.1486322,55.0067558 C21.7113621,55.0330751 22.2802758,54.9475374 22.8430058,55.0593943 C23.5232287,55.2041503 23.9808333,55.7502752 23.9993848,56.4345764 C24.0179364,57.1583564 23.6159864,57.7242207 22.9172119,57.9084556 C22.3297466,58.0663713 21.7299136,57.967674 21.1362645,57.9874135 C20.9754845,57.9874135 21.0064037,57.8558171 21.0064037,57.75054 C21.0064037,57.3360115 21.0064037,56.9214829 21.0064037,56.5003745 L21.0002199,56.5135342 Z M22.9110281,56.4937947 C22.9110281,55.9937285 22.632755,55.6647376 22.2184374,55.6844771 C22.0947605,55.6844771 22.032922,55.723956 22.032922,55.868712 C22.032922,56.2832405 22.032922,56.6977691 22.032922,57.1122976 C22.032922,57.2570536 22.0823928,57.2965325 22.2122535,57.3031124 C22.6203873,57.316272 22.9048442,56.9938609 22.9110281,56.4937947 Z" id="Shape"></path>
                        <path d="M36.0001836,43.4903487 C36.0001836,43.0760103 36.0001836,42.6616719 36.0001836,42.2407567 C36.0001836,42.1157975 35.9876866,41.9974151 36.1688939,42.0039919 C36.7062674,42.0302991 37.2498895,41.9513775 37.787263,42.0566063 C38.530838,42.2012959 39.0182233,42.7997847 38.9994777,43.5298095 C38.9807321,44.2795647 38.4558556,44.8648999 37.6997836,44.9635519 C37.1936527,45.0293199 36.6812733,44.9832823 36.1751424,44.9964359 C36.0001836,44.9964359 36.0001836,44.8977839 36.0001836,44.7662479 C36.0001836,44.3387559 36.0001836,43.9112639 36.0001836,43.4837719 L36.0001836,43.4903487 Z M37.031191,43.4837719 C37.031191,43.6942295 37.0374395,43.8981103 37.031191,44.1085679 C37.0249424,44.2664111 37.0874277,44.3124487 37.2311439,44.3124487 C37.6123042,44.3124487 37.8747424,44.0296463 37.8997365,43.5692703 C37.9247306,43.0628567 37.7122806,42.7471703 37.3311204,42.7011327 C37.1124218,42.6748255 36.9999483,42.7340167 37.031191,42.9970887 C37.0499365,43.1549319 37.031191,43.3259287 37.031191,43.4903487 L37.031191,43.4837719 Z" id="Shape"></path>
                        <path d="M40.4925786,57.9942999 C39.4218393,57.9942999 38.774815,57.0901243 39.0725607,56.0256338 C39.1412712,55.7755427 39.2672406,55.5639271 39.4447428,55.3907871 C40.000153,54.8521292 41.0823441,54.871367 41.609125,55.4420878 C42.0271141,55.8909693 42.0843729,56.4552775 41.9011448,57.0388235 C41.7121908,57.6480199 41.2712981,57.9173488 40.7216138,57.9942999 C40.6471773,58.0071251 40.567015,57.9942999 40.4925786,57.9942999 L40.4925786,57.9942999 Z M40.9563748,56.4937531 C40.9563748,56.3206131 40.9391972,56.1474731 40.8876643,55.9871582 C40.8304055,55.801193 40.7158879,55.6857664 40.5326598,55.6793538 C40.3494317,55.6793538 40.2120106,55.7563049 40.1433,55.9422701 C40.0058789,56.3142005 40.000153,56.6925435 40.1318483,57.0644739 C40.2005588,57.2504391 40.3379799,57.3402154 40.5154821,57.3338028 C40.7044361,57.3209776 40.8418572,57.2119635 40.8876643,57.000348 C40.9220195,56.8336205 40.9334713,56.6668931 40.9563748,56.4937531 L40.9563748,56.4937531 Z" id="Shape"></path>
                        <path d="M58.5133649,49 C59.5210989,49 60.1234227,49.7231896 59.9786333,50.7663745 C59.9728418,50.8175738 59.9612586,50.8687731 59.9496755,50.9199723 C59.7353872,51.7647601 58.8492763,52.2063538 57.9573738,51.9055581 C57.1986775,51.6495618 56.8280167,50.8431734 57.0770544,50.0047855 C57.2623848,49.3647947 57.7836265,49.0063999 58.5075734,49.0063999 L58.5133649,49 Z M58.9535246,50.5871771 C58.9535246,50.3247809 58.9535246,50.1583833 58.907192,49.9919857 C58.8492763,49.8063884 58.7334448,49.6783902 58.553906,49.6655904 C58.362784,49.6527906 58.2122031,49.7551891 58.1484957,49.9535862 C58.0268727,50.3119811 58.0210811,50.6831757 58.1427042,51.0415706 C58.2064115,51.2399677 58.3569924,51.3359663 58.553906,51.3167666 C58.7392364,51.3039668 58.8608594,51.1951683 58.9014004,50.9967712 C58.9361499,50.8303736 58.947733,50.663976 58.9593162,50.5871771 L58.9535246,50.5871771 Z" id="Shape"></path>
                        <path d="M55.4787286,44.9999143 C54.5109604,44.9999143 53.9163076,44.3098705 54.0095864,43.3131405 C54.0212463,43.2109118 54.0387361,43.1022938 54.0737157,43.000065 C54.3244026,42.175846 55.2571913,41.7797097 56.1258507,42.1247316 C56.848762,42.4122499 57.1810679,43.236469 56.9012313,44.060688 C56.7030137,44.6548924 56.1666602,45.0063036 55.4787286,44.9999143 Z M55.9451229,43.3962013 C55.9451229,43.345087 55.939293,43.2045225 55.9101434,43.0703473 C55.8635039,42.8595006 55.7643951,42.6997682 55.5428578,42.6806003 C55.3154906,42.6678217 55.1755723,42.7956076 55.1114431,43.0256222 C55.0181642,43.3706442 55.0065043,43.7156661 55.1289328,44.060688 C55.1930621,44.2459776 55.3388103,44.341817 55.5195381,44.3290384 C55.7002659,44.3162598 55.8285243,44.2140311 55.8809937,44.0159629 C55.9276331,43.843452 55.939293,43.6581624 55.9451229,43.389812 L55.9451229,43.3962013 Z" id="Shape"></path>
                        <path d="M26.4252032,44.9933434 C25.5191668,44.9933434 24.9112456,44.3015827 25.0106173,43.3023728 C25.0223081,43.206295 25.0398443,43.1102171 25.0632259,43.0205444 C25.2385878,42.3992409 25.7354464,42.034145 26.436894,42.002119 C27.1032691,41.9700931 27.6644271,42.303163 27.8865522,42.8604146 C28.1145226,43.4432871 27.9917693,44.1606685 27.5825916,44.5770059 C27.2727856,44.8908603 26.8928349,45.0061537 26.4193578,44.9997485 L26.4252032,44.9933434 Z M26.9571342,43.4689078 C26.939598,43.3151832 26.9337526,43.1678638 26.8986802,43.0205444 C26.8519171,42.8155783 26.7408546,42.6810693 26.5362657,42.6682589 C26.319986,42.6554485 26.1796965,42.7771472 26.1153972,42.9885185 C26.0160255,43.3215884 26.0101801,43.6610636 26.1095518,43.9941335 C26.1738511,44.21191 26.3141406,44.3336087 26.5245749,44.3143931 C26.717473,44.3015827 26.8519171,44.1862893 26.8928349,43.9685127 C26.9220618,43.8019778 26.9337526,43.6290376 26.9571342,43.4625026 L26.9571342,43.4689078 Z" id="Shape"></path>
                        <path d="M46.5194512,49 C47.012072,49 47.4610429,49.0897157 47.7852997,49.506253 C47.9037782,49.6536431 47.9037782,49.7433588 47.6979998,49.7754001 C47.5545786,49.8010332 47.417393,49.8458911 47.2739717,49.8843406 C47.1492576,49.9227902 47.0432506,49.9291985 46.9434792,49.8074415 C46.8187651,49.6600514 46.6379296,49.6408266 46.4570941,49.6472348 C46.3448514,49.6536431 46.2076658,49.6664596 46.1951944,49.8138497 C46.182723,49.9484233 46.3136728,49.9740564 46.4134441,49.9932812 C46.6566367,50.0509556 46.8998293,50.0958134 47.1430219,50.1470795 C47.2427932,50.1663043 47.3488002,50.1919374 47.4423358,50.230387 C47.7541212,50.3585523 47.9723709,50.5764333 47.9973138,50.9352962 C48.0222566,51.2749343 47.8725996,51.5440814 47.5857571,51.7042881 C46.8873579,52.0951923 46.1764873,52.088784 45.4656166,51.7427377 C45.3845525,51.7042881 45.3159597,51.6337972 45.2473669,51.5697145 C45.1226528,51.4479574 44.9729958,51.2941591 45.0041743,51.146769 C45.0353529,50.9993789 45.2598383,51.0634615 45.3907882,51.0378285 C45.6589236,50.9801541 45.9083519,50.9096631 46.1453087,51.1916268 C46.2824943,51.3582417 46.5506297,51.3326087 46.7688794,51.2749343 C46.8437079,51.2557095 46.9123007,51.2300764 46.9247721,51.1403607 C46.9372435,51.0378285 46.8624151,50.9865623 46.7813509,50.9609293 C46.650401,50.9224797 46.5194512,50.8968466 46.3885013,50.8712135 C46.1203659,50.8199474 45.8584662,50.7686813 45.6090379,50.6533325 C45.0790028,50.4034102 44.9792315,49.7754001 45.4032596,49.3652711 C45.7212806,49.0576744 46.1203659,49.0128165 46.5256869,49.0064083 L46.5194512,49 Z" id="Path"></path>
                        <path d="M24,50.4969065 C24,50.0721579 24,49.6474093 24,49.2226607 C24,49.0527613 24.0583836,48.9939499 24.2481305,49.0004845 C25.0873952,49.0070191 25.92666,49.0070191 26.7586268,49.0004845 C27.1089286,49.0004845 26.9702675,49.2291953 26.9848634,49.3729564 C26.9921613,49.5167174 27.0724388,49.7127552 26.7513288,49.7062206 C26.3134516,49.6931515 25.8755743,49.7062206 25.437697,49.699686 C25.2479502,49.699686 25.1895666,49.7584974 25.1895666,49.9283968 C25.1895666,50.0982963 25.277142,50.1244346 25.437697,50.1244346 C25.7515091,50.1244346 26.0726191,50.1375038 26.3864311,50.1244346 C26.722137,50.1048309 26.6418595,50.3074033 26.6418595,50.4707681 C26.6418595,50.6406675 26.7002431,50.8301708 26.3718352,50.8040324 C26.0580232,50.7844286 25.7369132,50.8040324 25.4231011,50.7974978 C25.2114604,50.7909632 25.1895666,50.8824475 25.1895666,51.0327432 C25.1895666,51.1765042 25.1895666,51.2810577 25.4158032,51.2810577 C25.8536804,51.2679885 26.2915577,51.2941269 26.729435,51.2745231 C27.0651409,51.2614539 26.9994593,51.4574918 26.9848634,51.6208566 C26.9702675,51.7776868 27.1089286,52.0063976 26.7367329,51.999863 C25.9120641,51.9867938 25.0873952,51.9867938 24.2627264,51.999863 C24.0437877,51.999863 24,51.9279825 24,51.7515485 C24.0145959,51.3398691 24,50.9281897 24,50.5099757 L24,50.4969065 Z" id="Path"></path>
                        <path d="M24,56.4769582 C24,56.0634099 24,55.6432973 24,55.229749 C24,55.0590783 24.0507052,55 24.2462825,55 C25.0792967,55.0065643 25.912311,55.0131285 26.7453253,55 C27.1219926,55 26.9626333,55.2428776 26.9843642,55.3938555 C27.006095,55.557962 27.0278258,55.7220684 26.7308381,55.7089399 C26.3107091,55.6892471 25.8833366,55.7089399 25.4632077,55.7023757 C25.311092,55.7023757 25.2169252,55.7220684 25.2169252,55.8927392 C25.2169252,56.0568456 25.2676304,56.1290525 25.4632077,56.1224882 C25.7891698,56.1093597 26.1151319,56.1224882 26.441094,56.1224882 C26.7380817,56.1093597 26.658402,56.3062874 26.6511584,56.4375726 C26.6439148,56.5688578 26.7742997,56.7986068 26.4483376,56.7920426 C26.1223755,56.7920426 25.7964134,56.8051711 25.4704513,56.7920426 C25.2458996,56.7789141 25.2241688,56.8839422 25.2169252,57.0480487 C25.2169252,57.2187194 25.274874,57.2777977 25.4632077,57.2712334 C25.8833366,57.2581049 26.3107091,57.284362 26.7308381,57.2646692 C27.0640438,57.2515407 26.9988514,57.4484684 26.9843642,57.6125749 C26.9698769,57.7701171 27.114749,58.0064304 26.7380817,57.9998661 C25.9050674,57.9867376 25.0720531,57.9933019 24.2390389,57.9998661 C24.036218,57.9998661 24,57.9276593 24,57.7635528 C24.0072436,57.336876 24,56.9101992 24,56.4835224 L24,56.4769582 Z" id="Path"></path>
                        <path d="M40,43.5033756 C40,43.0916843 40.0073422,42.679993 40,42.2617668 C40,42.0722581 40.0440533,41.9938407 40.2863467,42.0003755 C41.1013335,42.0134451 41.9236626,42.0134451 42.7386494,42.0003755 C43.0910762,42.0003755 42.9809428,42.2029538 42.9809428,42.3532538 C42.9809428,42.5035538 43.0837339,42.7192016 42.7386494,42.7061321 C42.3128005,42.6930625 41.8869515,42.7061321 41.4537603,42.7061321 C41.2628625,42.7061321 41.1967825,42.7518756 41.2041247,42.9283147 C41.2041247,43.0916843 41.2848891,43.1243582 41.4464181,43.1243582 C41.7768181,43.1178234 42.1072182,43.1243582 42.4376183,43.1243582 C42.7386494,43.1178234 42.657885,43.3073321 42.6505427,43.4380278 C42.6432005,43.5687234 42.7753605,43.790906 42.4449605,43.790906 C42.1145604,43.790906 41.7841603,43.7974408 41.4537603,43.790906 C41.2555202,43.7843713 41.1967825,43.8497191 41.2041247,44.0130887 C41.2041247,44.1699234 41.2041247,44.2875495 41.4464181,44.2810148 C41.872267,44.2679452 42.3054582,44.2875495 42.7313072,44.27448 C43.1057606,44.2614104 42.9736006,44.4966626 42.988285,44.6534974 C42.9956273,44.8103322 43.0690495,45.0063757 42.7313072,44.9998409 C41.9163204,44.9802365 41.0939913,44.9867713 40.2790045,44.9998409 C40.0734222,44.9998409 40,44.9540974 40.0073422,44.7645887 C40.0220267,44.3528974 40.0073422,43.941206 40.0073422,43.5229799 L40,43.5033756 Z" id="Path"></path>
                        <path d="M28.0078323,50.4905249 C28.0078323,50.0637226 28.0078323,49.6369203 28.0078323,49.2101181 C28.0078323,49.0525295 28.0589015,49 28.2339959,49 C29.0729901,49 29.9119842,49.0065662 30.7509783,49 C30.977142,49 31.0063244,49.0919266 30.9990288,49.2560814 C30.9844376,49.8010751 31.0428024,49.6894499 30.5248147,49.7025822 C30.1746259,49.7025822 29.8171414,49.7091484 29.4669525,49.7025822 C29.2772669,49.7025822 29.2116065,49.7551118 29.2116065,49.9258327 C29.2116065,50.0899874 29.2845625,50.1293845 29.4523613,50.1228183 C29.7660722,50.1162522 30.0870786,50.1359507 30.4007895,50.1228183 C30.7509783,50.1031198 30.6342487,50.3329364 30.6415443,50.4773926 C30.6488399,50.6284149 30.7145003,50.8188344 30.4007895,50.7991358 C30.0870786,50.7794373 29.7660722,50.7991358 29.4523613,50.7925696 C29.2480845,50.7860034 29.2116065,50.8647977 29.2116065,51.0223863 C29.2116065,51.1931072 29.2334933,51.2850338 29.4669525,51.2784676 C29.8828018,51.2653353 30.2913555,51.2784676 30.7072047,51.2719014 C30.9260728,51.2653353 31.0063244,51.324431 30.9990288,51.5279828 C30.977142,52.1058075 31.050098,51.9876161 30.4737455,51.9941823 C29.7441854,52.0007484 29.0146253,51.9941823 28.2850651,51.9941823 C28.0589015,51.9941823 27.9932411,51.9350865 28.0005367,51.7315347 C28.0151279,51.3178648 28.0005367,50.8976287 28.0005367,50.4839587 L28.0078323,50.4905249 Z" id="Path"></path>
                        <path d="M42.0027264,50.5099775 C42.0027264,50.0982608 42.0100304,49.6800089 42.0027264,49.2682921 C42.0027264,49.0787717 42.0465503,48.9938143 42.2802777,49.0003495 C43.0983234,49.0134199 43.9090652,49.0199551 44.7271109,49.0003495 C45.0923099,48.9938143 44.9827502,49.2094755 44.9900542,49.3728551 C44.9973582,49.5362348 45.05579,49.7257552 44.719807,49.7061496 C44.2961761,49.6800089 43.8652413,49.7061496 43.4416105,49.6996144 C43.266315,49.6996144 43.2005791,49.7518959 43.2078831,49.9087404 C43.2078831,50.0525145 43.251707,50.1309367 43.4343065,50.1244015 C43.7483776,50.1178664 44.0697528,50.1440071 44.3838239,50.1178664 C44.719807,50.0917256 44.6540711,50.2877812 44.6540711,50.4511609 C44.6540711,50.6080053 44.7417189,50.8171313 44.3984319,50.7975257 C44.1208806,50.7779202 43.8360254,50.7975257 43.5584742,50.7975257 C43.3831786,50.7975257 43.2005791,50.7517794 43.2005791,51.0262572 C43.2005791,51.3072703 43.3758747,51.2745943 43.5730821,51.2745943 C43.9528891,51.2745943 44.3253921,51.2876647 44.705199,51.2745943 C44.9316224,51.2680591 45.0046622,51.3268758 44.9973582,51.5294666 C44.9754463,52.0980278 45.0338781,51.9869296 44.5079916,51.9934648 C43.7922015,51.9934648 43.0691075,51.9869296 42.3533175,52 C42.0903742,52 41.9808145,51.9542537 42.0027264,51.6993814 C42.0246384,51.3072703 42.0027264,50.9151591 42.0027264,50.5230479 L42.0027264,50.5099775 Z" id="Path"></path>
                        <path d="M33,43.486823 C33,43.0610807 33,42.6353385 33,42.2095962 C33,42.0589489 33.0441938,42 33.2283346,42 C34.0753822,42.0065499 34.9224298,42.0065499 35.7621118,42 C35.9462526,42 35.9830807,42.0589489 35.9904464,42.2095962 C36.0125433,42.7073872 36.0199089,42.7073872 35.4527553,42.7073872 C35.1065706,42.7073872 34.7677516,42.7073872 34.4215669,42.7073872 C34.2521574,42.7073872 34.1858667,42.7532363 34.1858667,42.9104335 C34.1858667,43.0610807 34.2300605,43.1265796 34.4142012,43.1200297 C34.7456547,43.1069299 35.0771081,43.1265796 35.4085615,43.1200297 C35.7326493,43.1069299 35.6442617,43.3099762 35.6442617,43.4540736 C35.6442617,43.598171 35.7400149,43.8012173 35.4159271,43.7881175 C35.0844737,43.7750178 34.7530203,43.7946674 34.4215669,43.7881175 C34.2005979,43.7815677 34.1932323,43.8863658 34.1932323,44.0304631 C34.1932323,44.1745605 34.1932323,44.2859085 34.4215669,44.2793586 C34.8487735,44.2662589 35.2833458,44.2924584 35.7105524,44.2728087 C36.0714683,44.2531591 35.9904464,44.4627553 35.9904464,44.6330522 C35.9904464,44.8033491 36.078834,45.0063954 35.717918,44.9998455 C34.9076986,44.9801959 34.0974791,44.9867458 33.2946253,44.9998455 C33.0662907,44.9998455 32.9926344,44.9474465 33.0073656,44.7444002 C33.0220969,44.3317577 33.0073656,43.9191152 33.0073656,43.4999228 L33,43.486823 Z" id="Path"></path>
                        <path d="M45.001325,56.1386776 C45.001325,55.8475414 45.0146524,55.5564051 45.001325,55.2652688 C44.9879975,55.0452992 45.0746259,55 45.287865,55 C46.1474852,55 46.1474852,54.987072 46.1474852,55.834602 C46.1474852,56.1710261 46.1474852,56.5009806 46.1474852,56.8374047 C46.1408215,57.1285409 46.2740959,57.2773439 46.5806271,57.2838136 C46.9338044,57.2838136 47.0937338,57.1673591 47.1003975,56.8568138 C47.1137249,56.3327685 47.1203887,55.8022535 47.1003975,55.2782082 C47.1003975,55.0647083 47.1670347,55.0064811 47.3869375,55.0064811 C48,55.0064811 48,55.0064811 48,55.5952233 C48,56.0286928 48,56.4556927 48,56.8891622 C47.9933363,57.4779045 47.7734334,57.762571 47.1870259,57.911374 C46.6605918,58.0472376 46.1341577,58.0278285 45.6143874,57.8466771 C45.2145641,57.7108135 45.001325,57.4326166 45.001325,57.0185561 C45.001325,56.7274199 45.001325,56.4362836 45.001325,56.1451473 L45.001325,56.1386776 Z" id="Path"></path>
                        <path d="M36,50.4740858 C36,50.0632657 36,49.6459247 36,49.2351046 C36,49.0786017 36.0195228,48.9938293 36.208243,49.0003502 C36.8004338,49.0133921 37.3991323,48.9807874 37.9913232,49.039476 C38.154013,49.0525179 38.3101952,49.0916436 38.4598698,49.1633741 C38.7852495,49.3263979 38.9934924,49.5741942 39,49.9524095 C39,50.3436667 38.7852495,50.6045049 38.4468547,50.7610078 C38.1019523,50.9175107 37.7310195,50.9240316 37.3600868,50.9109897 C37.164859,50.9044688 37.0997831,50.9566364 37.0997831,51.1653069 C37.0867679,52.0325938 37.0802603,52.0260728 36.2147505,51.9869471 C36.032538,51.9804262 36,51.9152166 36,51.7521928 C36.0065076,51.3283308 36,50.9044688 36,50.4806068 L36,50.4740858 Z M37.4316703,49.6980923 C37.2364425,49.6850504 37.0672451,49.6654875 37.0867679,49.9589305 C37.0997831,50.1545591 37.0997831,50.304541 37.3535792,50.2654153 C37.5748373,50.2328105 37.8872017,50.304541 37.8937093,49.9654514 C37.8937093,49.6785294 37.6203905,49.7241761 37.4316703,49.6980923 Z" id="Shape"></path>
                        <path d="M37.4652098,56.1938804 C37.20682,56.2386207 36.9988477,56.2386207 36.9421279,55.8934814 C36.9169192,55.7464776 36.74676,55.6761714 36.5892052,55.6761714 C36.4127439,55.6761714 36.2740957,55.7464776 36.2047716,55.9062643 C36.0409146,56.283361 36.0472168,56.6732406 36.1732606,57.0567287 C36.2362825,57.2356898 36.3938373,57.305996 36.5766009,57.305996 C36.74676,57.305996 36.9169192,57.2548643 36.9610345,57.0822946 C37.0240564,56.8202444 37.1816112,56.8138529 37.3832813,56.8458102 C37.4589076,56.8585932 37.5282317,56.8522017 37.603858,56.8585932 C38.0576158,56.8841591 38.0954289,56.9736396 37.8496435,57.3826936 C37.5597427,57.8556623 36.8349907,58.1049296 36.1606562,57.9579258 C35.4043933,57.7917476 34.9758443,57.2484728 35.0010531,56.475105 C35.0262618,55.656997 35.4800196,55.1265051 36.2677935,55.0242416 C36.7719688,54.9603269 37.2572375,55.0050672 37.6542755,55.3757724 C37.6920887,55.4141212 37.7299018,55.45247 37.7614128,55.4908188 C37.8937588,55.6697799 38.0513136,55.8934814 37.9819895,56.0980084 C37.9126654,56.2961439 37.6416711,56.1427486 37.471512,56.1938804 L37.4652098,56.1938804 Z" id="Path"></path>
                        <path d="M32.5041847,55.0132994 C32.847219,55.0132994 33.0805621,55.1903281 33.204214,55.5443855 C33.4555066,56.2787269 33.7067992,57.0130682 33.9640749,57.740853 C34.0298896,57.9244383 34.0179233,58.0031177 33.8204791,57.9900045 C33.6948328,57.9768913 33.5632034,57.9768913 33.431574,57.9900045 C33.1443824,58.0293442 32.9230056,57.963778 32.8871067,57.5900507 C32.8691572,57.4458051 32.7913762,57.3933521 32.6597468,57.3999088 C32.4922184,57.4064654 32.3187068,57.413022 32.1511784,57.3999088 C32.0075827,57.3933521 31.9178353,57.4523617 31.8939027,57.603164 C31.8460375,57.9441082 31.6545764,58.0096744 31.3673849,57.9965611 C30.9425808,57.9703346 30.9425808,57.9900045 31.0861766,57.5638242 C31.331486,56.8491527 31.5887617,56.1410379 31.8041554,55.4198098 C31.8998859,55.0919788 32.0494648,54.9542898 32.3546058,55.0132994 C32.402471,55.0264126 32.4563194,55.0132994 32.5041847,55.0132994 L32.5041847,55.0132994 Z M32.3905047,55.9246694 C32.3127237,56.1803776 32.2708416,56.3508497 32.2050268,56.5082085 C32.1092963,56.7376902 32.2050268,56.7442468 32.3785384,56.7573601 C32.6058983,56.7704733 32.6597468,56.6983505 32.5640162,56.4688688 C32.5041847,56.3246232 32.4623026,56.1672643 32.3845215,55.9246694 L32.3905047,55.9246694 Z" id="Shape"></path>
                        <path d="M54.4405532,57.9776965 C54.157775,58.0496847 53.9291458,57.9580633 53.8749968,57.5457669 C53.8629637,57.4279679 53.7847484,57.3887016 53.6824669,57.3887016 C53.5621358,57.3887016 53.4418046,57.4017903 53.3214735,57.3887016 C53.0507284,57.3494352 52.8762482,57.4345123 52.8341323,57.7486429 C52.8040495,57.9842409 52.6416024,57.9776965 52.4731388,57.9776965 C51.9256321,57.9776965 51.9256321,57.9776965 52.1121454,57.4345123 C52.3588242,56.7080852 52.6115197,55.9882026 52.852182,55.2617755 C52.9123475,55.0719883 53.0025959,55 53.1951258,55 C54.0193942,55 54.0193942,55 54.3142055,55.8376816 C54.524785,56.4397653 54.7233315,57.041849 54.9459441,57.6373883 C55.042209,57.8991638 55.0301759,58.0235072 54.7413811,57.9776965 C54.6631659,57.9646077 54.5789341,57.9776965 54.4525863,57.9776965 L54.4405532,57.9776965 Z M53.3876556,55.9293031 C53.3034238,56.197623 53.2372417,56.400499 53.1710595,56.603375 C53.1469933,56.6819077 53.1530099,56.7342628 53.2372417,56.7408072 C53.3575728,56.7408072 53.4959537,56.7735291 53.586202,56.7146296 C53.6824669,56.6491857 53.5681523,56.518298 53.5440861,56.4201322 C53.5079868,56.2761556 53.4538378,56.1452679 53.3876556,55.9358475 L53.3876556,55.9293031 Z" id="Shape"></path>
                        <path d="M47.4929714,42 C47.8443967,42 48.0807,42.1769316 48.2018812,42.5307947 C48.4503026,43.2581801 48.698724,43.9855655 48.9592635,44.7063979 C49.0501494,44.9488597 48.9895588,45.0143899 48.7714327,44.9881778 C48.6623696,44.9750718 48.5472475,44.9750718 48.4381845,44.9881778 C48.1412906,45.027496 47.9231645,44.9619658 47.8868102,44.5884435 C47.874692,44.437724 47.7777471,44.3918529 47.6505069,44.4049589 C47.5414438,44.4115119 47.4263217,44.418065 47.3172587,44.4049589 C47.0567191,44.3656408 46.8931246,44.4508301 46.8446521,44.7522691 C46.7961796,45.0799202 46.5538173,44.9881778 46.3720455,44.9881778 C45.9418524,44.9947309 45.9418524,44.9881778 46.0872698,44.5622314 C46.311455,43.9003763 46.5416992,43.2319681 46.7658843,42.5701129 C46.8911049,42.198775 47.1334672,42.013106 47.4929714,42.013106 L47.4929714,42 Z M47.3960264,42.91087 C47.3111996,43.1795439 47.2687862,43.3564755 47.2021365,43.526854 C47.1233688,43.7168917 47.2021365,43.7431037 47.3596721,43.7431037 C47.5656801,43.7496568 47.6989793,43.7299977 47.5777982,43.4547708 C47.5172076,43.3106043 47.4747942,43.1533318 47.3960264,42.91087 Z" id="Shape"></path>
                        <path d="M51,51.9827345 C50.6886947,51.9827345 50.4126315,51.9761935 50.1424419,51.9827345 C49.9955998,51.9892756 49.9486103,51.8911601 49.9309893,51.7734216 C49.8898735,51.439829 49.7077892,51.3547956 49.4375997,51.4005828 C49.3612418,51.4136649 49.2790102,51.4136649 49.2026523,51.4005828 C49.0323154,51.3744187 48.9148417,51.439829 48.8854733,51.642601 C48.8443575,51.9369473 48.6916417,52.0350628 48.4331995,51.9892756 C48.2981047,51.9696525 48.16301,51.9892756 48.0279152,51.9892756 C47.9633047,51.8846191 48.0279152,51.8126677 48.0514099,51.7341754 C48.3215995,50.9034645 48.6035364,50.0792947 48.8678522,49.2485839 C48.9265891,49.065435 49.0088207,49.0000124 49.1850312,49.0000124 C49.9838524,49.0000124 49.9838524,48.9869427 50.2599156,49.8111125 C50.5007367,50.5240848 50.7356842,51.2305161 50.9882526,51.9827345 L51,51.9827345 Z M49.4258523,50.0138844 C49.4023576,50.0138844 49.3788628,50.0138844 49.3612418,50.0204255 C49.2966312,50.2428205 49.226147,50.4717565 49.1556628,50.7006926 C49.320126,50.7530208 49.4669681,50.7399388 49.637305,50.7137747 C49.5668208,50.4717565 49.4963365,50.2428205 49.4258523,50.0138844 Z" id="Shape"></path>
                        <path d="M23.4452838,43.2020246 C23.2101886,43.2531918 23.0068629,43.2404 22.9496776,42.9014174 C22.9242619,42.7543118 22.7590598,42.6839569 22.5938577,42.6839569 C22.4159478,42.6839569 22.2825153,42.7607077 22.2126222,42.9206051 C22.0474201,43.2979631 22.053774,43.6881128 22.1872065,44.0718666 C22.2443918,44.2381599 22.396886,44.3085148 22.568442,44.3149107 C22.739998,44.3149107 22.917908,44.2765353 22.9623855,44.1038461 C23.0322786,43.8416143 23.1974807,43.8224266 23.4071603,43.8544061 C23.4516378,43.860802 23.4897613,43.8544061 23.5342388,43.860802 C23.686733,43.8863856 23.9218283,43.8032389 23.9726597,43.9439487 C24.0489068,44.1294297 23.9027665,44.3277025 23.775688,44.4875999 C23.3817446,44.9928758 22.4604253,45.1527732 21.7869091,44.8393743 C21.1832861,44.5579548 20.8910055,43.9119692 21.0371458,43.1700451 C21.1578704,42.5688308 21.5454599,42.1530975 22.1173133,42.0507631 C22.746352,41.9420329 23.349975,41.9676164 23.7883959,42.5368513 C23.8455812,42.6136021 23.8900587,42.7031446 23.9218283,42.7862913 C24.0616147,43.1380656 24.036199,43.176441 23.6613173,43.1892328 C23.5977781,43.1892328 23.5342388,43.1892328 23.4452838,43.1892328 L23.4452838,43.2020246 Z" id="Path"></path>
                        <path d="M51.4943037,43.1902152 C51.2205213,43.2414974 51.0040422,43.2286768 50.9403719,42.8761118 C50.9149038,42.7286755 50.7429939,42.6645728 50.5774511,42.670983 C50.3991742,42.670983 50.2718335,42.7607269 50.2017962,42.9209837 C50.0489874,43.2927796 50.0553545,43.6709857 50.1763281,44.0491918 C50.2336313,44.2158589 50.3737061,44.2991925 50.5456159,44.3056028 C50.7302598,44.3184233 50.9149038,44.2735514 50.959473,44.0876535 C51.0231433,43.8312425 51.1823191,43.818422 51.3860641,43.8504733 C51.4370004,43.8568836 51.4943037,43.8504733 51.5452399,43.8568836 C51.6916817,43.888935 51.9208948,43.7927809 51.9781981,43.9530377 C52.0418684,44.1132946 51.9145278,44.2991925 51.8062883,44.4466288 C51.4497345,44.9530404 50.5901851,45.1453486 49.8898116,44.8825274 C49.2531084,44.638937 48.9347568,44.0620124 49.0111612,43.3120104 C49.0875656,42.6068803 49.5268908,42.1453406 50.2208973,42.0299557 C50.564717,41.9722632 50.8958027,41.9979043 51.2268883,42.106879 C51.4688356,42.1902125 51.6598465,42.3376488 51.7999212,42.5427776 C51.9145278,42.7094447 52.0546025,42.9209837 51.9781981,43.1004714 C51.9017937,43.2863693 51.6534795,43.1517535 51.4943037,43.1902152 L51.4943037,43.1902152 Z" id="Path"></path>
                        <path d="M31.0002385,43.4513546 C31.0002385,43.0626803 31.0078712,42.674006 31.0002385,42.2853317 C31.0002385,42.0909945 31.0307691,41.9938259 31.3055443,42.0003038 C32.106972,42.0197376 32.9083997,42.0132597 33.7098274,42.0003038 C33.9159088,42.0003038 33.9998679,42.0456492 33.9998679,42.2335084 C33.9998679,42.7128734 34.0227659,42.7128734 33.4655828,42.7128734 C33.1450117,42.7128734 32.8320733,42.7258292 32.5115022,42.7128734 C32.2825228,42.6999176 32.236727,42.7776525 32.236727,42.9525559 C32.236727,43.1468931 32.3206861,43.1922384 32.5267675,43.1792826 C32.7557468,43.1663268 32.9847262,43.1987163 33.2137055,43.1728047 C33.5724398,43.1339373 33.5877051,43.2829291 33.5953377,43.5226116 C33.6029704,43.7882057 33.5190113,43.8918522 33.1984402,43.8594627 C32.9694609,43.840029 32.7404815,43.8594627 32.5115022,43.8594627 C32.3206861,43.8529848 32.2214617,43.8983301 32.2443596,44.0732336 C32.2443596,44.1185789 32.2443596,44.1574463 32.2443596,44.2027917 C32.2443596,45.0319635 32.1909311,45.0578752 31.1986873,44.9607066 C30.9849732,44.9412729 31.0002385,44.8376264 31.0002385,44.7145462 C31.0002385,44.2934823 31.0002385,43.8724185 31.0002385,43.4513546 L31.0002385,43.4513546 Z" id="Path"></path>
                        <path d="M28.0004793,56.4966809 C28.0004793,56.0827221 28.0082089,55.6621925 28.0004793,55.2482338 C28.0004793,55.0576813 28.0700462,55.0116859 28.2864766,55.0051151 C29.3145211,54.9854028 29.3145211,54.978832 29.3145211,55.8593158 C29.3145211,56.2404207 29.3222508,56.6280963 29.3145211,57.0092012 C29.3145211,57.1997537 29.3840881,57.2588906 29.6005185,57.2523199 C29.9638124,57.2391783 30.3193767,57.2523199 30.6826706,57.2457491 C30.9068307,57.2391783 31.0073163,57.2851737 30.9995866,57.4954385 C30.9763976,58.1065205 31.0536942,57.9882466 30.4353216,57.9948173 C29.724193,58.0013881 29.0207941,57.9948173 28.3096656,57.9948173 C28.0777758,57.9948173 27.9927496,57.9422511 28.0004793,57.7385571 C28.0159386,57.3245984 28.0004793,56.9106396 28.0004793,56.4901101 L28.0004793,56.4966809 Z" id="Path"></path>
                        <path d="M55.9996611,50.4868421 C55.9996611,50.9013125 55.9878308,51.3157829 55.9996611,51.7302532 C56.0055762,51.9539357 55.9345944,52 55.7453096,52 C54.9940856,52 55,52.0131457 55,51.1710472 C55,50.3289486 55.0059159,49.9276361 55,49.3026411 C55,49.0855375 55.0354916,49 55.2543522,49 C55.9996611,49 55.9996611,48.9868541 55.9996611,49.8355315 C55.9996611,50.684209 55.9996611,50.2697386 55.9996611,50.493421 L55.9996611,50.4868421 Z" id="Path"></path>
                        <path d="M53,43.5154074 C53,43.926739 52.9940476,44.3445997 53,44.7559312 C53,44.9256871 52.952381,44.9713906 52.797619,44.9844488 C52,45.0301523 52,45.0301523 52,44.1748438 C52,43.5349947 52,42.8951455 52,42.2487673 C52,42.0659533 52.047619,42.0137207 52.2202381,42.0071917 C53,41.9810754 53,41.9810754 53,42.8363839 C53,43.6916924 53,43.293419 53,43.5219365 L53,43.5154074 Z" id="Path"></path>
                        <path d="M50.3518987,55.9989724 C50.1824501,56.0110968 50.0271222,55.9141013 49.8788547,55.8049813 C49.709406,55.683737 49.5328971,55.6231148 49.3775692,55.8292302 C49.2010602,56.0595945 49.1163359,55.8292302 49.0386719,55.6594881 C48.9186458,55.3685016 49.1092755,55.3321283 49.1869394,55.2351328 C49.4411124,54.9441463 49.7164664,54.9320218 49.9918204,55.1502617 C50.2036312,55.3200038 50.415442,55.4169993 50.6272527,55.1502617 C50.8037617,54.9320218 50.8955464,55.2108839 50.96615,55.380626 C51.0720554,55.6231148 50.9026068,55.6716125 50.8249428,55.7564836 C50.690796,55.9262257 50.5284077,55.9989724 50.3589591,55.9989724 L50.3518987,55.9989724 Z" id="Path"></path>
                        <path d="M17.062292,15.718683 C17.3947191,15.36912 17.6969255,15.0545133 17.9870436,14.7399066 C18.0716614,14.6525159 18.1683674,14.664168 18.2650735,14.6816461 C18.5914563,14.7340806 18.9178392,14.780689 19.2442221,14.8389495 C19.3227958,14.8506016 19.3953253,14.8564276 19.473899,14.8272974 C19.4376342,14.6816461 19.3046634,14.6816461 19.2140015,14.6466898 C18.4463973,14.3262571 17.6787931,14.0116504 16.9111889,13.6912176 C16.8144828,13.6504353 16.6996444,13.6387832 16.6936003,13.4931319 C16.6633796,12.5085294 16.6271148,11.523927 16.5908501,10.475238 C17.5216457,11.0694951 18.4101325,11.640448 19.3409282,12.228879 C19.3651047,12.0424454 19.2502663,11.990011 19.1837809,11.9259244 C18.1683674,10.941322 17.152954,9.95671953 16.1254523,8.98376917 C15.9622608,8.82646582 15.9441284,8.75655322 16.1556729,8.62838012 C16.8326152,8.20890451 17.4974692,7.77195076 18.1562792,7.32917096 C18.3194706,7.218476 18.3980443,7.2417802 18.5189268,7.38160541 C18.9843246,7.91177596 19.4618107,8.43612046 19.9392968,8.96629102 C20.0118264,8.82646582 19.9151203,8.73324902 19.8667673,8.64003222 C19.2925752,7.55056086 18.718383,6.4610895 18.1441909,5.37161814 C18.0837496,5.26092319 18.0233083,5.16188034 18.0897938,5.02205514 C18.8211332,3.34997878 19.5464285,1.67790241 20.277768,0 C20.3805181,0.0699126005 20.374474,0.168955451 20.4046947,0.256346202 C21.5893437,4.03162663 22.7679486,7.81273311 23.9646859,11.5880135 C24.0432595,11.8268816 23.9949065,11.9550547 23.7773179,12.0774017 C23.5355528,12.2114009 23.3179642,12.3861824 23.0761991,12.5376597 C22.9432283,12.6192244 22.9190518,12.7066151 23.0278461,12.8173101 C23.3240083,13.1202647 23.2756553,13.4115672 22.9855372,13.6853916 C22.9613607,13.7028697 22.9492724,13.732 22.93114,13.7553042 C22.7921251,13.9592159 22.5443159,14.1631277 22.55036,14.3612134 C22.55036,14.547647 22.9190518,14.6175596 23.118508,14.8039932 C22.8525664,14.9729486 22.5866248,15.136078 22.266286,15.3341637 C22.5805806,15.3807721 22.8283899,15.4157284 23.1608169,15.4681629 C22.6531102,15.718683 22.2239771,15.9342469 21.7827558,16.1556368 C22.0204915,16.419751 22.0063885,16.6605611 21.7404469,16.878067 C21.3294462,17.2159779 20.9124014,17.5597148 20.5014007,17.9034518 C20.4107388,17.9791904 20.3382093,18.0549291 20.1991943,17.9442341 C19.7277524,17.5538888 19.238178,17.1751955 18.7244272,16.767372 C19.0085012,16.6333729 19.2623545,16.5168519 19.5947815,16.3595485 C18.718383,16.1498107 17.9205582,15.951725 17.0562479,15.7419872 L17.062292,15.718683 Z" id="Path"></path>
                    </g>
                </g>
            </g>
        </g>
    </g>
</svg>