<?xml version="1.0" encoding="UTF-8"?>
<svg id="Capa_1" data-name="Capa 1" xmlns="http://www.w3.org/2000/svg" version="1.1" viewBox="0 0 200 200">
  <defs>
    <style>
      .cls-1 {
        fill: #000;
      }

      .cls-1, .cls-2 {
        stroke-width: 0px;
      }

      .cls-2 {
        fill: #fff;
      }
    </style>
  </defs>
  <path class="cls-2" d="M200,200H0V0h200v200ZM4.4,195.8h191V4.5H4.4v191.3Z"/>
  <path class="cls-1" d="M4.4,195.8V4.5h191v191.3H4.4ZM29.1,142.5c-.5,16.9,12.6,30.3,28.8,30.5,16.9.2,30.1-12.3,30.2-28.5,0-27.5,0-55,0-82.4,0-1.6-.2-3.2-.3-5.1h-17.6c-.2,1.9-.4,3.5-.5,5-3.2-1.5-5.9-3.3-8.8-4-15-3.8-30.6,8.8-30.9,24.9-.2,10.8-.2,21.7,0,32.5.2,14.6,11.5,26,26.1,25.8,4.5,0,8.9-1.6,13.6-2.4,0,1.1.2,2.8.2,4.4,0,8.3-3.2,12.7-9.6,13.5-6.8.9-10.6-2.5-12.6-10.9-.3-1.2-1.8-3-2.9-3-5.1-.3-10.2-.1-15.6-.1ZM113.5,140c0-2.9,0-5.3,0-7.8-.1-16.5-.3-33-.3-49.4,0-7.1,3.1-10.4,10.1-9.7,3.6.3,7.1,2.5,11.4,4.1,3.8-2.9,8.4-6.6,13-10.2-7.8-10.6-19.5-12.8-34.2-7.1-1.5-3.2-10.4-4.3-18.3-2.2v82.4h18.3ZM170.8,140V57.2h-17.9v82.8h17.9ZM152.8,47.1c5.6,0,10.7.1,15.8-.1.8,0,2.3-1.5,2.3-2.3.2-5.6.1-11.2.1-16.8h-18.3v19.2Z"/>
  <path class="cls-2" d="M29.1,142.5c5.4,0,10.5-.2,15.6.1,1,0,2.6,1.8,2.9,3,2.1,8.5,5.8,11.8,12.6,10.9,6.4-.8,9.6-5.3,9.6-13.5,0-1.6-.2-3.3-.2-4.4-4.7.9-9.2,2.4-13.6,2.4-14.6.2-25.9-11.2-26.1-25.8-.1-10.8-.2-21.7,0-32.5.3-16.2,15.9-28.7,30.9-24.9,3,.7,5.7,2.5,8.8,4,.2-1.5.3-3.1.5-5h17.6c0,1.9.3,3.5.3,5.1,0,27.5,0,55,0,82.4,0,16.3-13.3,28.7-30.2,28.5-16.1-.2-29.2-13.6-28.8-30.5ZM48.1,99.3s0,0,0,0c0,5-.2,10,0,15,.4,7,4.1,10.9,10.3,11.2,5.9.2,10.1-3.2,10.4-10.2.5-10.1.4-20.2.2-30.4-.2-7.4-3.7-10.6-10.3-10.7-6.3,0-10.1,3.7-10.5,10.7-.3,4.8,0,9.6,0,14.5Z"/>
  <path class="cls-2" d="M113.5,140h-18.3c0-27.6,0-55,0-82.4,7.9-2.1,16.9-1,18.3,2.2,14.7-5.7,26.4-3.4,34.2,7.1-4.6,3.6-9.3,7.2-13,10.2-4.3-1.6-7.8-3.7-11.4-4.1-7-.6-10.1,2.7-10.1,9.7,0,16.5.2,33,.3,49.4,0,2.5,0,4.9,0,7.8Z"/>
  <path class="cls-2" d="M170.8,140h-17.9V57.2h17.9v82.8Z"/>
  <path class="cls-2" d="M152.8,47.1v-19.2h18.3c0,5.7,0,11.3-.1,16.8,0,.8-1.5,2.3-2.3,2.3-5.1.2-10.2.1-15.8.1Z"/>
  <path class="cls-1" d="M48.1,99.3c0-4.8-.2-9.7,0-14.5.4-7.1,4.2-10.8,10.5-10.7,6.6,0,10.1,3.3,10.3,10.7.3,10.1.4,20.3-.2,30.4-.4,7-4.5,10.5-10.4,10.2-6.2-.2-9.9-4.1-10.3-11.2-.3-5,0-10,0-15,0,0,0,0,0,0Z"/>
</svg>