<?xml version="1.0" encoding="UTF-8"?>
<svg width="39px" height="39px" viewBox="0 0 39 39" version="1.1" xmlns="http://www.w3.org/2000/svg" xmlns:xlink="http://www.w3.org/1999/xlink">
    <title>Fill 1</title>
    <g id="Page-1" stroke="none" stroke-width="1" fill="none" fill-rule="evenodd">
        <g id="onepage_desktop" transform="translate(-291, -3007)" fill="#FFFFFF">
            <g id="EXPERIENCIA" transform="translate(250, 2746)">
                <g id="Experiencia2" transform="translate(0, 241)">
                    <path d="M76.3872738,20.0079284 L60.3004676,20.0079284 L60.2846107,26.1075422 L60.2846107,52.918886 L59.7401911,52.918886 C58.6090669,52.918886 57.7316528,52.8105306 57.1660907,51.6556211 L53.616792,44.1262452 C53.2414332,43.2927811 52.6111222,42.5995182 51.817036,42.1467778 L51.817036,42.0384224 C53.3604391,41.7080707 57.8955072,38.7956902 57.8955072,31.7605204 C57.8955072,24.3976418 53.2150844,20 46.5314088,20 L41.0079284,20 L41.0079284,26.0863997 L45.6936369,26.0863997 C48.9865826,26.0863997 50.9792641,28.2852206 50.9792641,32.1331571 C50.9792641,36.03395 48.9733686,38.28827 45.5773531,38.28827 L41,38.3173409 L41,44.4433828 L43.6243139,44.4433828 C45.5271397,44.4433828 46.2988412,44.7076642 47.0599715,46.2563529 L51.7403944,56.0929051 C52.9243749,58.5665786 54.1189266,59 56.835739,59 L67,59 L67,26.0996137 L72.6080504,26.0996137 C73.3295385,26.0996137 73.7391746,26.5409636 73.7391746,27.3100224 L73.7391746,29.6726977 L79.6564342,29.6726977 L79.6564342,23.5175849 C79.6564342,20.935556 78.8345192,20 76.3634885,20" id="Fill-1"></path>
                </g>
            </g>
        </g>
    </g>
</svg>